<?xml version="1.0" encoding="utf-8"?>
<!-- Generator: Adobe Illustrator 20.1.0, SVG Export Plug-In . SVG Version: 6.00 Build 0)  -->
<svg version="1.1" id="Layer_1" xmlns="http://www.w3.org/2000/svg" xmlns:xlink="http://www.w3.org/1999/xlink" x="0px" y="0px"
	 viewBox="0 0 35.5 48.3" style="enable-background:new 0 0 35.5 48.3;" xml:space="preserve">
<style type="text/css">
	.st0{fill:#B7B7A1;}
	.st1{fill:#332E2B;}
	.st2{fill:#FFFFFF;}
	.st3{fill:#A36B2F;}
	.st4{fill:#D39542;}
	.st5{fill:#B2732F;}
</style>
<g>
	<path class="st0" d="M32.1,42.6c0,2.8-6.1,5.1-13.7,5.1c-7.6,0-13.7-2.3-13.7-5.1c0-2.8,3.1-5.3,10.7-5.3S32.1,39.8,32.1,42.6z"/>
	<g>
		<g>
			<g>
				<path class="st1" d="M31.1,18.9c-0.3,0.5-0.6,1.2-1.2,1.5c-0.3,0.1-0.5,0-0.6-0.2c-0.4,1.7-1.6,5.7-3.2,4.2
					c-0.8,1.3-1.3,2.7-2.9,3.4c-0.3,0.1-0.6,0.2-0.8,0.2c0.2,1.4-0.2,2.7-0.5,4.1c-0.1,0.8-0.2,1.6-0.3,2.3
					c-0.1,0.7,0.2,1.1,1.1,1.2c0.6,0,1.8-0.3,2.3,0.1c0.5,0.3-0.3,0.9-0.7,1.2c1.4,0.1,3,0.5,3.4,1.8c0.3,0.8,0,1.6-0.9,1.6
					c0.7,0.8,1.7,2.2,1,3c-0.9,0.9-2.5-0.1-3.4-0.7c0.2,1.1-0.2,2.7-1.8,2.2c-1.3-0.4-1.4-2.3-1.4-3.4c-0.6,0.4-1.3,0-1.7-0.5
					c-0.5-0.6-0.7-1.5-0.2-2.1c-0.5,0-0.9-0.1-0.9-0.7c-0.1-0.7,0.3-1.6,0.9-2.1c0.2-0.1,0.4-0.3,0.6-0.4c0.4-0.2,0.4-0.3,0.4-0.8
					c0.1-0.9,0.2-1.7,0.2-2.6c0.2-1.7,0.3-3.3,0.4-5c-0.6,0.2-1.2,0.1-1.5-0.4c-0.5,0.7-1.2,1.5-2.1,1.2c-0.9-0.3-1.5-1.4-1.8-2.1
					c-0.2,0.3-0.5,0.5-0.8,0.7c0.1,1.9,0.4,3.8,0.6,5.7c0.1,0.9,0.2,1.8,0.3,2.8c0,0.5,0.1,0.4,0.5,0.6c0.2,0.1,0.3,0.2,0.5,0.3
					c0.6,0.5,1.1,1.3,0.9,2.1c-0.1,0.5-0.5,0.7-0.9,0.6c0.5,0.6,0.3,1.4-0.2,2.1c-0.4,0.5-1.1,0.8-1.7,0.5c0,1.1-0.1,3.2-1.6,3.5
					c-1.6,0.3-1.9-1.1-1.7-2.2c-1,0.5-2.7,1.7-3.5,0.6c-0.6-0.8,0.3-2.1,1-2.9c-1,0-1.2-0.8-0.8-1.7c0.5-1.2,2-1.6,3.4-1.7
					c-0.5-0.4-1.3-1-0.7-1.3c0.7-0.3,1.7,0,2.4-0.1c0.9-0.1,1-0.7,0.9-1.3C14,33.5,14,32.7,13.8,32c-0.2-1.6-0.6-3.2-0.4-4.9
					c-0.4,0.1-0.9,0.1-1.3,0c-1.1-0.3-1.9-1-2.3-1.9c-0.1,0.1-0.2,0.1-0.3,0.2c-0.5,0.1-1.1-0.1-1.6-0.4c-1.5-0.8-2.3-2.4-2.6-3.9
					c-1.3,0.7-1.9-0.6-2-1.7c-0.2-1.6,0.3-3.5,1.3-5C4,14.8,3.3,15.1,2.7,15c-0.8-0.1-0.8-1.1-0.7-1.7c0.4-2,2.4-3.9,4.4-4.9
					C6,8.3,5.4,8,5.5,7.5C5.6,6.9,6.1,6.4,6.6,6c1.8-1.3,3.9-1.7,6.1-1.9c-0.5-0.8-1.2-2.4,0.3-2.7c1.3-0.2,2.4,1.2,3.2,1.9
					c0.7-0.6,2-1,2.9-0.7c0.9,0.3,0.6,0.9,0.1,1.4c1.3-0.2,3.4,0,3,1.3c1.1-0.2,2.3-0.6,3.5-0.5C26.3,4.9,27.6,5,28,5.5
					c0.5,0.8-1.5,1.7-2.3,2.1c2.1,1,4.9,1.6,5.7,3.8c0.2,0.6,0.5,1.4,0.1,2c-0.3,0.4-0.8,0.5-1.3,0.4C31.2,15.3,32,17.2,31.1,18.9z"
					/>
				<path class="st1" d="M9.5,17.4c-0.9,0.6-0.1,2.1,1,1.5C11.5,18.4,10.5,17,9.5,17.4z"/>
				<path class="st2" d="M12.4,20.5c0.2,0.4,0.4,0.9,1,1c0.6,0,0.7-0.5,0.9-0.9C13.6,20.6,13,20.6,12.4,20.5z"/>
				<path class="st3" d="M13.6,27.1c0.2,1.6,0.5,3.3,0.7,4.9c0.1,0.7,0.1,1.4,0.2,2.1c0,0.4,0.1,0.8,0,1.2C14.1,36,13,36,12.2,35.9
					c-0.4,0-0.8-0.1-1.2,0c-0.3,0.1,0.9,0.9,1,1c0.1,0.1,0,0.3-0.1,0.3c-1.1,0.1-2.7,0.2-3.3,1.2c-0.4,0.7-0.7,1.9,0.7,1.6
					c0.2,0,0.3,0.1,0.2,0.2c-0.5,0.5-2,2.3-1.2,2.9c0.9,0.7,2.5-0.6,3.3-1c0.1-0.1,0.3,0,0.2,0.2c-0.1,0.5-0.2,1.1,0,1.6
					c0.3,0.7,1.3,0.8,1.8,0.2c0.7-0.8,0.8-2.1,0.8-3.1c0-0.1,0.1-0.2,0.2-0.1c0.5,0.6,1.3,0.1,1.6-0.5c0.4-0.6,0.4-1.4-0.2-1.9
					c-0.1-0.1,0-0.3,0.1-0.2c1,0.3,1.2-0.4,0.9-1.1c-0.3-0.7-0.8-1.3-1.7-1.5c-0.1,0-0.1-0.1-0.1-0.1c-0.2-3-0.7-5.9-0.8-8.9
					C14.1,26.9,13.9,27,13.6,27.1z"/>
				<path class="st3" d="M21.3,27.1c-0.1,0.1-0.1,0.1-0.2,0.1c-0.1,2.8-0.4,5.6-0.6,8.4c0,0.1,0,0.1-0.1,0.1
					c-0.9,0.2-1.5,0.9-1.7,1.6c-0.2,0.7,0,1.3,0.9,1c0.1,0,0.2,0.1,0.1,0.2c-0.6,0.5-0.7,1.3-0.2,1.9c0.3,0.5,1.1,1.1,1.6,0.5
					c0.1-0.1,0.2,0,0.2,0.1c0,1,0,2.5,0.9,3.2c0.6,0.5,1.6,0.4,1.8-0.4c0.1-0.5,0.1-1,0-1.5c0-0.1,0.1-0.2,0.2-0.2
					c0.6,0.3,3.1,2,3.4,0.8c0.3-0.9-0.7-2.1-1.4-2.7c-0.1-0.1,0-0.3,0.2-0.2c1.4,0.3,1.2-1.2,0.5-1.8c-0.8-0.7-2-0.9-3.1-0.9
					c-0.1,0-0.3-0.2-0.1-0.3c0.1-0.1,1.4-1,0.9-1c-0.4,0-0.8,0-1.3,0c-0.7,0-1.7,0.1-2.1-0.6c-0.2-0.4-0.1-0.8-0.1-1.2
					c0.1-0.6,0.1-1.3,0.2-1.9c0.2-1.4,0.6-2.8,0.7-4.2C21.7,27.9,21.4,27.6,21.3,27.1z"/>
				<path class="st2" d="M21.3,20.5c0.1,0.3,0.4,0.7,0.8,0.7c0.2,0,0.4-0.1,0.5-0.2c0.1-0.2,0.1-0.4,0.2-0.5
					C22.3,20.5,21.8,20.5,21.3,20.5z"/>
				<path class="st1" d="M26.2,16.2c-0.5,0.2-0.9,0.6-0.8,1.1c0.1,0.6,1.1,0.9,1.6,0.5c0.4-0.3,0.5-0.8,0.2-1.2
					C27,16.2,26.6,16.1,26.2,16.2z"/>
				<path class="st4" d="M31.3,12.7c0-0.6-0.2-1.2-0.5-1.7c-1.1-1.7-3.7-2.2-5.5-3.2c-0.1-0.1-0.1-0.2,0-0.3c0.4-0.2,3.2-1.6,2.3-2
					c-1.7-0.8-3.7-0.2-5.4,0.1c-0.1,0-0.2-0.1-0.2-0.2c0.7-1.5-2.1-1.3-3-1.1c-0.1,0-0.3-0.1-0.1-0.2c0.3-0.2,0.9-0.6,0.7-1
					c-0.1-0.3-0.6-0.3-0.9-0.3c-0.8,0-1.6,0.2-2.2,0.7c-0.1,0.1-0.2,0-0.2-0.1c-0.7-0.6-1.4-1.2-2.3-1.6C13,1.5,12.3,2,12.5,2.8
					c0.1,0.5,0.4,0.9,0.6,1.3c0.1,0.1,0,0.2-0.1,0.2c-2,0-3.7,0.4-5.5,1.4C7,6,6.3,6.5,6,7C5.6,7.7,6.1,8.2,6.9,8.4
					c0.1,0,0.2,0.2,0,0.2c-1.8,0.7-3.4,2.2-4.2,3.8C2.6,12.8,1.9,15,3,14.7c0.7-0.2,1.3-0.6,2-0.8c0.2-0.1,0.3,0.1,0.2,0.2
					c-1.1,1.2-1.6,3.1-1.6,4.6c0,0.9,0.2,3,1.7,2c0.1-0.1,0.3-0.1,0.3,0.1c0.2,1.3,0.7,2.7,1.9,3.6c0.4,0.3,0.8,0.5,1.3,0.7
					c0.6,0.2,0.9,0,0.8-0.5c0-0.1,0-0.1,0-0.2c0-0.2,0.3-0.3,0.3-0.1c0,0.1,0,0.2,0.1,0.2c0.3,1,1,2,2.2,2.3
					c1.3,0.3,2.5-0.2,3.3-1.1c0.1-0.1,0.2-0.1,0.3,0c0.3,0.7,0.7,1.5,1.4,2c1,0.7,1.8-0.4,2.3-1.1c0.1-0.1,0.3-0.1,0.3,0
					c0.2,0.9,1.2,0.8,1.7,0.1c0.1-0.1,0.3-0.1,0.3,0.1c0,0.6,0.2,1.1,1,0.9c0.5-0.1,0.9-0.3,1.2-0.6c0.6-0.4,1-0.8,1.3-1.5
					c0.3-0.5,0.5-1.1,0.8-1.6c0.1-0.1,0.2-0.1,0.3,0c1,1.2,1.9-1,2.1-1.7c0.3-0.9,0.6-1.9,0.8-2.8c0-0.1,0.3-0.1,0.3,0
					c0,0.2,0.2,0.8,0.5,0.5c0.2-0.2,0.4-0.4,0.5-0.6c0.3-0.4,0.5-0.9,0.6-1.3c0.4-1.5-0.6-3.3-1.5-4.5c-0.1-0.1,0.1-0.3,0.2-0.2
					C30.6,13.7,31.3,13.6,31.3,12.7z M10.7,19.2c-0.7,0.3-1.5,0.1-1.8-0.6c-0.2-0.5,0-1,0.4-1.3C10.4,16.4,12.1,18.5,10.7,19.2z
					 M24.2,20c-0.3,0.2-0.8,0.3-1.2,0.4c0.2,0.5-0.4,1.2-1,1.1c-0.6-0.1-1-0.5-1.1-1c-0.1,0-0.2,0-0.3,0c-1.2,0-2.4-0.1-3.6-0.1
					c-0.8,0-1.7,0.1-2.6,0.2c0.1,0.6-0.5,1.2-1.2,1.2c-0.7-0.1-1.1-0.7-1.2-1.3c-0.4-0.1-0.7-0.2-1.1-0.4c-0.1-0.1,0-0.2,0.1-0.2
					c1.9,0.6,4.1,0.2,6.1,0.1c1.2,0,2.3,0,3.5,0.1c0.7,0,1.3,0,2,0c0.5,0,1-0.2,1.5-0.2C24.3,19.9,24.3,20,24.2,20z M27,18.1
					c-0.7,0.3-1.9-0.1-1.9-0.9c0-0.5,0.3-0.9,0.8-1.1C27.4,15.3,28.4,17.6,27,18.1z"/>
				<path class="st1" d="M31.4,13.4c0.4-0.6,0.1-1.4-0.1-2c-0.8-2.2-3.7-2.8-5.7-3.8c0.8-0.4,2.9-1.3,2.3-2.1
					c-0.4-0.5-1.6-0.6-2.2-0.6c-1.2-0.1-2.3,0.2-3.5,0.5c0.4-1.4-1.7-1.5-3-1.3c0.5-0.5,0.8-1.1-0.1-1.4c-0.9-0.3-2.2,0.1-2.9,0.7
					c-0.8-0.7-2-2.1-3.2-1.9c-1.5,0.2-0.8,1.8-0.3,2.7C10.5,4.3,8.4,4.7,6.6,6c-0.5,0.4-1,0.9-1.1,1.5C5.4,8,6,8.3,6.5,8.5
					c-2,0.9-4,2.9-4.4,4.9C2,13.9,1.9,14.9,2.7,15c0.6,0.1,1.3-0.3,1.8-0.6c-1,1.4-1.5,3.3-1.3,5c0.1,1.1,0.7,2.3,2,1.7
					c0.3,1.5,1.1,3.1,2.6,3.9c0.4,0.2,1,0.5,1.6,0.4c0.1,0,0.2-0.1,0.3-0.2c0.4,0.9,1.2,1.6,2.3,1.9c0.5,0.1,0.9,0.1,1.3,0
					c-0.2,1.6,0.2,3.3,0.4,4.9c0.1,0.8,0.1,1.5,0.2,2.3c0.1,0.7,0,1.3-0.9,1.3c-0.7,0.1-1.7-0.2-2.4,0.1c-0.6,0.3,0.2,0.9,0.7,1.3
					c-1.3,0.1-2.9,0.5-3.4,1.7c-0.4,0.9-0.1,1.7,0.8,1.7c-0.7,0.8-1.6,2.1-1,2.9c0.7,1,2.5-0.1,3.5-0.6c-0.2,1.1,0.1,2.5,1.7,2.2
					c1.5-0.3,1.6-2.3,1.6-3.5c0.6,0.4,1.3,0,1.7-0.5c0.5-0.6,0.7-1.4,0.2-2.1c0.5,0,0.8-0.1,0.9-0.6c0.2-0.7-0.3-1.6-0.9-2.1
					c-0.1-0.1-0.3-0.2-0.5-0.3c-0.4-0.2-0.5-0.1-0.5-0.6c-0.1-0.9-0.2-1.9-0.3-2.8c-0.2-1.9-0.5-3.8-0.6-5.7
					c0.3-0.2,0.6-0.4,0.8-0.7c0.4,0.8,0.9,1.8,1.8,2.1c1,0.3,1.7-0.5,2.1-1.2c0.3,0.6,0.9,0.6,1.5,0.4c-0.1,1.7-0.2,3.3-0.4,5
					c-0.1,0.9-0.2,1.7-0.2,2.6c0,0.4,0,0.6-0.4,0.8c-0.2,0.1-0.4,0.2-0.6,0.4c-0.6,0.5-1,1.3-0.9,2.1c0.1,0.5,0.5,0.7,0.9,0.7
					c-0.5,0.6-0.3,1.4,0.2,2.1c0.4,0.5,1.1,0.8,1.7,0.5c0,1.1,0.1,3,1.4,3.4c1.6,0.5,2-1.1,1.8-2.2c1,0.5,2.5,1.6,3.4,0.7
					c0.7-0.7-0.3-2.2-1-3c0.9,0,1.2-0.7,0.9-1.6c-0.5-1.3-2-1.7-3.4-1.8c0.5-0.3,1.2-0.9,0.7-1.2c-0.5-0.4-1.7-0.1-2.3-0.1
					c-0.9,0-1.1-0.5-1.1-1.2c0.1-0.8,0.1-1.6,0.3-2.3c0.2-1.4,0.6-2.7,0.5-4.1c0.3,0,0.5-0.1,0.8-0.2c1.7-0.7,2.2-2.1,2.9-3.4
					c1.6,1.5,2.8-2.5,3.2-4.2c0.1,0.2,0.3,0.3,0.6,0.2c0.6-0.3,0.9-1,1.2-1.5c0.8-1.7,0.1-3.6-1-5.1C30.6,13.9,31.1,13.9,31.4,13.4z
					 M15.2,35.7c0,0.1,0,0.1,0.1,0.1c0.8,0.2,1.4,0.8,1.7,1.5c0.3,0.7,0,1.4-0.9,1.1c-0.1,0-0.2,0.1-0.1,0.2
					c0.7,0.5,0.6,1.3,0.2,1.9c-0.3,0.5-1.1,1.1-1.6,0.5c-0.1-0.1-0.2,0-0.2,0.1c0,1-0.1,2.2-0.8,3.1c-0.5,0.6-1.5,0.5-1.8-0.2
					c-0.2-0.5-0.1-1.1,0-1.6c0-0.1-0.1-0.2-0.2-0.2c-0.8,0.4-2.4,1.7-3.3,1c-0.8-0.6,0.7-2.5,1.2-2.9c0.1-0.1,0-0.3-0.2-0.2
					c-1.4,0.3-1.1-0.9-0.7-1.6c0.6-0.9,2.2-1.1,3.3-1.2c0.1,0,0.3-0.2,0.1-0.3c-0.1-0.1-1.3-0.9-1-1c0.4-0.1,0.8,0,1.2,0
					c0.8,0,1.8,0.1,2.2-0.6c0.2-0.4,0.1-0.8,0-1.2c-0.1-0.7-0.1-1.4-0.2-2.1c-0.2-1.6-0.5-3.3-0.7-4.9c0.3-0.1,0.6-0.2,0.8-0.3
					C14.5,29.7,15,32.7,15.2,35.7z M21.4,32.2c-0.1,0.6-0.1,1.3-0.2,1.9c-0.1,0.4-0.1,0.8,0.1,1.2c0.3,0.7,1.4,0.6,2.1,0.6
					c0.4,0,0.8-0.1,1.3,0c0.5,0.1-0.8,0.9-0.9,1c-0.1,0.1,0,0.3,0.1,0.3c1.1,0.1,2.3,0.2,3.1,0.9c0.7,0.6,0.9,2.1-0.5,1.8
					c-0.2,0-0.3,0.1-0.2,0.2c0.7,0.6,1.6,1.8,1.4,2.7c-0.3,1.2-2.9-0.5-3.4-0.8c-0.1-0.1-0.3,0-0.2,0.2c0.1,0.5,0.2,1,0,1.5
					c-0.2,0.8-1.1,0.9-1.8,0.4c-0.9-0.7-0.9-2.2-0.9-3.2c0-0.1-0.1-0.1-0.2-0.1c-0.6,0.6-1.3,0-1.6-0.5c-0.4-0.6-0.4-1.4,0.2-1.9
					c0.1-0.1,0-0.3-0.1-0.2c-0.9,0.3-1.1-0.3-0.9-1c0.2-0.8,0.9-1.4,1.7-1.6c0.1,0,0.1-0.1,0.1-0.1c0.2-2.8,0.5-5.6,0.6-8.4
					c0.1,0,0.1-0.1,0.2-0.1c0.1,0.5,0.4,0.8,0.9,0.9C22,29.4,21.7,30.8,21.4,32.2z M29.8,13.4c-0.1,0-0.3,0.1-0.2,0.2
					c0.9,1.2,1.9,3,1.5,4.5c-0.1,0.5-0.4,0.9-0.6,1.3c-0.1,0.2-0.3,0.4-0.5,0.6c-0.4,0.3-0.5-0.3-0.5-0.5c0-0.1-0.3-0.1-0.3,0
					c-0.2,1-0.4,1.9-0.8,2.8c-0.2,0.7-1.1,2.9-2.1,1.7c-0.1-0.1-0.2-0.1-0.3,0c-0.3,0.5-0.5,1.1-0.8,1.6c-0.3,0.6-0.8,1-1.3,1.5
					c-0.4,0.3-0.8,0.5-1.2,0.6c-0.8,0.2-1-0.4-1-0.9c0-0.2-0.2-0.2-0.3-0.1c-0.5,0.6-1.4,0.8-1.7-0.1c0-0.1-0.2-0.1-0.3,0
					c-0.5,0.7-1.3,1.8-2.3,1.1c-0.7-0.5-1-1.3-1.4-2c-0.1-0.1-0.2-0.1-0.3,0c-0.8,0.9-2,1.5-3.3,1.1c-1.2-0.3-1.9-1.3-2.2-2.3
					c0-0.1,0-0.2-0.1-0.2c-0.1-0.2-0.4-0.1-0.3,0.1c0,0.1,0,0.1,0,0.2C9.6,25,9.4,25.2,8.7,25c-0.5-0.1-0.9-0.4-1.3-0.7
					c-1.2-0.9-1.7-2.3-1.9-3.6c0-0.1-0.2-0.1-0.3-0.1c-1.5,1-1.7-1.1-1.7-2c0-1.6,0.5-3.4,1.6-4.6c0.1-0.1,0-0.3-0.2-0.2
					c-0.7,0.3-1.3,0.6-2,0.8c-1.2,0.3-0.5-1.9-0.3-2.3c0.8-1.6,2.4-3.1,4.2-3.8c0.1-0.1,0.1-0.2,0-0.2C6.1,8.2,5.6,7.7,6,7
					c0.3-0.5,1-1,1.5-1.3c1.7-1,3.4-1.3,5.5-1.4c0.1,0,0.2-0.1,0.1-0.2c-0.3-0.4-0.5-0.9-0.6-1.3C12.3,2,13,1.5,13.8,1.9
					c0.9,0.3,1.6,1,2.3,1.6c0,0.1,0.1,0.1,0.2,0.1c0.6-0.5,1.4-0.7,2.2-0.7c0.3,0,0.8,0.1,0.9,0.3c0.2,0.4-0.5,0.8-0.7,1
					c-0.1,0.1,0,0.2,0.1,0.2c0.9-0.2,3.7-0.4,3,1.1c-0.1,0.1,0,0.2,0.2,0.2c1.8-0.3,3.7-0.9,5.4-0.1c0.9,0.4-1.9,1.8-2.3,2
					c-0.1,0.1-0.1,0.2,0,0.3c1.8,1,4.4,1.5,5.5,3.2c0.3,0.5,0.5,1.2,0.5,1.7C31.3,13.6,30.6,13.7,29.8,13.4z"/>
				<path class="st1" d="M9.4,17.3c-0.5,0.2-0.6,0.8-0.4,1.3c0.3,0.7,1.1,0.9,1.8,0.6C12.1,18.5,10.4,16.4,9.4,17.3z M10.5,18.9
					c-1,0.6-1.9-0.9-1-1.5C10.5,17,11.5,18.4,10.5,18.9z"/>
				<path class="st1" d="M25.9,16.1c-0.5,0.2-0.8,0.6-0.8,1.1c0,0.8,1.2,1.1,1.9,0.9C28.4,17.6,27.4,15.3,25.9,16.1z M27,17.8
					c-0.5,0.4-1.5,0-1.6-0.5c-0.1-0.5,0.3-0.9,0.8-1.1c0.4-0.1,0.9,0,1.1,0.4C27.5,17,27.4,17.5,27,17.8z"/>
				<path class="st1" d="M24.2,19.9c-0.5,0-1,0.2-1.5,0.2c-0.6,0.1-1.3,0-2,0c-1.2,0-2.3-0.1-3.5-0.1c-2,0.1-4.2,0.5-6.1-0.1
					c-0.1,0-0.2,0.1-0.1,0.2c0.3,0.2,0.7,0.3,1.1,0.4c0.1,0.6,0.5,1.2,1.2,1.3c0.7,0.1,1.3-0.6,1.2-1.2c0.9,0,1.8-0.2,2.6-0.2
					c1.2-0.1,2.4,0,3.6,0.1c0.1,0,0.2,0,0.3,0c0,0.5,0.4,1,1.1,1c0.6,0.1,1.2-0.6,1-1.1c0.4-0.1,0.9-0.2,1.2-0.4
					C24.3,20,24.3,19.9,24.2,19.9z M13.4,21.5c-0.5,0-0.8-0.5-1-1c0.6,0.1,1.2,0.1,1.8,0.1C14.1,21,14,21.5,13.4,21.5z M22.6,21
					c-0.1,0.2-0.3,0.3-0.5,0.2c-0.4,0-0.7-0.4-0.8-0.7c0.5,0,1,0,1.5-0.1C22.7,20.6,22.7,20.8,22.6,21z"/>
			</g>
			<path class="st2" d="M10.1,17.9c0,0.2-0.2,0.4-0.4,0.4c-0.2,0-0.4-0.2-0.4-0.4c0-0.2,0.1-0.3,0.4-0.3
				C9.8,17.7,10.1,17.7,10.1,17.9z"/>
			<path class="st2" d="M26.3,16.9c0,0.2-0.2,0.4-0.4,0.4c-0.2,0-0.4-0.2-0.4-0.4c0-0.2,0.1-0.3,0.4-0.3
				C26.1,16.6,26.3,16.7,26.3,16.9z"/>
		</g>
		<g>
			<path class="st5" d="M12.6,10.9c-0.9,0.4-2-0.7-1.6-1.4c0.5-1,2.3-0.9,2.9-0.2c-0.2-0.8,0.6-2.2,1.7-2.2c0.9,0,1.3,1.3,1.5,2.1
				c0.3-1.6-0.7-3.2-2.2-3.5S12.7,6.8,12.8,8C8.9,5.5,8.8,12.3,12.6,10.9"/>
		</g>
		<g>
			<path class="st5" d="M18.9,11.5c1.1-1.9,2.8-2.1,2.8,0.2c0.4-0.5,1.2-0.8,1.9-0.4c1,0.5,0.3,1.5,0.1,2.4C23.9,13,26.8,9,22.9,10
				C23.5,6.5,17.2,9,18.9,11.5"/>
		</g>
		<g>
			<path class="st5" d="M13.9,14.5c-2.8-0.3,1.4-4.4,1.8-1.2c-1-0.3-2.7,0.2-2.1,1.2"/>
		</g>
		<g>
			<path class="st5" d="M16.4,21.8c0.2,1.4,1.9,1,2.8,0.3c0.1,1,1.6,1,2.1,0.2c0.3,1.7-2,2.8-3,1.1C17.1,25.3,15.8,23,16.4,21.8"/>
		</g>
		<g>
			<path class="st5" d="M5.9,16c-0.3,1,0.2,3.8,1.7,2.1C6.6,21.7,3.5,17.5,5.9,16"/>
		</g>
	</g>
</g>
</svg>
