<?xml version="1.0" encoding="utf-8"?>
<!-- Generator: Adobe Illustrator 20.1.0, SVG Export Plug-In . SVG Version: 6.00 Build 0)  -->
<svg version="1.1" id="Layer_1" xmlns="http://www.w3.org/2000/svg" xmlns:xlink="http://www.w3.org/1999/xlink" x="0px" y="0px"
	 viewBox="0 0 35.5 48.3" style="enable-background:new 0 0 35.5 48.3;" xml:space="preserve">
<style type="text/css">
	.st0{fill:#B7B7A1;}
	.st1{fill:#332E2B;}
	.st2{fill:#6D628E;}
	.st3{fill:#C67171;}
	.st4{fill:#F7ADAD;}
	.st5{fill:#FFFFFF;}
</style>
<g>
	<path class="st0" d="M31,40.9c0,2-5.7,3.5-12.7,3.5c-7,0-12.7-1.6-12.7-3.5c0-2,2.9-3.7,9.9-3.7C22.5,37.2,31,38.9,31,40.9z"/>
	<g>
		<g>
			<path class="st1" d="M32.2,39.9c-0.3,0.2-0.7,0.4-1.1,0.5c0.2,0.7-0.7,1-1.3,0.9c-0.3-0.1-0.6-0.2-0.8-0.5
				c-0.1-0.1-0.2-0.3-0.1-0.4c-0.3-0.1-0.6-0.2-0.9-0.3c-0.2,0.5-0.7,0.6-1.2,0.3c-0.4-0.3-0.7-0.9-0.6-1.4
				c-0.2-0.1-0.3-0.3-0.5-0.4c-0.1,0.2-0.4,0.2-0.6,0.2c-0.2,0-0.4-0.1-0.5-0.3c-0.3,0.9-0.8,1.6-1.6,2.1c-0.5,0.4-1,0.3-1.3-0.2
				c-0.5,0.2-0.9-0.3-0.9-0.8c0-0.4,0.2-0.8,0.6-0.8c0-0.2,0-0.3,0-0.5c-1.2,0.4-1.1-2.3,0.1-1.8c0-0.3,0-0.5-0.1-0.8
				c-0.5,0.3-1,0-1.3-0.5c-0.1-0.2-0.2-0.4-0.1-0.6c0-0.1,0.1-0.1,0.2-0.2c-0.2-0.1-0.5-0.2-0.7-0.3c-0.2,0.4-0.8,0.4-1.2,0.2
				c-0.2-0.2-0.5-0.4-0.6-0.6c0-0.1,0-0.3,0-0.4c-0.1-0.1-0.2-0.2-0.3-0.3c0-0.1-0.1-0.1-0.1-0.2c0,0.3,0,0.5,0.1,0.7
				c0,0.5,0,1.1,0.2,1.6c0.2,0.7,0.7,1.2,1,1.7c0.5,0.8,0.6,1.6,0.9,2.4c0.3,0.7,0.7,1.4,0.7,2.2c0.1,0.7-0.2,1.3-0.9,1.2
				c-0.1,0.2-0.3,0.4-0.5,0.5c-0.3,0.1-0.6,0-0.9-0.1c-0.6-0.3-1-0.9-0.6-1.5c-0.1-0.1-0.2-0.2-0.2-0.3c0,0,0,0,0,0
				c-0.1,0.2-0.4,0.2-0.6,0.2c-0.2-0.1-0.4-0.4-0.4-0.6c-0.1-0.3-0.1-1,0.3-1.1c-0.1-0.1-0.2-0.3-0.3-0.4c-0.5,0.8-1.6,0.2-1.7-0.6
				c-0.2,0-0.5,0-0.7-0.1c-0.2,0.2-0.6,0.2-0.9,0.1c-0.3-0.1-0.5-0.4-0.4-0.7c-0.2-0.2-0.5-0.4-0.7-0.6c-0.2,0.3-0.6,0.5-0.9,0.5
				c-0.1,0.3-0.2,0.5-0.3,0.8c0.4,0.2,0.4,0.9,0.2,1.2c-0.3,0.5-0.8,0.7-1.3,0.4c-0.2,0.2-0.5,0.4-0.7,0.7c0.2,0.8-1.1,1.6-1.6,0.9
				C6.8,41.9,6.5,42,6.2,42c-0.1,0-0.2,0-0.3,0c0,0.5-0.6,0.8-1.1,0.7c-0.3,0-0.6-0.2-0.7-0.5c0-0.1,0-0.4,0-0.5
				c-0.4-0.2-0.7-0.4-0.8-0.9c-0.2-0.8,0.7-1.2,1.2-1.5c0.5-0.3,1.2-0.5,1.7-0.8c0.6-0.5,0.9-1.1,1-1.9c0.2-1.6,0.2-3.1,0.3-4.7
				c0.3-3.4,0.7-6.9,2-10.1c0.4-0.9,0.8-1.9,1.4-2.8c-0.5-0.1-0.9-0.4-1.3-0.8c-0.3,0.5-0.9,1.1-1.4,0.6c-0.3-0.2-0.3-0.6-0.1-1
				c-0.4,0.2-1,0.4-1.2-0.2c-0.3-0.7,0.1-1.5,0.6-1.9c-0.7-0.3-1.6-1-1.5-1.8c0.1-0.6,0.8-1.4,1.5-1c0.3,0.2,0.5,0.7,0.6,1
				c0.2,0.5,0.5,1,0.7,1.5c0.6,1.2,1.2,2.3,2.4,3c1-1.4,2.3-2.6,4-3.2c2.7-0.9,5.8,0.1,7.6,2.3c0.2,0.3,0.4,0.5,0.6,0.8
				c1.1-0.8,1.8-1.9,2.4-3.1c0.2-0.5,0.5-1,0.7-1.5c0.2-0.3,0.3-0.7,0.7-0.9c0.6-0.4,1.4,0.6,1.4,1.2c0,0.7-0.8,1.4-1.5,1.7
				c0.5,0.5,0.9,1.2,0.6,1.9c-0.2,0.6-0.7,0.5-1.2,0.2c0.2,0.4,0.3,0.9-0.2,1.1c-0.6,0.3-1.1-0.2-1.4-0.7c-0.3,0.4-0.7,0.7-1.2,0.8
				c1.2,2.2,1.8,4.6,2.5,7c0.6,1.7,1.2,3.4,1.6,5.2c0.4,1.6,0.5,3.3,1.3,4.8c0.3,0.6,0.7,1.1,1.3,1.5c0.4,0.3,0.8,0.5,1.2,0.8
				C32.4,38.8,32.9,39.5,32.2,39.9z"/>
			<path class="st2" d="M13,38.5c0.1,0,0.3,0,0.4,0c-0.3-0.1-0.5-0.2-0.8-0.4C12.7,38.3,12.8,38.4,13,38.5z"/>
			<path class="st2" d="M11,37.6c0.1,0,0.2,0,0.3-0.1c0.1-0.1,0.2-0.2,0.3-0.4c-0.1-0.2-0.2-0.3-0.3-0.5C11.2,37,11.1,37.3,11,37.6z
				"/>
			<path class="st3" d="M25.1,17.9c0.1-0.1,0.2-0.1,0.2,0c0.1,0.3,0.6,1.1,1,0.8c0.4-0.3,0-0.9-0.2-1.2c-0.1-0.1,0.1-0.3,0.2-0.2
				c0.4,0.4,1.4,0.9,1.4,0c0-0.6-0.3-1.1-0.8-1.5c-0.1-0.1-0.1-0.2,0-0.2c0.8-0.3,2.3-1.6,1-2.4c-0.6-0.4-0.9,0.2-1.1,0.7
				c-0.1,0.3-0.3,0.6-0.4,0.9c-0.6,1.4-1.4,3.1-2.9,3.7c0.1,0.1,0.1,0.2,0.2,0.3C24.3,18.6,24.7,18.3,25.1,17.9z"/>
			<path class="st2" d="M16.4,40.7c0,0.1,0.1,0.3,0.3,0.4c0.1,0.1,0.3,0,0.4-0.1c-0.2-0.4-0.4-0.8-0.6-1.2
				C16.3,40,16.3,40.4,16.4,40.7z"/>
			<path class="st2" d="M17.6,41.7c-0.1,0.5,0.1,0.9,0.6,1.2c0.2,0.1,0.5,0.2,0.7,0.1c0.1-0.1,0.2-0.2,0.3-0.3
				C18.5,42.5,18,42.1,17.6,41.7z"/>
			<path class="st2" d="M4.3,42.1c0,0.3,0.3,0.4,0.5,0.4c0.2,0,0.4,0,0.6-0.2c0.1-0.1,0.2-0.2,0.2-0.3c-0.4,0-0.9-0.1-1.3-0.2
				C4.3,41.9,4.3,42,4.3,42.1z"/>
			<path class="st2" d="M18.1,33.6c0.1,0.2,0.2,0.3,0.4,0.4c0.2,0.1,0.4,0.2,0.6,0.2c0.2,0,0.2-0.1,0.3-0.2
				c-0.5-0.2-0.9-0.3-1.3-0.6C18.1,33.5,18.1,33.6,18.1,33.6z"/>
			<path class="st2" d="M9.8,39.8c-0.1,0.1-0.1,0.1-0.2,0.2c0.4,0.1,0.7,0,0.9-0.4c0.1-0.3,0.1-0.6-0.1-0.9
				C10.3,39.1,10.1,39.5,9.8,39.8z"/>
			<path class="st3" d="M11.2,18.5c-1.6-0.5-2.3-2.3-2.9-3.7c-0.2-0.5-0.7-2.3-1.5-1.7c-1.1,0.8,0.1,2.1,1,2.4c0.1,0,0.1,0.2,0,0.2
				c-0.5,0.3-0.8,0.9-0.8,1.5c0.1,1,1,0.4,1.4,0c0.1-0.1,0.3,0.1,0.2,0.2c-0.1,0.2-0.8,1.3-0.1,1.2c0.4,0,0.7-0.5,0.9-0.8
				c0-0.1,0.2-0.1,0.2,0c0.4,0.5,0.8,0.8,1.3,1C11.1,18.8,11.2,18.6,11.2,18.5z"/>
			<path class="st2" d="M8.5,41c-0.4,0.3-0.8,0.5-1.2,0.7C7.8,42,8.5,41.5,8.5,41z"/>
			<path class="st2" d="M14.6,38.6c0.2,0.6,0.9,1.1,1.3,0.5c-0.3-0.3-0.7-0.4-1.2-0.5C14.7,38.6,14.7,38.6,14.6,38.6z"/>
			<path class="st1" d="M11,25c-0.4-0.3-0.7-0.1-0.9,0.2c0,0,0,0,0,0c-0.1,0.2-0.1,0.3,0,0.5c0.1,0.4,0.8,0.5,1.1,0.2
				C11.4,25.6,11.2,25.2,11,25z"/>
			<path class="st1" d="M23.6,24.1c-0.3,0.4,0,1.3,0.7,1c0.3-0.1,0.5-0.5,0.4-0.8C24.5,23.9,24,24,23.6,24.1z"/>
			<path class="st2" d="M29.1,40.4c0,0.1,0.1,0.2,0.1,0.2c0.2,0.2,0.4,0.3,0.6,0.3c0.2,0,0.5,0.1,0.7-0.1c0.2-0.1,0.3-0.3,0.3-0.5
				C30.3,40.6,29.7,40.5,29.1,40.4z"/>
			<path class="st4" d="M31.4,38.4c-0.9-0.6-1.8-1.1-2.3-2.1c-0.7-1.4-0.9-2.9-1.3-4.5c-0.4-1.8-1-3.5-1.6-5.2c-1-3-1.6-6.6-3.8-9
				c-2.2-2.4-6-3-8.7-1.1c-2.9,2-4.2,5.8-5,9.1c-0.8,3.4-1,6.9-1.2,10.4c-0.1,1.1-0.2,2.2-1.2,2.9c-0.4,0.3-3.2,1.3-2.7,2.1
				c1.3,1.7,4,0.5,5.2-0.6c1.2-1,1.6-2.5,2.3-3.9c-0.4-1-0.3-2.1-0.1-3.2c-0.5-0.9-0.3-2.1,0-3c0,0,0.1,0,0.1,0
				c-0.1,0.5-0.1,1-0.1,1.4c0,0.4,0.1,0.9,0.1,1.3c0.2-0.9,0.5-1.7,0.8-2.5c0,0,0,0,0,0c-0.1,0.2-0.1,0.4-0.2,0.6
				c-0.5,2-1.4,5.3,0.7,6.7c0.3,0.2,0.7,0.4,1.1,0.5c0.4,0.1,0.9,0.1,1.3,0.1c0.6,0.1,1.1,0.3,1.5,0.8c0.5,0.6,0.6,1.3,0.9,1.9
				c0.3,0.4,0.7,0.8,1.1,1.1c0.3,0.2,1,0.6,1.4,0.2c0.5-0.6,0-1.7-0.3-2.2c-0.2-0.4-0.4-0.8-0.5-1.3c-0.1-0.5-0.2-0.9-0.5-1.3
				c-0.3-0.6-0.8-1.2-1.1-1.8c-0.4-0.8-0.2-2.1-0.4-3.2c-0.1-0.2-0.1-0.4-0.1-0.6c-0.2-0.6-0.6-1.1-1.5-1.2c-0.1,0-0.1-0.1,0-0.1
				c0.7-0.1,1.1,0.1,1.4,0.5c-0.2-0.5-0.4-1-0.9-1.4c0,0,0,0,0,0c0.5,0.3,0.9,0.8,1.1,1.3c0.1-0.5,0.4-0.9,0.8-1.4c0,0,0.1,0,0,0
				c-0.3,0.5-0.6,1.2-0.7,1.8c0,0.1,0,0.2,0,0.3c0,0,0,0,0,0.1c0,0.1,0.1,0.2,0.1,0.3c0.3,0.8,0.9,1.3,1.7,1.5
				c0.8,0.3,1.9,0.5,2.4,1.3c0.8,1.2,0.3,2.6,0.4,4c0,0,0,0,0,0c0,0,0,0.1,0,0.1c0,0.4,0.1,1.9,0.8,1.7c0.4-0.1,0.7-0.5,1-0.8
				c0.8-1.1,1.1-2.3,1.3-3.7c0.2-1.5,0.2-3.1-0.3-4.5c-0.6-2-3.4-4-5.3-2.5c-0.1,0.1-0.1-0.1-0.1-0.1c0.4-0.5,1-0.7,1.7-0.7
				c0.2,0,0.4,0.1,0.6,0.1c-0.2-0.2-0.4-0.3-0.6-0.5c-0.5-0.2-1-0.3-1.5-0.1c0,0,0,0,0,0c0.9-0.5,2.1-0.1,2.6,0.8
				c0.7,0.3,1.3,0.8,1.9,1.3c0.9,0.9,1.2,2,1.4,3.3c0.1,1.2,0.1,2.7-0.1,4.1c1.1,1.4,2.7,2.6,4.5,2.9c0.7,0.1,2.1,0.1,2.6-0.6
				C32.5,39.1,31.7,38.6,31.4,38.4z M11.3,26.1c-0.5,0.4-1.3,0.2-1.5-0.4c-0.1-0.4,0.1-0.8,0.4-1c0.1-0.1,0.2-0.1,0.4-0.1
				c0,0,0,0,0,0c0,0,0,0,0,0C11.3,24.6,11.9,25.6,11.3,26.1z M24.4,25.5c-0.6,0.1-1.1-0.2-1.1-0.8c0-0.6,0.5-0.9,1-0.8c0,0,0,0,0,0
				c0.3,0,0.5,0.2,0.6,0.5C25.1,24.8,24.9,25.4,24.4,25.5z"/>
			<path class="st2" d="M24.8,38.2c0.1,0.2,0.3,0.3,0.5,0.3c0.1,0,0.2-0.1,0.3-0.1c-0.3-0.3-0.5-0.6-0.7-0.9
				C25,37.7,24.9,37.9,24.8,38.2z"/>
			<path class="st2" d="M21.6,38.9c-0.3,0.1-0.4,0.4-0.4,0.7c0,0.4,0.3,0.5,0.6,0.6c0-0.1-0.1-0.2-0.1-0.3
				C21.6,39.5,21.6,39.2,21.6,38.9z"/>
			<path class="st2" d="M26.9,40.1c0.1,0.1,0.4,0.3,0.6,0.2c0.2,0,0.3-0.2,0.3-0.3c-0.5-0.2-1-0.6-1.4-0.9
				C26.5,39.4,26.6,39.8,26.9,40.1z"/>
			<path class="st2" d="M21.6,37.3c0-0.2,0-0.4,0-0.6c-0.4-0.1-0.7,0.3-0.7,0.7c0,0.4,0.2,0.7,0.6,0.7
				C21.6,37.8,21.6,37.5,21.6,37.3z"/>
			<path class="st2" d="M20.8,34.7c-0.1-0.1-0.2-0.1-0.3-0.2c-0.1,0.1-0.2,0.2-0.1,0.3c0,0.2,0.1,0.4,0.3,0.5
				c0.2,0.2,0.4,0.2,0.6,0.2c0,0,0.2,0,0.2-0.1C21.3,35.2,21.1,34.9,20.8,34.7z"/>
			<path class="st1" d="M31.9,38.4c-0.4-0.3-0.8-0.6-1.2-0.8c-0.6-0.4-1-0.8-1.3-1.5c-0.8-1.5-1-3.2-1.3-4.8c-0.4-1.8-1-3.5-1.6-5.2
				c-0.8-2.4-1.3-4.8-2.5-7c0.5-0.1,0.9-0.4,1.2-0.8c0.3,0.5,0.8,1,1.4,0.7c0.4-0.2,0.3-0.7,0.2-1.1c0.4,0.3,1,0.4,1.2-0.2
				c0.3-0.7-0.1-1.5-0.6-1.9c0.7-0.3,1.4-0.9,1.5-1.7c0-0.6-0.7-1.6-1.4-1.2c-0.3,0.2-0.5,0.6-0.7,0.9c-0.2,0.5-0.5,1-0.7,1.5
				c-0.6,1.2-1.2,2.4-2.4,3.1c-0.2-0.3-0.4-0.6-0.6-0.8c-1.8-2.2-4.9-3.2-7.6-2.3c-1.7,0.5-3,1.7-4,3.2c-1.1-0.7-1.8-1.8-2.4-3
				c-0.2-0.5-0.5-1-0.7-1.5c-0.1-0.3-0.3-0.8-0.6-1c-0.6-0.4-1.4,0.4-1.5,1c-0.1,0.8,0.8,1.5,1.5,1.8c-0.5,0.5-0.9,1.2-0.6,1.9
				c0.2,0.6,0.7,0.5,1.2,0.2c-0.2,0.4-0.2,0.8,0.1,1c0.6,0.4,1.1-0.2,1.4-0.6c0.4,0.4,0.7,0.7,1.3,0.8c-0.5,0.9-1,1.9-1.4,2.8
				c-1.3,3.2-1.7,6.7-2,10.1c-0.1,1.6-0.2,3.2-0.3,4.7c-0.1,0.8-0.4,1.4-1,1.9c-0.5,0.4-1.1,0.6-1.7,0.8c-0.6,0.3-1.5,0.8-1.2,1.5
				c0.1,0.4,0.4,0.7,0.8,0.9c-0.1,0.2-0.1,0.4,0,0.5c0.1,0.3,0.4,0.4,0.7,0.5c0.4,0.1,1.1-0.2,1.1-0.7c0.1,0,0.2,0,0.3,0
				c0.3,0,0.6-0.1,0.9-0.2c0.5,0.7,1.8-0.1,1.6-0.9c0.3-0.2,0.5-0.4,0.7-0.7c0.5,0.2,1,0.1,1.3-0.4c0.2-0.3,0.2-1-0.2-1.2
				c0.1-0.2,0.2-0.5,0.3-0.8c0.3,0.1,0.7-0.2,0.9-0.5c0.2,0.2,0.4,0.4,0.7,0.6c0,0.3,0.1,0.6,0.4,0.7c0.3,0.1,0.7,0.1,0.9-0.1
				c0.2,0.1,0.5,0.1,0.7,0.1c0.1,0.9,1.2,1.4,1.7,0.6c0.1,0.1,0.2,0.3,0.3,0.4c-0.3,0.1-0.3,0.8-0.3,1.1c0,0.2,0.2,0.5,0.4,0.6
				c0.2,0.1,0.5,0,0.6-0.2c0,0,0,0,0,0c0.1,0.1,0.1,0.2,0.2,0.3c-0.4,0.6,0,1.2,0.6,1.5c0.3,0.1,0.6,0.2,0.9,0.1
				c0.2-0.1,0.4-0.3,0.5-0.5c0.7,0.1,1-0.6,0.9-1.2c-0.1-0.8-0.4-1.5-0.7-2.2c-0.3-0.8-0.4-1.6-0.9-2.4c-0.3-0.6-0.8-1.1-1-1.7
				c-0.1-0.5-0.2-1.1-0.2-1.6c0-0.2,0-0.5-0.1-0.7c0,0.1,0.1,0.1,0.1,0.2c0.1,0.1,0.2,0.2,0.3,0.3c0,0.1,0,0.3,0,0.4
				c0.1,0.3,0.3,0.5,0.6,0.6c0.4,0.2,1,0.2,1.2-0.2c0.2,0.1,0.5,0.2,0.7,0.3c-0.1,0.1-0.1,0.1-0.2,0.2c-0.1,0.2,0,0.4,0.1,0.6
				c0.2,0.5,0.8,0.7,1.3,0.5c0.1,0.3,0.1,0.5,0.1,0.8c-1.1-0.5-1.2,2.1-0.1,1.8c0,0.2,0,0.3,0,0.5c-0.4,0-0.6,0.4-0.6,0.8
				c0,0.5,0.4,1,0.9,0.8c0.3,0.4,0.7,0.5,1.3,0.2c0.7-0.5,1.3-1.3,1.6-2.1c0.1,0.2,0.3,0.3,0.5,0.3c0.2,0,0.5,0,0.6-0.2
				c0.1,0.1,0.3,0.3,0.5,0.4c-0.1,0.5,0.2,1.1,0.6,1.4c0.4,0.3,1,0.2,1.2-0.3c0.3,0.1,0.6,0.2,0.9,0.3c0,0.1,0.1,0.3,0.1,0.4
				c0.2,0.3,0.5,0.4,0.8,0.5c0.5,0.1,1.4-0.2,1.3-0.9c0.4-0.1,0.7-0.2,1.1-0.5C32.9,39.5,32.4,38.8,31.9,38.4z M26.5,14.8
				c0.1-0.3,0.3-0.6,0.4-0.9c0.2-0.5,0.4-1.1,1.1-0.7c1.3,0.7-0.2,2.1-1,2.4c-0.1,0-0.1,0.2,0,0.2c0.5,0.3,0.8,0.9,0.8,1.5
				c0,1-1,0.4-1.4,0c-0.1-0.1-0.3,0.1-0.2,0.2c0.2,0.3,0.7,0.9,0.2,1.2c-0.4,0.3-0.9-0.5-1-0.8c0-0.1-0.2-0.1-0.2,0
				c-0.4,0.4-0.7,0.8-1.3,1c-0.1-0.1-0.1-0.2-0.2-0.3C25.1,18,25.8,16.2,26.5,14.8z M9.7,17.9c-0.1-0.1-0.2-0.1-0.2,0
				c-0.2,0.4-0.4,0.8-0.9,0.8c-0.7,0.1-0.1-1.1,0.1-1.2c0.1-0.1-0.1-0.3-0.2-0.2c-0.4,0.4-1.3,0.9-1.4,0c-0.1-0.6,0.3-1.2,0.8-1.5
				c0.1-0.1,0.1-0.2,0-0.2c-1-0.3-2.1-1.5-1-2.4c0.8-0.6,1.3,1.1,1.5,1.7c0.6,1.4,1.4,3.2,2.9,3.7c-0.1,0.1-0.1,0.2-0.2,0.3
				C10.5,18.7,10.1,18.3,9.7,17.9z M5.4,42.4c-0.2,0.1-0.4,0.2-0.6,0.2c-0.2,0-0.5-0.1-0.5-0.4c0-0.1,0-0.2,0-0.3
				C4.8,42,5.2,42,5.6,42C5.6,42.2,5.5,42.3,5.4,42.4z M7.3,41.7c0.4-0.2,0.8-0.4,1.2-0.7C8.5,41.5,7.8,42,7.3,41.7z M10.5,39.6
				C10.3,40,10,40.1,9.6,40c0.1-0.1,0.1-0.1,0.2-0.2c0.3-0.3,0.5-0.7,0.7-1.1C10.6,39,10.7,39.3,10.5,39.6z M11.3,37.5
				c-0.1,0.1-0.2,0.1-0.3,0.1c0.1-0.3,0.2-0.6,0.3-1c0.1,0.2,0.2,0.3,0.3,0.5C11.5,37.3,11.4,37.4,11.3,37.5z M13,38.5
				c-0.2-0.1-0.3-0.2-0.4-0.4c0.2,0.1,0.5,0.3,0.8,0.4C13.3,38.5,13.1,38.5,13,38.5z M14.6,38.6c0,0,0.1,0,0.1,0
				c0.5,0,0.9,0.2,1.2,0.5C15.5,39.7,14.8,39.2,14.6,38.6z M16.7,41.1c-0.2-0.1-0.2-0.3-0.3-0.4c-0.1-0.3-0.1-0.7,0.1-0.9
				c0.2,0.4,0.3,0.8,0.6,1.2C16.9,41.1,16.8,41.2,16.7,41.1z M18.8,42.9c-0.2,0.1-0.5,0-0.7-0.1c-0.5-0.2-0.7-0.7-0.6-1.2
				c0.4,0.5,1,0.8,1.6,1C19.1,42.7,19,42.8,18.8,42.9z M19.1,34.2c-0.2,0-0.4-0.1-0.6-0.2c-0.2-0.1-0.3-0.3-0.4-0.4
				c0-0.1,0-0.1,0-0.2c0.4,0.3,0.8,0.4,1.3,0.6C19.3,34.1,19.2,34.2,19.1,34.2z M21.2,35.6c-0.2,0-0.4-0.1-0.6-0.2
				c-0.1-0.1-0.3-0.3-0.3-0.5c0-0.1,0.1-0.2,0.1-0.3c0.1,0.1,0.2,0.1,0.3,0.2c0.3,0.2,0.5,0.5,0.6,0.8
				C21.4,35.5,21.3,35.6,21.2,35.6z M21,37.3c0-0.4,0.2-0.8,0.7-0.7c0,0.2,0,0.4,0,0.6c0,0.3,0,0.5,0,0.8C21.2,38,21,37.8,21,37.3z
				 M21.2,39.6c0-0.3,0.1-0.6,0.4-0.7c0,0.3,0,0.7,0.1,1c0,0.1,0.1,0.2,0.1,0.3C21.4,40.1,21.2,40,21.2,39.6z M25.3,38.5
				c-0.2,0-0.4-0.1-0.5-0.3c0.1-0.2,0.1-0.4,0.2-0.7c0.2,0.3,0.4,0.6,0.7,0.9C25.6,38.4,25.5,38.5,25.3,38.5z M27.5,40.3
				c-0.2,0-0.4-0.1-0.6-0.2c-0.3-0.2-0.5-0.6-0.5-1c0.4,0.4,0.9,0.7,1.4,0.9C27.7,40.1,27.7,40.2,27.5,40.3z M30.6,40.9
				C30.4,41,30.1,41,29.8,41c-0.2,0-0.4-0.1-0.6-0.3c-0.1-0.1-0.1-0.2-0.1-0.2c0.6,0.1,1.2,0.1,1.8,0C30.8,40.6,30.8,40.8,30.6,40.9
				z M32.1,39.5c-0.5,0.7-1.9,0.7-2.6,0.6c-1.8-0.3-3.4-1.5-4.5-2.9c0.3-1.4,0.3-2.9,0.1-4.1c-0.1-1.3-0.5-2.3-1.4-3.3
				c-0.5-0.5-1.2-1-1.9-1.3c-0.5-0.9-1.7-1.3-2.6-0.8c0,0,0,0.1,0,0c0.5-0.1,1-0.1,1.5,0.1c0.2,0.1,0.4,0.3,0.6,0.5
				c-0.2-0.1-0.4-0.1-0.6-0.1c-0.6-0.1-1.3,0.2-1.7,0.7c0,0.1,0,0.2,0.1,0.1c1.9-1.4,4.7,0.6,5.3,2.5c0.5,1.4,0.4,3.1,0.3,4.5
				c-0.1,1.3-0.4,2.6-1.3,3.7c-0.3,0.3-0.6,0.7-1,0.8c-0.8,0.2-0.8-1.3-0.8-1.7c0,0,0,0,0-0.1c0,0,0,0,0,0c0-1.3,0.4-2.8-0.4-4
				c-0.5-0.8-1.6-1-2.4-1.3c-0.8-0.3-1.4-0.7-1.7-1.5c0-0.1-0.1-0.2-0.1-0.3c0,0,0,0,0-0.1c0-0.1,0-0.2,0-0.3
				c0.1-0.6,0.4-1.3,0.7-1.8c0,0,0-0.1,0,0c-0.3,0.4-0.6,0.9-0.8,1.4c-0.2-0.5-0.6-1-1.1-1.3c0,0,0,0,0,0c0.5,0.4,0.8,0.9,0.9,1.4
				c-0.3-0.4-0.7-0.6-1.4-0.5c-0.1,0,0,0.1,0,0.1c0.9,0.1,1.3,0.5,1.5,1.2c0,0.2,0.1,0.4,0.1,0.6c0.1,1.1,0,2.4,0.4,3.2
				c0.3,0.7,0.8,1.2,1.1,1.8c0.2,0.4,0.3,0.9,0.5,1.3c0.1,0.4,0.3,0.9,0.5,1.3c0.3,0.6,0.8,1.6,0.3,2.2c-0.3,0.4-1,0-1.4-0.2
				c-0.5-0.3-0.9-0.7-1.1-1.1c-0.4-0.6-0.5-1.3-0.9-1.9c-0.4-0.5-0.9-0.8-1.5-0.8c-0.4,0-0.9,0-1.3-0.1c-0.4-0.1-0.7-0.3-1.1-0.5
				c-2.1-1.4-1.2-4.7-0.7-6.7c0.1-0.2,0.1-0.4,0.2-0.6c0,0,0,0,0,0c-0.3,0.8-0.6,1.6-0.8,2.5C11.1,32.4,11,32,11,31.5
				c0-0.5,0.1-1,0.1-1.4c0,0-0.1-0.1-0.1,0c-0.2,1-0.5,2.1,0,3c-0.2,1.1-0.3,2.2,0.1,3.2c-0.7,1.4-1.1,2.8-2.3,3.9
				c-1.2,1.1-3.9,2.3-5.2,0.6c-0.6-0.8,2.2-1.8,2.7-2.1c1-0.7,1.1-1.8,1.2-2.9c0.2-3.5,0.4-7,1.2-10.4c0.7-3.3,2.1-7.1,5-9.1
				c2.8-1.9,6.5-1.3,8.7,1.1c2.2,2.4,2.8,6,3.8,9c0.6,1.7,1.2,3.4,1.6,5.2c0.3,1.5,0.6,3.1,1.3,4.5c0.5,1,1.4,1.5,2.3,2.1
				C31.7,38.6,32.5,39.1,32.1,39.5z"/>
			<path class="st1" d="M10.6,24.6C10.6,24.6,10.6,24.6,10.6,24.6C10.6,24.6,10.6,24.6,10.6,24.6c-0.2,0-0.3,0-0.4,0.1
				c-0.3,0.2-0.5,0.6-0.4,1c0.1,0.6,1,0.8,1.5,0.4C11.9,25.6,11.3,24.6,10.6,24.6z M11.2,25.9c-0.3,0.3-1,0.2-1.1-0.2
				c-0.1-0.2-0.1-0.3,0-0.5c0,0,0,0,0,0c0.3-0.3,0.6-0.5,0.9-0.2C11.2,25.2,11.4,25.6,11.2,25.9z"/>
			<path class="st1" d="M24.3,23.9C24.3,23.9,24.3,23.9,24.3,23.9c-0.6-0.2-1,0.2-1,0.8c0,0.6,0.6,0.9,1.1,0.8
				c0.5-0.1,0.7-0.7,0.5-1.1C24.8,24,24.5,23.9,24.3,23.9z M24.4,25.2c-0.7,0.3-1-0.6-0.7-1c0.4-0.1,0.9-0.2,1.1,0.2
				C24.8,24.7,24.7,25.1,24.4,25.2z"/>
			<circle class="st5" cx="10.4" cy="25.3" r="0.3"/>
			<circle class="st5" cx="23.9" cy="24.4" r="0.3"/>
		</g>
		<ellipse class="st3" cx="17.5" cy="17.1" rx="1.6" ry="0.8"/>
		<ellipse transform="matrix(0.6841 -0.7293 0.7293 0.6841 -9.3206 16.0313)" class="st3" cx="13.8" cy="18.8" rx="0.7" ry="0.6"/>
		<ellipse transform="matrix(0.1989 -0.98 0.98 0.1989 -1.4162 34.987)" class="st3" cx="20.7" cy="18.4" rx="0.6" ry="0.7"/>
		<path class="st3" d="M22.8,30.6c-0.1,0.3-0.7,0.5-1.1,0.3c-0.5-0.2-0.8-0.6-0.6-1c0.1-0.3,0.5-0.7,1-0.5
			C22.5,29.6,22.9,30.3,22.8,30.6z"/>
		<path class="st3" d="M24.3,31.7c0,0.3-0.2,0.5-0.4,0.5s-0.6-0.2-0.6-0.5c0-0.3,0.3-0.5,0.6-0.5S24.3,31.5,24.3,31.7z"/>
		<ellipse transform="matrix(0.4302 -0.9028 0.9028 0.4302 -17.959 48.6947)" class="st3" cx="29.6" cy="38.6" rx="0.5" ry="0.8"/>
		<path class="st3" d="M14.3,34c0,0.5-0.4,1-0.9,1s-1.2-0.4-1.2-0.9c0-0.5,0.7-1,1.2-1S14.3,33.5,14.3,34z"/>
		<path class="st3" d="M17.8,37.6c0,0.2-0.3,0.4-0.6,0.4c-0.3,0-0.6-0.2-0.6-0.4c0-0.2,0.5-0.5,0.8-0.5C17.7,37,17.8,37.3,17.8,37.6
			z"/>
		<path class="st3" d="M16.5,19.2c0,0.2-0.3,0.4-0.6,0.4c-0.3,0-0.6-0.2-0.6-0.4c0-0.2,0.5-0.5,0.8-0.5
			C16.5,18.6,16.5,18.9,16.5,19.2z"/>
		<path class="st3" d="M6.6,40.4c0,0.2-0.3,0.4-0.7,0.4c-0.4,0-0.7-0.2-0.7-0.4c0-0.2,0.5-0.5,0.9-0.5C6.4,39.8,6.6,40.1,6.6,40.4z"
			/>
		<path class="st3" d="M7.5,39.4c0,0.2-0.2,0.4-0.4,0.4c-0.2,0-0.4-0.2-0.4-0.4c0-0.2,0.4-0.4,0.6-0.4C7.6,39,7.5,39.2,7.5,39.4z"/>
	</g>
</g>
</svg>
