<?xml version="1.0" encoding="utf-8"?>
<!-- Generator: Adobe Illustrator 20.1.0, SVG Export Plug-In . SVG Version: 6.00 Build 0)  -->
<svg version="1.1" id="Layer_1" xmlns="http://www.w3.org/2000/svg" xmlns:xlink="http://www.w3.org/1999/xlink" x="0px" y="0px"
	 viewBox="0 0 35.5 48.3" style="enable-background:new 0 0 35.5 48.3;" xml:space="preserve">
<style type="text/css">
	.st0{fill:#B7B7A1;}
	.st1{fill:#332E2B;}
	.st2{fill:#BC564D;}
	.st3{fill:#998255;}
	.st4{fill:#6E8958;}
	.st5{fill:#FFFFFF;}
	.st6{fill:#92AD50;}
	.st7{fill:#605D5A;}
	.st8{fill:#3E4718;}
	.st9{fill:#849944;}
</style>
<g>
	<path class="st0" d="M30.3,40.3c0,2.2-5.8,4-13.1,4c-7.2,0-13.1-1.8-13.1-4c0-2.2,3-4.2,10.2-4.2C21.5,36.1,30.3,38.1,30.3,40.3z"
		/>
	<g>
		<g>
			<path class="st1" d="M33.5,11.8c0.4-1,0.9-2.1,0.4-3.2c-0.3-0.7-1.1-1-1.8-1.1c0,0,0,0,0,0c0-0.1,0-0.2,0-0.2
				c-0.1-0.4-0.2-0.7-0.4-1c-1.1-1.6-2.4,0.5-2.9,1.5c-0.1,0-0.3-0.1-0.4,0c-0.2,0-0.4,0.2-0.5,0.4c-0.1,0.2,0,0.5,0.2,0.7
				c0.1,0.1,0.1,0.1,0.2,0.2c-0.4,0.5-0.6,1.1-0.8,1.7c-0.2,0.5-0.1,0.3-0.5,0.3c-0.1,0-0.3,0-0.4,0.1c-0.6,0.4-0.3,1,0.3,1.2
				c-0.8,2.1-1.2,4.4-1.3,6.7c0,0.5-0.1,0.9-0.2,1.4c-1.1-0.1-2.2,0.1-3.3,0.2c-1.2,0.1-2.4,0-3.6-0.1c-0.2-1.1-0.5-2.3-0.8-3.4
				c1.1-0.4,1.9-1.3,2.6-2.2c1-1.2,1.7-2.5,2.3-3.9c0.5-1.3,0.8-2.7,0.7-4c-0.1-0.6-0.3-1.2-0.6-1.8c-0.2-0.3-0.6-1-1-1
				c-0.1,0-0.1,0-0.1,0.1c-0.5,2-1.3,4-2.8,5.4c-0.5,0.5-2.7,2.4-3.5,1.7c-0.6-0.7-1.4-1.3-2.4-1.7c-0.2-0.1-0.4-0.1-0.6-0.1
				c-0.1-0.7-0.7-1.4-1.1-2c-0.1-0.1-0.2-0.1-0.2,0c-0.1,0.3-0.1,0.7-0.1,1c0,0.2,0,0.5,0,0.7c0,0.1,0,0.3,0,0.5
				c-0.3,0.1-0.5,0.3-0.7,0.6c-0.5,0.7-0.7,1.6-0.8,2.4c-1.8,0-3.6-1.2-4.9-2.3c-1.1-0.9-2-1.9-3-2.9c-0.1-0.1-0.2-0.1-0.2,0
				c-1.2,2.2,0.3,5,1.5,6.9c1.4,2.1,4.1,4,6.8,3.7c0.2,1.2,0.4,2.3,0.7,3.5c-1.2,0.2-2.4,0.8-3.5,1.5c-0.9,0.5-2.3,1.5-2.4,2.6
				c-0.2,2.5,3.9,1.6,5.4,1.6c-0.4,0.4-0.8,1-0.7,1.5c0.1,0.3,0.4,0.5,0.7,0.5c0.3,0,0.6-0.3,0.9-0.5c0,0.2-0.1,0.4-0.1,0.5
				c-0.2,0.9-0.2,1.9-0.2,2.8c0.1,1.8,0.8,3.4,1,5.2c0,0.2,0,0.4,0,0.6c0,0.1-0.6,0-0.7,0c-0.4-0.1-0.8-0.2-1.2-0.4
				c-0.7-0.3-1.5-0.5-2.3-0.6c-0.8,0-1.9,0.5-2.5,1.1C4,39.1,5.5,39.4,6,39.6c1.1,0.3,2.4,0.2,3.5,0.2c1,0,2,0,3-0.1
				c0.1,0,0.1,0,0.1-0.1c-0.1-1.1-0.1-2.1-0.3-3.1C12.1,35.6,12,34.8,12,34c0-1.1,0.5-1.7,1.6-2c0.8-0.2,1.7-0.2,2.6-0.2
				c0.9,0,1.8,0.1,2.5,0.6c0.9,0.7,0.6,2.4,0.5,3.4C19,37,18.9,38.2,19,39.3c0,0.1,0,0.1,0.1,0.1c1.8,0.3,3.6,0.2,5.4,0.1
				c0.7,0,2.8,0,3-1c0.1-1-1.8-1.6-2.5-1.8c-1.7-0.5-3.3,0.1-4.8,0.8c0.2-1.9,1-3.7,1.1-5.6c0.1-1.6-0.6-3-1-4.5
				c-0.7-2.1-1.1-4.2-1.5-6.3c2.1,0.3,4.5,0.5,6.6,0.1c-0.3,1.5-0.7,3.1-0.6,4.6c0,0.1,0,0.1,0.1,0.1c0.9,0.1,1.7-0.7,2.3-1.3
				c0.7-0.7,1.4-1.6,1.6-2.6c0,0,0,0,0,0c0.1,0,0.1,0.1,0.2,0.1c1,0.5,1.6-0.5,1.6-1.4c0-0.4-0.1-0.8-0.4-1.2
				c0.5-1.1,1.4-1.9,1.7-3.1c0.1-0.5,0.6-0.4,0.9-0.7c0.2-0.2,0.3-0.6,0.2-0.8c-0.1-0.1-0.3-0.3-0.4-0.4c-0.3-0.3,0.1-0.7,0.2-1
				C33.1,13,33.3,12.4,33.5,11.8z M11,27.2c0,0.1,0,0.1,0,0.2c0-0.1-0.1-0.1-0.1-0.2c-0.4-0.3-1-0.3-1.5-0.3c-0.9,0-1.7,0.2-2.5,0
				c-0.5-0.1-1.1-0.3-1.1-0.9c0-0.6,0.7-1.2,1.1-1.6c1-0.8,2.2-1.5,3.5-1.8C10.7,24.2,11,25.7,11,27.2z"/>
			<path class="st2" d="M14.1,19.7c-0.8,0.3-1.2,0.8-1.7,1.4c1.2,1,3,1.3,3.8-0.3c0.1-0.1,0.1-0.3,0.2-0.4
				C15.8,19.7,15,19.4,14.1,19.7z"/>
			<path class="st3" d="M9.2,14c0-0.3,0-0.6,0.1-0.9c-3.4,0.3-5.8-2.7-8-4.9c-1,2.1,0.5,4.9,1.7,6.6c1.5,2.1,3.8,3.5,6.4,3.6
				C9.2,16.9,9.1,15.4,9.2,14z"/>
			<path class="st4" d="M10.9,27.8c-0.1-0.8-1.1-0.7-1.7-0.6c-0.6,0.1-1.3,0.2-1.9,0.1c-0.9-0.1-2.4-0.7-1.6-1.8
				c1-1.4,2.9-2.5,4.6-2.8c0-0.1,0-0.2-0.1-0.3c0-0.1,0-0.2-0.1-0.3C9.1,22.4,8,22.8,7,23.4C6.1,24,4.7,24.8,4.6,26
				c-0.3,2.3,4.1,1.4,5.4,1.5c0.1,0,0.1,0.1,0.1,0.1c-0.3,0.3-0.8,0.9-0.8,1.4c0,0.4,0.3,0.6,0.6,0.5c0.4-0.1,0.7-0.4,1-0.8
				C10.8,28.4,10.9,28.1,10.9,27.8z"/>
			<path class="st5" d="M12.5,18.6c0.2,0.1,0.4,0,0.5-0.2c0.1-0.2,0.3-0.4,0.3-0.6c0-0.3-0.1-0.4-0.3-0.6c-0.4,0.2-0.8,0.4-1.1,0.5
				C12,18,12.1,18.5,12.5,18.6z"/>
			<path class="st5" d="M12.7,15.5c0.9-0.2,1.5-1.1,1.2-2c-0.5-1.1-1.5-0.8-2.2-0.1c-0.2,0.2-0.3,0.6-0.3,0.9
				C11.4,15,11.9,15.7,12.7,15.5z M12.6,13.8c0.2,0,0.3,0.1,0.3,0.3c0,0.2-0.1,0.3-0.3,0.3c-0.2,0-0.3-0.1-0.3-0.3
				C12.3,13.9,12.4,13.8,12.6,13.8z"/>
			<path class="st3" d="M12,9.7c-0.2-0.3-0.3-0.5-0.4-0.8c-0.2-0.3-0.3-0.5-0.5-0.8c0,0.3,0,0.6,0,0.9c0,0.2,0,0.4,0,0.6
				c0,0.1,0,0.2-0.1,0.3C11.2,9.7,11.6,9.7,12,9.7z"/>
			<path class="st3" d="M17.7,17c1.8-0.9,3.2-2.9,4.1-4.6c1-1.9,2-4.6,0.9-6.6c-0.1-0.2-0.3-0.5-0.5-0.7C22.2,5,22.1,4.9,22,4.8
				c-0.1-0.1-0.2-0.1-0.3-0.2c0,0,0,0.1,0,0.1c-0.2,0.8-0.4,1.5-0.7,2.2c-0.5,1.1-1.1,2.2-2,3c-0.5,0.4-2.4,2.2-3.5,2
				c1,1.3,1.5,2.9,2,4.5C17.6,16.6,17.6,16.8,17.7,17z"/>
			<path class="st6" d="M14.3,11c-1.1-0.9-2.9-1.7-4-0.4c-0.9,1.1-0.9,2.7-0.9,4.1c0,1.3,0.1,2.6,0.3,3.9c0.4,3,1.9,6.1,1.5,9.2
				c-0.1,0.9-0.5,1.8-0.6,2.8c-0.1,0.9-0.1,1.9,0,2.8c0.2,1.7,1.1,3.3,0.9,5c0,0.1-0.1,0.1-0.1,0.1C9.6,38.3,8,37,6.1,37.7
				c-0.3,0.1-2,0.9-1.1,1.3c1,0.5,2.4,0.5,3.6,0.5c1.1,0,2.2,0,3.3-0.1c0.2,0,0.3,0,0.5,0c0-0.2,0-0.5,0-0.7
				c-0.1-1.4-0.5-2.8-0.6-4.2c-0.1-1.1,0.1-2.1,1.2-2.6c1.2-0.5,2.7-0.4,4-0.3c1.1,0.1,2.1,0.6,2.3,1.8c0.2,0.9,0.1,1.9,0,2.9
				c-0.1,0.9-0.1,1.9-0.1,2.8c0,0.5,7.1,0.4,7.8-0.3c0.7-0.8-2-1.7-2.5-1.8c-1.5-0.4-3.1,0.2-4.5,0.7c0,0.1-0.2,0.1-0.2,0
				c0.2-2.1,1.2-4.1,1.1-6.2c-0.1-1.7-0.9-3.3-1.3-4.9c-1-3.9-1.5-7.9-2.9-11.7C16.2,13.4,15.6,12,14.3,11z M11.9,12.9
				c0.3-0.2,0.7-0.4,1.1-0.4c0.4,0,0.8,0.4,1,0.8c0.4,1-0.1,2.1-1.2,2.4c-0.9,0.2-1.7-0.4-1.7-1.3C11.1,13.7,11.4,13.2,11.9,12.9z
				 M17.1,17.6c0,0.8-0.2,1.6-0.4,2.4c-0.4,1.5-1.6,2.6-3.2,2.1c-1.7-0.5-2.4-2.1-3.2-3.6c0-0.1,0-0.1,0-0.1
				c0.4-0.3,0.9-0.5,1.4-0.7c0.7-0.5,1.6-0.8,2.4-1c0.6-0.2,1.6-0.5,2.3-0.3C17,16.6,17.1,17,17.1,17.6z"/>
			<path class="st4" d="M25.4,20.7c-1.1,0.3-2.4,0.2-3.5,0.3c-1.1,0-2.2,0-3.3-0.2c0,0.1,0,0.2,0.1,0.4c1.2,0.1,2.3,0.2,3.5,0.2
				c1.1,0,2.2-0.1,3.2-0.1C25.4,21,25.4,20.9,25.4,20.7z"/>
			<path class="st4" d="M28.5,18.6c-0.3,0-0.5,0-0.7,0.2c-0.2,0.3-0.2,0.7-0.2,1.1c0.1,0.7,0.5,1.6,1.1,2c1,0.7,1.6-0.4,1.4-1.3
				C30.1,19.7,29.5,18.8,28.5,18.6z"/>
			<path class="st7" d="M32,7.8C31.9,7.8,31.9,7.8,32,7.8c-0.2-0.8-0.8-2.3-1.7-1.7c-0.5,0.3-0.8,0.8-1.1,1.3
				C29,7.6,29,7.7,28.8,7.9C29,8,29.1,8.1,29.2,8.2c0,0,0,0.1,0,0c-0.3-0.2-1-0.4-1.1,0.1C28,8.9,28.6,9.1,29,9.1c0,0,0,0.1,0,0.1
				c-0.2,0-0.4,0-0.6,0c0,0,0,0,0,0c-0.4,0.7-0.6,1.5-0.9,2.2c0,0-0.1,0.1-0.1,0c-0.7-0.5-1.2,0.7-0.3,0.8c0.1,0,0.1,0.1,0.1,0.1
				c-0.7,1.8-1.1,3.7-1.3,5.7c-0.1,0.9-0.1,1.7-0.2,2.6c-0.1,0.8-0.3,1.7-0.5,2.5c0,0.2-0.4,2.8-0.3,2.7c0.6,0,1.2-0.4,1.6-0.8
				c0.8-0.8,1.7-1.8,2-3c0,0,0,0,0,0c-0.7-0.5-1.1-1.5-1.1-2.3c0-0.8,0.5-1.2,1.1-1.1c0,0,0,0,0,0c0.2,0,0.5,0,0.7,0.2
				c0,0,0.1,0,0.1,0c0,0,0,0,0,0c0.3,0.2,0.5,0.4,0.6,0.7c0.5-1.2,1.5-2,1.7-3.4c0,0,0.1-0.1,0.1-0.1c0.5,0,0.8-0.2,1-0.7
				c0.1-0.3-0.2-0.4-0.4-0.6c-0.1-0.2-0.2-0.3-0.2-0.5c0.3-0.8,0.7-1.5,1.1-2.3c0.4-0.9,1.1-2.3,0.4-3.3C33.3,8.1,32.6,7.8,32,7.8z
				 M27.9,16.9c-0.4,0.1-0.9-0.2-0.8-0.6c0-0.4,0.3-0.7,0.7-0.7c0.1,0,0.1,0.1,0,0.1c-0.3,0-0.6,0.3-0.6,0.6c0,0.4,0.3,0.5,0.7,0.5
				C28,16.8,28,16.9,27.9,16.9z M30.8,14c-0.1,0.2-0.3,0.4-0.6,0.4c-0.3,0-0.5-0.3-0.6-0.5c0-0.1,0.1-0.1,0.1,0
				c0.1,0.2,0.3,0.5,0.5,0.4c0.2,0,0.3-0.2,0.4-0.3c0.1-0.1,0.2-0.3,0.1-0.5c-0.1-0.2-0.4-0.1-0.6-0.2c-0.1,0-0.1-0.1,0-0.1
				c0.2-0.1,0.7-0.1,0.8,0.2C31,13.6,30.9,13.8,30.8,14z"/>
			<path class="st8" d="M16.2,16.5c-1-0.2-2.1,0.2-3.1,0.6c0.2,0.1,0.3,0.4,0.3,0.6c0,0.3-0.1,0.6-0.4,0.8c-0.2,0.2-0.5,0.3-0.8,0.2
				c-0.4-0.2-0.5-0.6-0.6-1c0,0,0,0,0,0c-0.1,0-0.2,0.1-0.2,0.1c-0.3,0.1-0.5,0.3-0.8,0.5c-0.2,0.1,0,0.3,0.1,0.4
				c0.4,0.7,0.7,1.4,1.2,1.9c0.1,0.1,0.2,0.2,0.3,0.3c0.3-0.8,1.3-1.4,2.1-1.6c0.8-0.2,1.6,0.1,2.1,0.8c0.2-0.5,0.2-1.1,0.3-1.7
				C16.9,17.9,17.2,16.7,16.2,16.5z"/>
			<path class="st1" d="M32.1,7.6C32.1,7.6,32.1,7.6,32.1,7.6C32,7.5,32,7.5,32,7.4c-0.1-0.4-0.2-0.7-0.4-1
				c-1.1-1.6-2.4,0.5-2.9,1.5c-0.1,0-0.3-0.1-0.4,0c-0.2,0-0.4,0.2-0.5,0.4c-0.1,0.2,0,0.5,0.2,0.7c0.1,0.1,0.1,0.1,0.2,0.2
				c-0.4,0.5-0.6,1.1-0.8,1.7c-0.2,0.5-0.1,0.3-0.5,0.3c-0.1,0-0.3,0-0.4,0.1c-0.6,0.4-0.3,1,0.3,1.2c-0.8,2.1-1.2,4.4-1.3,6.7
				c0,0.5-0.1,0.9-0.2,1.4c-1.1-0.1-2.2,0.1-3.3,0.2c-1.2,0.1-2.4,0-3.6-0.1c-0.2-1.1-0.5-2.3-0.8-3.4c1.1-0.4,1.9-1.3,2.6-2.2
				c1-1.2,1.7-2.5,2.3-3.9c0.5-1.3,0.8-2.7,0.7-4c-0.1-0.6-0.3-1.2-0.6-1.8c-0.2-0.3-0.6-1-1-1c-0.1,0-0.1,0-0.1,0.1
				c-0.5,2-1.3,4-2.8,5.4c-0.5,0.5-2.7,2.4-3.5,1.7c-0.6-0.7-1.4-1.3-2.4-1.7c-0.2-0.1-0.4-0.1-0.6-0.1c-0.1-0.7-0.7-1.4-1.1-2
				c-0.1-0.1-0.2-0.1-0.2,0c-0.1,0.3-0.1,0.7-0.1,1c0,0.2,0,0.5,0,0.7c0,0.1,0,0.3,0,0.5c-0.3,0.1-0.5,0.3-0.7,0.6
				c-0.5,0.7-0.7,1.6-0.8,2.4c-1.8,0-3.6-1.2-4.9-2.3c-1.1-0.9-2-1.9-3-2.9c-0.1-0.1-0.2-0.1-0.2,0c-1.2,2.2,0.3,5,1.5,6.9
				c1.4,2.1,4.1,4,6.8,3.7c0.2,1.2,0.4,2.3,0.7,3.5c-1.2,0.2-2.4,0.8-3.5,1.5c-0.9,0.5-2.3,1.5-2.4,2.6c-0.2,2.5,3.9,1.6,5.4,1.6
				c-0.4,0.4-0.8,1-0.7,1.5c0.1,0.3,0.4,0.5,0.7,0.5c0.3,0,0.6-0.3,0.9-0.5c0,0.2-0.1,0.4-0.1,0.5c-0.2,0.9-0.2,1.9-0.2,2.8
				c0.1,1.8,0.8,3.4,1,5.2c0,0.2,0,0.4,0,0.6c0,0.1-0.6,0-0.7,0c-0.4-0.1-0.8-0.2-1.2-0.4c-0.7-0.3-1.5-0.5-2.3-0.6
				c-0.8,0-1.9,0.5-2.5,1.1C4,39.1,5.5,39.4,6,39.6c1.1,0.3,2.4,0.2,3.5,0.2c1,0,2,0,3-0.1c0.1,0,0.1,0,0.1-0.1
				c-0.1-1.1-0.1-2.1-0.3-3.1C12.1,35.6,12,34.8,12,34c0-1.1,0.5-1.7,1.6-2c0.8-0.2,1.7-0.2,2.6-0.2c0.9,0,1.8,0.1,2.5,0.6
				c0.9,0.7,0.6,2.4,0.5,3.4C19,37,18.9,38.2,19,39.3c0,0.1,0,0.1,0.1,0.1c1.8,0.3,3.6,0.2,5.4,0.1c0.7,0,2.8,0,3-1
				c0.1-1-1.8-1.6-2.5-1.8c-1.7-0.5-3.3,0.1-4.8,0.8c0.2-1.9,1-3.7,1.1-5.6c0.1-1.6-0.6-3-1-4.5c-0.7-2.1-1.1-4.2-1.5-6.3
				c2.1,0.3,4.5,0.5,6.6,0.1c-0.3,1.5-0.7,3.1-0.6,4.6c0,0.1,0,0.1,0.1,0.1c0.9,0.1,1.7-0.7,2.3-1.3c0.7-0.7,1.4-1.6,1.6-2.6
				c0,0,0,0,0,0c0.1,0,0.1,0.1,0.2,0.1c1,0.5,1.6-0.5,1.6-1.4c0-0.4-0.1-0.8-0.4-1.2c0.5-1.1,1.4-1.9,1.7-3.1
				c0.1-0.5,0.6-0.4,0.9-0.7c0.2-0.2,0.3-0.6,0.2-0.8c-0.1-0.1-0.3-0.3-0.4-0.4c-0.3-0.3,0.1-0.7,0.2-1c0.3-0.5,0.5-1.1,0.8-1.7
				c0.4-1,0.9-2.1,0.4-3.2C33.6,8,32.8,7.7,32.1,7.6z M19,9.9c0.9-0.8,1.5-1.9,2-3c0.3-0.7,0.5-1.5,0.7-2.2c0,0,0-0.1,0-0.1
				c0.1,0.1,0.2,0.1,0.3,0.2C22.1,4.9,22.2,5,22.2,5c0.2,0.2,0.3,0.4,0.5,0.7c1.1,2.1,0.1,4.8-0.9,6.6c-0.9,1.8-2.3,3.7-4.1,4.6
				c-0.1-0.2-0.1-0.4-0.2-0.6c-0.5-1.6-1-3.2-2-4.5C16.5,12.1,18.5,10.3,19,9.9z M10.9,9.7c0-0.2,0-0.4,0-0.6c0-0.3,0-0.6,0-0.9
				c0.2,0.3,0.4,0.5,0.5,0.8c0.2,0.3,0.3,0.5,0.4,0.8c-0.4,0-0.8,0.1-1.1,0.2C10.9,9.8,10.9,9.8,10.9,9.7z M3,14.7
				C1.8,13,0.3,10.2,1.3,8.1c2.1,2.2,4.6,5.2,8,4.9c0,0.3-0.1,0.6-0.1,0.9c-0.1,1.4,0,2.9,0.2,4.3C6.8,18.2,4.5,16.8,3,14.7z
				 M9.8,29.4c-0.4,0.1-0.6-0.1-0.6-0.5c0-0.5,0.5-1,0.8-1.4c0-0.1,0-0.1-0.1-0.1c-1.2-0.1-5.7,0.8-5.4-1.5c0.2-1.2,1.6-2,2.5-2.5
				c1-0.6,2-1.1,3.1-1.4c0,0.1,0,0.2,0.1,0.3c0,0.1,0,0.2,0.1,0.3c-1.7,0.3-3.6,1.4-4.6,2.8c-0.8,1.2,0.6,1.7,1.6,1.8
				c0.7,0.1,1.3,0,1.9-0.1c0.6-0.1,1.6-0.2,1.7,0.6c0,0.3-0.1,0.6-0.2,0.9C10.5,29,10.2,29.3,9.8,29.4z M10.3,22.7
				c0.4,1.5,0.7,3,0.6,4.5c0,0.1,0,0.1,0,0.2c0-0.1-0.1-0.1-0.1-0.2c-0.4-0.3-1-0.3-1.5-0.3c-0.9,0-1.7,0.2-2.5,0
				c-0.5-0.1-1.1-0.3-1.1-0.9c0-0.6,0.7-1.2,1.1-1.6C7.8,23.7,9.1,23,10.3,22.7z M19.7,26.6c0.4,1.6,1.2,3.2,1.3,4.9
				c0.1,2.1-0.8,4.1-1.1,6.2c0,0.1,0.2,0.1,0.2,0c1.4-0.6,3-1.2,4.5-0.7c0.4,0.1,3.2,1,2.5,1.8c-0.8,0.8-7.8,0.9-7.8,0.3
				c0-0.9,0-1.9,0.1-2.8c0.1-0.9,0.2-1.9,0-2.9c-0.2-1.2-1.1-1.7-2.3-1.8c-1.3-0.1-2.8-0.2-4,0.3c-1.1,0.4-1.3,1.5-1.2,2.6
				c0.1,1.4,0.5,2.8,0.6,4.2c0,0.2,0,0.5,0,0.7c-0.2,0-0.3,0-0.5,0c-1.1,0.1-2.2,0.1-3.3,0.1c-1.1,0-2.5,0-3.6-0.5
				c-0.9-0.5,0.8-1.2,1.1-1.3c1.8-0.7,3.5,0.7,5.3,0.8c0.1,0,0.1-0.1,0.1-0.1c0.1-1.7-0.7-3.3-0.9-5c-0.1-0.9-0.1-1.9,0-2.8
				c0.1-1,0.5-1.8,0.6-2.8c0.4-3.1-1.1-6.2-1.5-9.2c-0.2-1.3-0.3-2.6-0.3-3.9c0-1.3,0-3,0.9-4.1c1.1-1.3,2.9-0.5,4,0.4
				c1.3,1,1.9,2.4,2.5,3.9C18.2,18.7,18.6,22.8,19.7,26.6z M22.1,21.3c-1.2,0-2.3-0.1-3.5-0.2c0-0.1,0-0.2-0.1-0.4
				c1.1,0.2,2.2,0.2,3.3,0.2c1.1,0,2.4,0,3.5-0.3c0,0.2-0.1,0.4-0.1,0.6C24.3,21.2,23.2,21.4,22.1,21.3z M30.2,20.6
				c0.2,0.9-0.4,2-1.4,1.3c-0.6-0.4-1-1.3-1.1-2c-0.1-0.4-0.1-0.8,0.2-1.1c0.2-0.2,0.4-0.3,0.7-0.2C29.5,18.8,30.1,19.7,30.2,20.6z
				 M33.3,11.9c-0.3,0.7-0.8,1.5-1.1,2.3c-0.1,0.2,0,0.4,0.2,0.5c0.1,0.2,0.5,0.3,0.4,0.6c-0.2,0.5-0.5,0.7-1,0.7c0,0-0.1,0-0.1,0.1
				c-0.2,1.3-1.2,2.2-1.7,3.4c-0.2-0.3-0.4-0.5-0.6-0.7c0,0,0,0,0,0c0,0-0.1,0-0.1,0c-0.2-0.1-0.4-0.2-0.7-0.2c0,0,0,0,0,0
				c-0.6,0-1.1,0.3-1.1,1.1c0,0.8,0.5,1.8,1.1,2.3c0,0,0,0,0,0c-0.3,1.1-1.2,2.2-2,3c-0.4,0.4-1,0.8-1.6,0.8c-0.1,0,0.2-2.6,0.3-2.7
				c0.2-0.8,0.3-1.7,0.5-2.5c0.1-0.8,0.1-1.7,0.2-2.6c0.2-1.9,0.6-3.9,1.3-5.7c0-0.1,0-0.1-0.1-0.1c-0.9-0.1-0.4-1.3,0.3-0.8
				c0,0,0.1,0,0.1,0c0.3-0.7,0.5-1.5,0.9-2.2c0,0,0,0,0,0c0.2,0.1,0.4,0.1,0.6,0c0,0,0-0.1,0-0.1c-0.4-0.1-1-0.3-0.9-0.8
				c0.1-0.6,0.8-0.3,1.1-0.1c0,0,0.1,0,0,0C29.1,8.1,29,8,28.8,7.9C29,7.7,29,7.6,29.2,7.4c0.3-0.5,0.6-1,1.1-1.3
				c0.9-0.6,1.5,1,1.6,1.6c0,0.1,0,0.1,0.1,0.1c0.7,0,1.3,0.3,1.7,0.8C34.3,9.6,33.7,11,33.3,11.9z"/>
			<path class="st1" d="M30.1,13.1c-0.1,0,0,0.1,0,0.1c0.2,0,0.5,0,0.6,0.2c0.1,0.2,0,0.4-0.1,0.5c-0.1,0.2-0.2,0.3-0.4,0.3
				c-0.2,0-0.4-0.2-0.5-0.4c0-0.1-0.1,0-0.1,0c0.1,0.3,0.3,0.6,0.6,0.5c0.3,0,0.5-0.2,0.6-0.4c0.1-0.2,0.2-0.5,0.1-0.7
				C30.8,13.1,30.4,13,30.1,13.1z"/>
			<path class="st1" d="M27.9,16.8c-0.3,0-0.7-0.1-0.7-0.5c0-0.3,0.3-0.5,0.6-0.6c0.1,0,0.1-0.1,0-0.1c-0.4,0-0.7,0.3-0.7,0.7
				c0,0.5,0.4,0.7,0.8,0.6C28,16.9,28,16.8,27.9,16.8z"/>
			<path class="st1" d="M16.4,16.3c-0.7-0.3-1.6,0.1-2.3,0.3c-0.8,0.2-1.7,0.5-2.4,1c-0.5,0.2-0.9,0.5-1.4,0.7c0,0-0.1,0.1,0,0.1
				c0.8,1.5,1.5,3,3.2,3.6c1.6,0.5,2.8-0.6,3.2-2.1c0.2-0.8,0.3-1.6,0.4-2.4C17.1,17,17,16.6,16.4,16.3z M13,17.2
				c0.2,0.2,0.3,0.3,0.3,0.6c0,0.2-0.1,0.5-0.3,0.6c-0.1,0.2-0.3,0.3-0.5,0.2c-0.3-0.1-0.5-0.6-0.6-0.9C12.2,17.6,12.6,17.4,13,17.2
				z M16.2,20.8c-0.8,1.6-2.7,1.3-3.8,0.3c0.5-0.6,0.9-1.1,1.7-1.4c0.9-0.3,1.7,0,2.3,0.6C16.3,20.5,16.3,20.6,16.2,20.8z
				 M16.8,18.5c-0.1,0.6-0.2,1.1-0.3,1.7c-0.5-0.7-1.3-0.9-2.1-0.8c-0.8,0.1-1.8,0.8-2.1,1.6c-0.1-0.1-0.2-0.2-0.3-0.3
				c-0.5-0.6-0.9-1.3-1.2-1.9c-0.1-0.1-0.3-0.3-0.1-0.4c0.3-0.2,0.5-0.3,0.8-0.5c0.1,0,0.2-0.1,0.2-0.1c0,0,0,0,0,0
				c0.1,0.4,0.2,0.8,0.6,1c0.3,0.1,0.5,0,0.8-0.2c0.2-0.2,0.4-0.5,0.4-0.8c0-0.2-0.1-0.5-0.3-0.6c1-0.4,2-0.8,3.1-0.6
				C17.2,16.7,16.9,17.9,16.8,18.5z"/>
			<path class="st1" d="M12.8,15.7c1.1-0.3,1.6-1.4,1.2-2.4c-0.2-0.4-0.5-0.7-1-0.8c-0.4,0-0.8,0.1-1.1,0.4
				c-0.5,0.3-0.9,0.8-0.8,1.5C11.1,15.3,11.9,15.9,12.8,15.7z M11.6,13.4c0.7-0.7,1.8-1,2.2,0.1c0.4,0.9-0.3,1.7-1.2,2
				c-0.8,0.2-1.3-0.4-1.3-1.1C11.3,13.9,11.4,13.6,11.6,13.4z"/>
			<circle class="st1" cx="12.6" cy="14.1" r="0.3"/>
		</g>
		<g>
			<path class="st9" d="M13,24.1c-1.4-0.1-1.2,2.1-0.2,2.4C14,26.8,14.6,24,13,24.1"/>
		</g>
		<g>
			<path class="st9" d="M18.1,24.6C18.1,24.6,18.1,24.6,18.1,24.6c0.1,0,0.2,0.1,0.3,0.1L18.1,24.6z"/>
		</g>
		<g>
			<path class="st9" d="M18.2,24.6c-1.1-0.3-2.2,0.7-0.7,1.5C18.5,26.7,19.1,25.1,18.2,24.6z"/>
		</g>
		<g>
			<path class="st9" d="M13.5,28L13.5,28c-0.6,0-1.6,0.9-0.9,1.3C13.7,29.8,14.6,27.6,13.5,28z"/>
		</g>
		<g>
			<path class="st9" d="M15.6,26.5L15.6,26.5c-0.4,0.1-1.2,0.8-0.5,1.1C15.9,27.9,16,26.6,15.6,26.5z"/>
		</g>
		<g>
			<path class="st9" d="M18.6,28.1c-0.6-0.7-1.3,0.8-0.3,1.4C19.7,30.2,19.3,28.7,18.6,28.1z"/>
		</g>
		<g>
			<path class="st9" d="M16.5,29.3L16.5,29.3c-0.4-0.1-1.4,0.2-0.8,0.7C16.2,30.4,17.3,29.5,16.5,29.3z"/>
		</g>
	</g>
</g>
</svg>
