<?xml version="1.0" encoding="utf-8"?>
<!-- Generator: Adobe Illustrator 20.1.0, SVG Export Plug-In . SVG Version: 6.00 Build 0)  -->
<svg version="1.1" id="Layer_1" xmlns="http://www.w3.org/2000/svg" xmlns:xlink="http://www.w3.org/1999/xlink" x="0px" y="0px"
	 viewBox="0 0 35.5 48.3" style="enable-background:new 0 0 35.5 48.3;" xml:space="preserve">
<style type="text/css">
	.st0{fill:#333333;}
</style>
<g>
	<path class="st0" d="M11.4,37.6h15.9c0,0,6-16.1,7.8-21c1.8-5-2.7-6.1-4.4-1.4c-1.2,3.4-2.1,3.8-2.1,3.8s-1.9,0-1.6-2
		c0.4-2.7,1-6,1.8-10.9c0.5-3.1-4.4-3.5-4.8-1c-0.4,2.6-1.4,9.4-1.7,10.9c-0.3,1.6-2.1,2.8-2.3-1c-0.1-2.6-0.3-6.3-0.3-11.3
		c0-3.4-5.4-3-5.4,0.1c0,2.2,0.2,11.1,0.1,12.8c0,1.7-0.8,2.2-1.8-0.1c-1.1-2.6-2.3-5.6-3.4-8.1C7.7,4.7,3.5,7.3,4.5,9.8
		c0.8,2.2,2.9,7.2,4.5,11.1c0.8,2,1.9,5.8-0.7,3.8c-1.8-1.4-2.6-2.8-4.7-4.3c-2.1-1.4-4.3,1.6-3.4,2.6C2,25.4,5.3,29,7.4,32.4
		C8.9,34.9,11.4,37.6,11.4,37.6z"/>
	<path class="st0" d="M29.1,46.7c0,0.9-0.7,1.6-1.6,1.6H11.2c-0.9,0-1.6-0.7-1.6-1.6v-6.2c0-0.9,0.7-1.6,1.6-1.6h16.4
		c0.9,0,1.6,0.7,1.6,1.6V46.7z"/>
</g>
</svg>
