<?xml version="1.0" encoding="utf-8"?>
<!-- Generator: Adobe Illustrator 20.1.0, SVG Export Plug-In . SVG Version: 6.00 Build 0)  -->
<svg version="1.1" id="Layer_1" xmlns="http://www.w3.org/2000/svg" xmlns:xlink="http://www.w3.org/1999/xlink" x="0px" y="0px"
	 viewBox="0 0 35.5 48.3" style="enable-background:new 0 0 35.5 48.3;" xml:space="preserve">
<style type="text/css">
	.st0{fill:#B7B7A1;}
	.st1{fill:#332E2B;}
	.st2{fill:#B1B3B4;}
	.st3{fill:#9C9E9F;}
	.st4{fill:#D85C4C;}
	.st5{fill:#58585A;}
	.st6{fill:#707173;}
	.st7{fill:#87888A;}
	.st8{fill:#C6C7C8;}
	.st9{fill:#A83735;}
	.st10{fill:#FFFFFF;}
	.st11{fill:#E2E2E2;}
</style>
<g>
	<path class="st0" d="M27.5,41.6c0.1,1.9-4.4,3.6-9.9,3.7c-5.5,0.2-10-1.2-10.1-3.1c-0.1-1.9,2.2-3.7,7.7-3.8
		C20.7,38.2,27.4,39.7,27.5,41.6z"/>
	<g>
		<g>
			<path class="st1" d="M32.2,11.6c-0.1,1.3-0.6,2.9-2,3c-0.2,0-0.4,0-0.6,0c0.1,0.2-0.1,0.4-0.3,0.5c-0.1,0-0.1,0.1-0.2,0.1
				c-0.3,1.7-1.8,3-3.2,3.8c-1.1,0.6-2.7,1.5-4,1.2c0,0.9-0.1,1.7-0.1,2.6c0,2.3-0.1,4.7,0,7c0,0.1,0,0.1-0.1,0.1
				c-1.1,0.5-2.4,0.9-3.7,1c0,0.4,0,0.8,0,1.2c0.6,0,1.3,0,1.8,0.3c2.9,1.2,4,4.5,2.9,7.3c-1,2.6-3.8,3.6-6.4,3.2
				c-2.6-0.4-4.8-2.3-4.8-5.1c0.1-2.8,2.1-5.6,5.1-5.6c0-0.4,0-0.8,0.1-1.2c-1.1,0-2.2-0.2-3.2-0.6c-0.4-0.2-0.9-0.4-1.2-0.8
				c-0.4-0.3-0.4-0.7-0.4-1.2c-0.2-1.6-0.2-3.2-0.1-4.7c0.1-1.4,0.2-2.8,0.4-4.3C10,18.8,8.3,17,7.5,15c-0.1,0-0.1,0-0.2,0
				c-0.2-0.1-0.3-0.2-0.4-0.4c-0.6,0.1-1.3-0.1-1.7-0.8c-0.1-0.2-0.3-0.5-0.4-0.8c-0.5,0.4-1.6,0.3-2.1,0.2C1.9,13,1,12.6,0.6,11.8
				c-0.2-0.6,0-1.1,0.7-1c0.9,0.2,2.1,1.2,3,0.8c-0.1-0.4-0.1-0.8-0.1-1.2c0,0,0-0.1,0-0.1c-0.6-0.4-1-1.2-1.4-1.8
				C2.6,8.1,2.1,7.3,2.6,6.9c0.9-0.9,2.2,2.4,2.5,2.9c0,0,0,0,0,0c0.5,0,1,0.2,1.3,0.4c0.3-0.5-0.2-3.3,0.8-3.1C8.7,7.4,8,10,7.4,11
				c0.2,0.2,0.3,0.4,0.5,0.6c0.3,0.5,0.9,1.3,0.6,2c0,0.1-0.1,0.1-0.1,0.2c0.1,0.1,0.2,0.4,0.2,0.6c0,0.1,0,0.1,0,0.2
				c0.4,0.8,0.9,1.6,1.5,2.2c0.7,0.7,1.4,1.1,2.3,1.5c0-0.3,0.1-0.5,0.2-0.8c0.2-0.6,0.3-1.2,0.5-1.8c-0.4-0.2-0.8-0.4-1.1-0.7
				c-0.9-0.6-1.3-1.7-1.2-2.9c0.2-2.2,1.4-4.4,3-5.8c0.6-0.5,1.3-1,2-1.1c0,0,0,0,0,0c0.9-0.3,1.8,0.1,2.5,0.8
				c0.4,0.3,0.8,0.6,1.2,1c1.1,0.3,2,1,2.5,2.1c0.4,1.1,0.6,2.5,0.4,3.6c0.3,0.5,0.4,1,0.1,1.5c0,0-0.1,0.1-0.1,0.1c0,0-0.1,0-0.1,0
				c0.1,1.7,0,3.3-0.1,5c1.2-0.3,2.4-0.7,3.5-1.3c1.2-0.8,2-1.7,2.5-3c0,0,0,0,0.1,0c-0.1-0.3-0.1-0.7,0-1.1
				c-0.2-0.4-0.2-0.8-0.1-1.3c0.1-0.5,0.3-1.1,0.6-1.6c-1.2-0.3-2.5-2.9-1.2-3.8c0.5-0.4,0.8-0.1,0.9,0.5c0.1,0.8,0.1,1.8,0.9,2.3
				c0,0,0,0,0,0c0.3-0.3,0.5-0.6,0.9-0.8c0.2-0.2,0.5-0.3,0.7-0.4c0.2-0.7,0.6-3.1,1.6-2.6c0.6,0.3,0.4,1,0.2,1.5
				c-0.2,0.4-0.4,0.8-0.7,1.2c-0.1,0.1-0.2,0.3-0.3,0.4c0.3,0.4,0.4,0.8,0.5,1.2c0.7-0.1,1.4-0.2,1.8-0.8c0.2-0.3,0.4-0.6,0.7-0.9
				C35,8,35.4,8,35.5,8.7C35.7,10.1,33.7,12.2,32.2,11.6z"/>
			<path class="st2" d="M8,13.8c0.1-0.1,0.1-0.1,0.1-0.2c0,0,0,0,0,0c0,0,0-0.1,0-0.1c0.4-0.8-0.1-1.8-0.8-2.5c0,0-0.1,0-0.1-0.1
				c-0.2-0.2-0.4-0.4-0.6-0.5c-0.3-0.2-0.7-0.4-1.1-0.5c-0.6-0.2-1.1-0.1-1.1,0.6c0,0.9,0.4,2,0.8,2.7c0.3,0.6,1,1.1,1.6,1.1
				c0,0,0,0,0,0c0,0,0,0,0,0C7.3,14.4,7.6,14.2,8,13.8z"/>
			<path class="st3" d="M4.5,9.8C4.5,9.8,4.5,9.8,4.5,9.8c0.1,0,0.2-0.1,0.4-0.1c-0.5-0.6-1.2-3-2-2.8C2,7.3,3.6,9.5,4.2,10.2
				C4.2,10,4.3,9.9,4.5,9.8C4.5,9.8,4.5,9.8,4.5,9.8z"/>
			<path class="st4" d="M8.3,14.2c0-0.1,0-0.2-0.1-0.3c-0.3,0.4-0.7,0.6-1.2,0.7c0.1,0.1,0.1,0.1,0.2,0.2c0.2,0.2,0.4,0.1,0.6,0
				C8.1,14.6,8.3,14.4,8.3,14.2z"/>
			<path class="st3" d="M7.3,10.8c0.3-0.7,0.5-1.4,0.5-2.1c0-0.4,0-0.9-0.3-1.2C7.2,7.3,6.9,7.2,6.8,7.6C6.7,8.4,7,9.6,6.5,10.2
				C6.8,10.4,7.1,10.6,7.3,10.8z"/>
			<path class="st5" d="M12.1,19.1c0-0.3,0.1-0.6,0.1-0.9C10.4,18.2,9,16,8.4,14.5c-0.1,0.2-0.2,0.3-0.4,0.4C7.9,14.9,7.7,15,7.6,15
				c0.5,0.9,1.2,1.9,2,2.6c0.8,0.7,1.6,1.2,2.5,1.7C12,19.3,12.1,19.2,12.1,19.1z"/>
			<path class="st6" d="M17.9,31c-0.4,0-0.7,0.1-1.1,0.1c0.1,0.8,0,1.6,0,2.4c0,0.9,0.1,1.9,0.1,2.8c0.3-0.2,0.6-0.3,0.9-0.3
				c-0.2-0.7-0.1-1.6-0.1-2.4C17.8,32.8,17.8,31.9,17.9,31z"/>
			<path class="st4" d="M18.1,11.4c0.6-1,1-2.2,0.8-3.4c-0.2-1.2-1.2-2.6-2.4-2.8c0,0-0.1,0-0.1,0c-2.2-0.1-4,2.5-4.8,4.3
				c-0.8,1.7-1.5,5,1.1,5.4C14.9,15.2,17.1,13.1,18.1,11.4z M12.5,13.2c-0.5-0.6-0.6-1.5-0.5-2.2c0.3-1.5,1.3-3.2,2.7-4.2
				c0.4-0.3,0.9-0.6,1.3-0.5c0.9,0.2,1.5,1,1.6,1.9c0.3,2.1-1.3,4.2-3.1,5.1c-0.4,0.2-0.7,0.3-1.1,0.3c0,0,0,0,0,0
				C13.1,13.6,12.8,13.5,12.5,13.2z"/>
			<path class="st7" d="M17.3,36.3C17.3,36.3,17.3,36.3,17.3,36.3c-0.1,0-0.2,0.1-0.3,0.2c-0.2,0.2-0.5,0.6-0.5,0.9
				c0,0.7,0.9,1.1,1.4,0.8c0.4-0.3,0.6-0.9,0.5-1.3C18.3,36.3,17.9,36.1,17.3,36.3z"/>
			<path class="st4" d="M14.5,39.1c1,1.5,3.1,2.1,4.7,1.2c1.4-0.7,2-2.3,1.6-3.8c-0.4-1.3-1.4-2.4-2.8-2.2c0,0.6,0,1.1,0,1.7
				c0.9,0.3,1.1,2.2-0.1,2.5c-0.8,0.3-1.8-0.3-1.7-1.2c0-0.3,0.3-0.7,0.6-1c0,0,0,0,0,0c-0.2-0.6-0.2-1.2-0.2-1.9
				C14.7,35,13.3,37.4,14.5,39.1z"/>
			<path class="st7" d="M22,12.2c-0.1-1-0.1-2-0.4-2.9c-0.2-0.6-0.5-1.1-0.9-1.6c0.5,1.2,0.7,2.6,0.7,3.8C21.6,11.8,21.8,12,22,12.2
				z M21.5,10c0.2,0,0.2,0.2,0,0.2C21.4,10.3,21.4,10,21.5,10z"/>
			<path class="st8" d="M20.1,10.8c0.3,0.2,0.7,0.4,1.1,0.7c-0.1-1.3-0.2-2.7-0.7-3.9c-0.3-0.3-0.7-0.5-1.1-0.7
				c0.5,0.5,0.8,1.1,0.9,1.8C20.4,9.5,20.3,10.2,20.1,10.8z M20.9,10.8c0,0-0.1,0.1-0.1,0.1c-0.1,0-0.2-0.1-0.2-0.2
				c0-0.1,0.1-0.2,0.2-0.2C21,10.5,21,10.7,20.9,10.8z M20.7,9.1c0.2,0,0.2,0.3,0,0.3C20.5,9.4,20.5,9.1,20.7,9.1z"/>
			<path class="st3" d="M29.1,9.7c-1,0-0.9-1.8-1.1-2.5c-0.2-0.6-0.7-0.3-0.8,0.2c-0.1,0.4-0.1,0.8,0.1,1.2c0.2,0.7,0.7,1.5,1.4,1.8
				C28.8,10.2,28.9,10,29.1,9.7z"/>
			<path class="st6" d="M14.6,9.7c0.5-1,1.4-2.2,2.5-2.5c-0.1-0.3-0.3-0.5-0.6-0.6c0,0,0,0,0,0.1c-1.5,1.1-2.7,2.3-3.4,4.1
				c-0.2,0.6-0.3,1.3-0.6,1.9c0.2,0.4,0.5,0.6,0.9,0.6C13.6,12,14,10.8,14.6,9.7z"/>
			<path class="st3" d="M31.5,8.8c0.1-0.3,0.5-0.7,0.6-0.9c0.1-0.3,1-1.9,0.1-1.9c-0.5,0-0.8,1.1-0.9,1.5c-0.1,0.3-0.2,0.7-0.3,1
				C31.2,8.5,31.3,8.6,31.5,8.8z"/>
			<path class="st1" d="M18,34.1c1.7-0.2,2.9,1.2,3.2,2.8c0.3,1.8-0.8,3.5-2.5,3.9c-1.8,0.5-4.3-0.3-4.8-2.4c-0.2-1.1,0.1-2.1,0.7-3
				c0.5-0.6,1.2-1.2,1.9-1.1c0-0.3,0-0.6,0-0.9c0-0.3,0-0.7,0-1c-2.9,0.3-5.1,3.1-4.7,6c0.3,2.6,2.6,4.2,5.1,4.3
				c1.2,0.1,2.5-0.1,3.6-0.7c1.2-0.7,2-2,2.3-3.4c0.3-1.4,0.1-2.9-0.7-4.1c-0.5-0.7-1-1.2-1.7-1.6c-0.8-0.4-1.5-0.5-2.3-0.6
				c0,0.3,0,0.7,0,1C18,33.6,18,33.9,18,34.1z"/>
			<path class="st8" d="M15.8,8.4c-0.4,0.5-0.8,1-1.1,1.6c-0.5,1.1-0.7,2.2-1.1,3.3c0.3,0,0.5-0.1,0.8-0.2c1.5-0.8,3-2.3,3.1-4.1
				c0-0.4-0.1-1.1-0.4-1.7C16.7,7.7,16.2,7.9,15.8,8.4z M16.4,10.2c0.1,0.4,0,0.9-0.4,1.1c-0.4,0.3-0.9-0.1-0.9-0.5
				c0-0.2,0.2-0.6,0.4-0.7c0,0,0,0,0-0.1C15.9,9.7,16.3,9.8,16.4,10.2z"/>
			<path class="st5" d="M16.4,6.5c-0.2-0.1-0.4-0.1-0.7,0c-0.6,0.2-1.1,0.7-1.6,1.1C13.5,8.3,13,9.1,12.7,10
				c-0.3,0.7-0.5,1.5-0.3,2.3c0,0,0,0.1,0,0.1c0.1-0.7,0.3-1.4,0.6-2C13.7,8.8,14.9,7.2,16.4,6.5z"/>
			<path class="st9" d="M18.3,11.8c-1,1.6-2.8,3.4-4.9,3.5c-0.1,0-0.2,0-0.3,0c0.7,0.3,1.5,0.4,2.3,0.2c1.5-0.4,2.6-1.4,3.4-2.7
				c0.8-1.2,1.5-2.9,1.1-4.4c-0.2-0.9-0.8-1.5-1.4-2c0.3,0.4,0.5,0.8,0.6,1.3C19.5,9.1,19,10.6,18.3,11.8z"/>
			<path class="st1" d="M16,11c0.2-0.2,0.2-0.5,0.2-0.7c0-0.2-0.1-0.3-0.2-0.3c-0.3,0.1-0.5,0.5-0.5,0.7C15.4,11.1,15.8,11.2,16,11z
				"/>
			<path class="st3" d="M2.6,11.7c-0.2-0.1-1.8-0.8-1.8-0.3c0.1,1,1.2,1.5,2,1.7c0.4,0.1,0.8,0.2,1.2,0.1c0.3,0,0.5-0.1,0.7-0.2
				c-0.1-0.3-0.3-0.7-0.4-1.1C3.8,12.2,3.1,11.9,2.6,11.7z"/>
			<path class="st6" d="M22.5,19.1c-0.2,0-0.3,0.1-0.5,0.1c0,0.3,0,0.7,0,1c0.1,0,0.2,0,0.4-0.1C22.1,19.8,22.2,19.4,22.5,19.1z"/>
			<path class="st4" d="M22.2,13.5c0.2-1.2-1.3-2-2.2-2.5c-0.1,0.4-0.3,0.9-0.5,1.3c0.5,0,0.9,0.3,1.3,0.6c0.3,0.2,0.6,0.4,0.9,0.6
				C21.9,13.6,22.2,13.9,22.2,13.5z"/>
			<path class="st7" d="M21.2,17.6C21.1,19,21,20.3,21,21.7c-0.1,2.8-0.3,5.6-0.3,8.4c0.3-0.1,0.6-0.2,0.9-0.3c0,0,0,0,0-0.1
				c0-0.1,0-0.2,0-0.4c0-0.3,0-0.6,0-0.9c0-0.7,0-1.5,0-2.2c0-4.1,0.1-8.2,0.4-12.3c-0.2-0.1-0.5-0.2-0.7-0.4
				C21.2,14.9,21.2,16.2,21.2,17.6z M20.9,27.7C20.9,27.6,20.9,27.6,20.9,27.7c0-0.2,0.3-0.2,0.3,0c0,0,0,0,0,0
				C21.2,27.9,20.9,27.9,20.9,27.7z M21.1,25.9c-0.2,0-0.2-0.4,0-0.4S21.4,25.9,21.1,25.9z M21.2,23.5c-0.2,0-0.2-0.3,0-0.3
				C21.4,23.2,21.4,23.5,21.2,23.5z M21.3,15.3c0-0.1,0.1-0.1,0.2-0.1c0,0,0.1,0,0.1,0.1c0,0,0.1,0.1,0,0.2c0,0,0,0,0,0c0,0,0,0,0,0
				c0,0,0,0,0,0c-0.1,0.1-0.2,0.1-0.3,0C21.3,15.4,21.3,15.3,21.3,15.3z M21.4,18.1c0.1,0,0.2,0.1,0.2,0.2c0,0,0,0,0,0
				c0,0,0,0.1,0,0.1c0,0-0.1,0.1-0.1,0.1c-0.1,0-0.1,0-0.2-0.1c0,0-0.1-0.1-0.1-0.2C21.2,18.2,21.3,18.1,21.4,18.1z M21.2,20.9
				c-0.2,0-0.2-0.3,0-0.3C21.4,20.6,21.4,20.9,21.2,20.9z"/>
			<path class="st6" d="M23.4,18.9c-0.3,0.1-0.5,0.1-0.8,0.2c-0.3,0.2-0.3,0.7-0.2,1c0,0,0,0,0,0c0.3-0.1,0.6-0.1,0.9-0.2
				C23.3,19.6,23.3,19.2,23.4,18.9z"/>
			<path class="st2" d="M31.4,8.9c-0.2-0.2-0.4-0.2-0.5-0.3c0,0-0.1,0-0.1,0c-0.4,0-0.8,0.4-1.1,0.7c0,0,0,0,0,0
				c-1.3,1.5-2.5,4.5-0.3,4.9c1.6,0.3,2.3-1,2.5-2.4c0.1-0.7,0.1-1.4-0.1-2.1C31.7,9.5,31.6,9.2,31.4,8.9z"/>
			<path class="st6" d="M28,16c-0.1-0.1-0.2-0.3-0.2-0.4c-0.2,0.4-0.4,0.7-0.6,1c0,0.2,0,0.4,0,0.6c0,0.1,0.1,0.3,0.2,0.3
				c0,0,0.1,0,0.1,0c0.4-0.4,0.7-0.8,1-1.3C28.4,16.2,28.1,16.1,28,16z"/>
			<path class="st3" d="M34.8,8.5c-0.3,0.4-0.6,0.9-0.9,1.2c-0.5,0.4-1.1,0.6-1.8,0.5c0,0.2,0.1,0.4,0.1,0.6c0,0.1,0,0.3,0,0.5
				c0.8,0.2,1.7-0.3,2.2-0.9c0.3-0.3,0.6-0.7,0.8-1.1C35.2,9.3,35.3,8,34.8,8.5z"/>
			<path class="st4" d="M28.2,13.7c-0.1,0.5,0,1,0.5,1.2c0.2,0.1,0.4,0.1,0.6,0c0.2-0.1,0.2-0.2,0.2-0.3
				C28.9,14.5,28.5,14.2,28.2,13.7z"/>
			<path class="st6" d="M27,17.3C27,17.1,27,16.9,27,16.7c-0.2,0.2-0.5,0.5-0.7,0.7c0,0.1,0,0.3,0,0.4c0,0.1,0.1,0.3,0.2,0.3
				c0,0,0.1,0.1,0.2,0.1c0.3-0.2,0.5-0.4,0.8-0.7C27.2,17.6,27.1,17.5,27,17.3z"/>
			<path class="st6" d="M24.7,18.8c0-0.2,0.1-0.3,0.1-0.4c-0.4,0.2-0.8,0.4-1.2,0.5c-0.1,0.3-0.2,0.7,0,1c0,0,0,0,0,0
				c0.4-0.1,0.8-0.3,1.2-0.5C24.7,19.2,24.6,18.9,24.7,18.8z"/>
			<path class="st6" d="M26.1,17.9c0-0.1,0-0.2,0-0.4c-0.4,0.3-0.7,0.5-1.2,0.7c-0.1,0.2-0.1,0.4-0.1,0.5c0,0.1,0,0.3,0.1,0.4
				c0,0,0.1,0.1,0.1,0.1c0.5-0.2,0.9-0.5,1.4-0.8C26.2,18.3,26.1,18.1,26.1,17.9z"/>
			<path class="st6" d="M28.1,14.7c0,0.2-0.1,0.4-0.2,0.5c0,0.2,0,0.4,0.2,0.6c0.1,0.1,0.2,0.2,0.3,0.2c0.1,0,0.2-0.1,0.4-0.1
				c0,0,0,0,0,0c0.1-0.2,0.2-0.4,0.3-0.6c-0.1,0-0.2,0-0.4-0.1C28.4,15,28.2,14.9,28.1,14.7z"/>
			<path class="st10" d="M21.6,15.4C21.6,15.4,21.6,15.4,21.6,15.4C21.6,15.4,21.6,15.4,21.6,15.4C21.6,15.4,21.6,15.4,21.6,15.4z"
				/>
			<path class="st8" d="M21,17.1c0-1.2-0.1-2.4,0.1-3.6c-0.5-0.4-1-0.9-1.7-1c-0.2,0.3-0.4,0.7-0.6,1c-0.9,1.2-2.1,2.2-3.7,2.4
				c-0.7,0.1-1.5,0-2.2-0.3c0,0.5-0.1,0.9-0.2,1.3c0.2,0.3,0.7,1,0.7,1c0.3-0.3,0.5-0.7,0.7-1c0-0.1,0.2-0.1,0.2,0
				c0.1,0.3,0.4,1.4,0.9,1c0.4-0.4,0.8-0.8,1-1.2c0.1-0.1,0.2-0.1,0.2,0c0.2,0.5,0.3,1.1,0.5,1.6c0.3-0.5,0.5-1,0.9-1.4
				c0.1-0.1,0.1,0,0.2,0c0.3,0.4,0.5,0.9,1,1.2c0.1,0.1,0,0.3-0.1,0.2c-0.4-0.3-0.7-0.7-1-1.2c-0.4,0.5-0.5,1-0.9,1.5
				c-0.1,0.1-0.2,0-0.2-0.1c-0.2-0.5-0.3-1-0.5-1.6c-0.4,0.5-0.8,1-1.3,1.4c0,0-0.1,0.1-0.2,0c-0.3-0.3-0.5-0.7-0.7-1.1
				c-0.2,0.4-0.5,0.7-0.8,1c-0.1,0-0.1,0-0.2,0c-0.2-0.4-0.4-0.7-0.6-1.1c-0.1,0.3-0.1,0.7-0.2,1c-0.2,1.1-0.3,2.3-0.4,3.4
				c-0.2,2.1-0.3,4.3-0.1,6.4c0.1,0.7,0,1.3,0.7,1.7c0.3,0.2,0.7,0.4,1.1,0.6c0.7,0.3,1.4,0.4,2.2,0.4c1.3,0.1,2.6-0.1,3.8-0.4
				c0.3-0.1,0.5-0.1,0.8-0.2c0-2.9,0.2-5.8,0.3-8.7C20.8,19.9,21,18.5,21,17.1z M20.5,14c0.1,0,0.2,0.1,0.2,0.2
				c0,0.1-0.1,0.2-0.2,0.2c-0.1,0-0.2-0.1-0.2-0.2C20.3,14.1,20.4,14,20.5,14z M19.9,29.5c-0.1,0-0.2-0.1-0.2-0.2c0-0.1,0-0.1,0-0.2
				c0.1-0.1,0.2-0.1,0.3-0.1c0.1,0,0.1,0.1,0.1,0.2c0,0,0,0,0,0C20.2,29.4,20.1,29.5,19.9,29.5z M20,27.3c-0.3,0-0.3-0.5,0-0.5
				C20.3,26.9,20.3,27.3,20,27.3z M20.3,25.1c-0.1,0-0.1,0.1-0.2,0C20,25.1,20,25,19.9,25c0,0,0,0,0,0c0-0.1,0-0.2,0.1-0.3
				c0,0,0,0,0,0c0.1,0,0.1,0,0.2,0c0.1,0,0.2,0.1,0.2,0.2C20.4,24.9,20.4,25,20.3,25.1z M20.2,22.5c-0.3,0-0.3-0.4,0-0.4
				C20.5,22.1,20.5,22.5,20.2,22.5z M20.6,19.9C20.6,20,20.6,20,20.6,19.9c-0.1,0.1-0.2,0.1-0.2,0.1c0,0-0.1-0.1-0.1-0.1
				c-0.1-0.1,0-0.3,0.2-0.3C20.6,19.7,20.7,19.8,20.6,19.9z M20.5,16.9c-0.3,0-0.3-0.4,0-0.4C20.8,16.5,20.8,16.9,20.5,16.9z"/>
			<path class="st1" d="M13.5,13.6c0.4,0,0.7-0.1,1.1-0.3c1.8-0.9,3.4-3,3.1-5.1c-0.1-0.9-0.7-1.7-1.6-1.9c-0.5-0.1-0.9,0.2-1.3,0.5
				c-1.4,0.9-2.4,2.6-2.7,4.2c-0.1,0.7-0.1,1.7,0.5,2.2C12.8,13.5,13.1,13.6,13.5,13.6C13.5,13.6,13.5,13.6,13.5,13.6z M17.5,9
				c-0.1,1.8-1.6,3.3-3.1,4.1c-0.3,0.1-0.6,0.2-0.8,0.2c0.4-1.1,0.6-2.2,1.1-3.3c0.3-0.6,0.6-1.1,1.1-1.6c0.4-0.4,0.9-0.7,1.4-1.1
				C17.5,7.8,17.6,8.5,17.5,9z M12.5,12.4c0,0,0-0.1,0-0.1c-0.2-0.7,0-1.6,0.3-2.3c0.3-0.8,0.8-1.7,1.4-2.4c0.5-0.4,1-0.9,1.6-1.1
				c0.3-0.1,0.5-0.1,0.7,0c-1.6,0.7-2.7,2.3-3.4,3.8C12.8,10.9,12.5,11.7,12.5,12.4z M12.6,12.6c0.3-0.6,0.3-1.3,0.6-1.9
				c0.7-1.8,1.9-3,3.4-4.1c0,0,0,0,0-0.1c0.2,0.1,0.4,0.3,0.6,0.6c-1.1,0.4-2,1.6-2.5,2.5c-0.6,1.1-1,2.3-1.1,3.6
				C13.1,13.2,12.8,13,12.6,12.6z"/>
			<circle class="st1" cx="20.5" cy="14.2" r="0.2"/>
			<path class="st1" d="M21.6,15.4C21.6,15.4,21.6,15.4,21.6,15.4C21.6,15.4,21.6,15.4,21.6,15.4C21.6,15.4,21.6,15.4,21.6,15.4
				c0.1-0.1,0-0.2,0-0.2c0,0-0.1,0-0.1-0.1c-0.1,0-0.2,0-0.2,0.1c0,0,0,0.1,0,0.1C21.4,15.5,21.5,15.6,21.6,15.4z M21.6,15.4
				C21.6,15.4,21.6,15.4,21.6,15.4C21.6,15.4,21.6,15.4,21.6,15.4C21.6,15.4,21.6,15.4,21.6,15.4z"/>
			<path class="st1" d="M20.5,16.5c-0.3,0-0.3,0.4,0,0.4C20.8,16.9,20.8,16.5,20.5,16.5z"/>
			<path class="st1" d="M21.5,18.5C21.6,18.5,21.6,18.5,21.5,18.5c0.1-0.1,0.1-0.2,0.1-0.2c0,0,0,0,0,0c0-0.1-0.1-0.2-0.2-0.2
				c-0.1,0-0.2,0.1-0.2,0.2c0,0.1,0,0.1,0.1,0.2C21.4,18.5,21.5,18.6,21.5,18.5z"/>
			<path class="st1" d="M20.5,19.7c-0.1,0-0.2,0.1-0.2,0.3c0,0,0,0.1,0.1,0.1c0.1,0,0.1,0,0.2,0c0,0,0-0.1,0.1-0.1
				C20.7,19.8,20.6,19.7,20.5,19.7z"/>
			<path class="st1" d="M21.2,20.9c0.2,0,0.2-0.3,0-0.3C21,20.6,21,20.9,21.2,20.9z"/>
			<path class="st1" d="M20.2,22.1c-0.3,0-0.3,0.4,0,0.4C20.5,22.5,20.5,22.1,20.2,22.1z"/>
			<path class="st1" d="M21.2,23.2c-0.2,0-0.2,0.3,0,0.3C21.4,23.5,21.4,23.2,21.2,23.2z"/>
			<path class="st1" d="M20.2,24.7c-0.1,0-0.1,0-0.2,0c0,0,0,0,0,0c-0.1,0.1-0.1,0.2-0.1,0.3c0,0,0,0,0,0c0,0.1,0.1,0.1,0.2,0.2
				c0.1,0,0.1,0,0.2,0c0.1-0.1,0.1-0.2,0.1-0.3C20.4,24.8,20.3,24.7,20.2,24.7z"/>
			<path class="st1" d="M21.1,25.5c-0.2,0-0.2,0.4,0,0.4S21.4,25.5,21.1,25.5z"/>
			<path class="st1" d="M20,26.9c-0.3,0-0.3,0.5,0,0.5C20.3,27.3,20.3,26.9,20,26.9z"/>
			<path class="st1" d="M20.9,27.6C20.9,27.6,20.9,27.6,20.9,27.6c0,0.2,0.3,0.2,0.3,0c0,0,0,0,0,0C21.2,27.4,20.9,27.4,20.9,27.6z"
				/>
			<path class="st1" d="M20.1,29.1c-0.1-0.1-0.2,0-0.3,0.1c0,0,0,0.1,0,0.2c0,0.1,0.1,0.2,0.2,0.2c0.1,0,0.2-0.1,0.2-0.2
				c0,0,0,0,0,0C20.2,29.2,20.1,29.1,20.1,29.1z"/>
			<path class="st1" d="M20.6,10.7c0,0.1,0.1,0.2,0.2,0.2c0.1,0,0.1,0,0.1-0.1c0.1-0.1,0.1-0.3-0.1-0.3
				C20.7,10.5,20.6,10.6,20.6,10.7z"/>
			<path class="st1" d="M21.5,10.3c0.2,0,0.2-0.2,0-0.2C21.4,10,21.4,10.3,21.5,10.3z"/>
			<path class="st1" d="M20.7,9.4c0.2,0,0.2-0.3,0-0.3C20.5,9.1,20.5,9.4,20.7,9.4z"/>
			<path class="st1" d="M34.6,8.4c-0.2,0.3-0.4,0.6-0.7,0.9c-0.4,0.6-1.1,0.7-1.8,0.8C32,9.7,31.9,9.3,31.6,9
				c0.1-0.1,0.2-0.3,0.3-0.4c0.3-0.4,0.5-0.8,0.7-1.2c0.2-0.5,0.4-1.2-0.2-1.5c-1-0.5-1.4,1.9-1.6,2.6c-0.3,0-0.5,0.2-0.7,0.4
				c-0.3,0.2-0.6,0.5-0.9,0.8c0,0,0,0,0,0c-0.8-0.5-0.8-1.5-0.9-2.3c-0.1-0.6-0.4-0.8-0.9-0.5c-1.2,0.8,0,3.4,1.2,3.8
				c-0.3,0.5-0.5,1.1-0.6,1.6c-0.1,0.5-0.1,0.9,0.1,1.3c-0.2,0.4-0.2,0.7,0,1.1c0,0,0,0-0.1,0c-0.6,1.3-1.3,2.2-2.5,3
				c-1.1,0.7-2.3,1-3.5,1.3c0.1-1.7,0.1-3.3,0.1-5c0,0,0.1,0,0.1,0c0,0,0.1,0,0.1-0.1c0.2-0.5,0.1-1.1-0.1-1.5
				c0.2-1.1,0-2.6-0.4-3.6c-0.4-1.1-1.4-1.8-2.5-2.1c-0.4-0.3-0.8-0.7-1.2-1c-0.7-0.7-1.6-1.1-2.5-0.8c0,0,0,0,0,0
				c-0.7,0.2-1.4,0.6-2,1.1c-1.6,1.4-2.8,3.6-3,5.8c-0.1,1.2,0.3,2.3,1.2,2.9c0.3,0.3,0.7,0.5,1.1,0.7c-0.1,0.6-0.3,1.2-0.5,1.8
				c-0.1,0.3-0.1,0.5-0.2,0.8c-0.9-0.4-1.6-0.7-2.3-1.5c-0.6-0.6-1.1-1.4-1.5-2.2c0-0.1,0-0.1,0-0.2c0-0.2,0-0.4-0.2-0.6
				c0-0.1,0.1-0.1,0.1-0.2c0.3-0.6-0.2-1.5-0.6-2c-0.1-0.2-0.3-0.4-0.5-0.6C8,10,8.7,7.4,7.1,7.1c-0.9-0.2-0.4,2.6-0.8,3.1
				C6.1,10,5.6,9.8,5.1,9.8c0,0,0,0,0,0C4.8,9.3,3.5,5.9,2.6,6.9c-0.5,0.5,0,1.3,0.3,1.7c0.3,0.6,0.8,1.4,1.4,1.8c0,0,0,0.1,0,0.1
				c-0.1,0.4,0,0.8,0.1,1.2c-1,0.4-2.1-0.6-3-0.8c-0.7-0.1-0.9,0.4-0.7,1C1,12.6,1.9,13,2.7,13.2c0.5,0.1,1.6,0.3,2.1-0.2
				c0.1,0.3,0.3,0.6,0.4,0.8c0.4,0.6,1.1,0.9,1.7,0.8C7,14.8,7.1,14.9,7.3,15c0.1,0,0.1,0,0.2,0c0.8,2,2.5,3.8,4.5,4.5
				c-0.2,1.4-0.3,2.8-0.4,4.3c-0.1,1.6-0.1,3.2,0.1,4.7c0.1,0.5,0,0.8,0.4,1.2c0.4,0.3,0.8,0.6,1.2,0.8c1,0.5,2.1,0.6,3.2,0.6
				c-0.1,0.4-0.1,0.8-0.1,1.2c-2.9,0-5,2.9-5.1,5.6c-0.1,2.8,2.2,4.7,4.8,5.1c2.6,0.4,5.4-0.6,6.4-3.2c1.1-2.9,0.1-6.1-2.9-7.3
				c-0.6-0.2-1.2-0.3-1.8-0.3c0-0.4,0-0.8,0-1.2c1.3-0.2,2.6-0.6,3.7-1c0.1,0,0.1-0.1,0.1-0.1c-0.1-2.3,0-4.7,0-7
				c0-0.9,0-1.7,0.1-2.6c1.3,0.2,2.9-0.6,4-1.2c1.4-0.8,2.9-2.2,3.2-3.8c0.1,0,0.2,0,0.2-0.1c0.2-0.1,0.3-0.3,0.3-0.5
				c0.2,0,0.4,0,0.6,0c1.4-0.1,1.9-1.8,2-3c1.5,0.6,3.5-1.5,3.3-2.9C35.4,8,35,8,34.6,8.4z M31.3,7.5c0.1-0.4,0.4-1.4,0.9-1.5
				c0.9,0,0,1.6-0.1,1.9c-0.1,0.2-0.5,0.6-0.6,0.9c-0.2-0.2-0.3-0.3-0.5-0.3C31.1,8.2,31.2,7.8,31.3,7.5z M27.3,8.7
				c-0.1-0.4-0.2-0.8-0.1-1.2C27.3,7,27.9,6.7,28,7.3c0.2,0.6,0.1,2.4,1.1,2.5c-0.2,0.2-0.3,0.5-0.5,0.7
				C27.9,10.1,27.5,9.4,27.3,8.7z M21.6,9.3c0.3,1,0.2,1.9,0.4,2.9c-0.2-0.2-0.4-0.4-0.6-0.6c0-1.2-0.2-2.7-0.7-3.8
				C21.1,8.2,21.4,8.7,21.6,9.3z M20.5,7.6c0.5,1.2,0.6,2.6,0.7,3.9c-0.4-0.3-0.8-0.5-1.1-0.7c0.2-0.7,0.3-1.4,0.2-2.1
				c-0.1-0.8-0.4-1.4-0.9-1.8C19.8,7.1,20.2,7.3,20.5,7.6z M20,8.4c0.4,1.5-0.3,3.1-1.1,4.4c-0.8,1.3-1.9,2.2-3.4,2.7
				c-0.8,0.2-1.6,0.1-2.3-0.2c0.1,0,0.2,0,0.3,0c2.1-0.1,3.8-1.9,4.9-3.5c0.8-1.2,1.2-2.7,0.9-4.1c-0.1-0.4-0.3-0.9-0.6-1.3
				C19.2,6.9,19.8,7.5,20,8.4z M12.7,14.9c-2.6-0.5-1.9-3.8-1.1-5.4c0.8-1.8,2.6-4.4,4.8-4.3c0,0,0.1,0,0.1,0
				c1.2,0.3,2.2,1.7,2.4,2.8c0.2,1.2-0.2,2.4-0.8,3.4C17.1,13.1,14.9,15.2,12.7,14.9z M6.8,7.6c0.1-0.5,0.4-0.4,0.7-0.1
				c0.3,0.3,0.3,0.8,0.3,1.2c0,0.7-0.2,1.4-0.5,2.1c-0.2-0.2-0.5-0.5-0.8-0.6C7,9.6,6.7,8.4,6.8,7.6z M4.2,10.2C3.6,9.5,2,7.3,2.8,7
				c0.8-0.3,1.5,2.1,2,2.8c-0.1,0-0.2,0-0.3,0.1c0,0,0,0,0,0c0,0,0,0,0,0C4.3,9.9,4.2,10,4.2,10.2z M4,13.1c-0.4,0-0.8,0-1.2-0.1
				c-0.8-0.2-1.9-0.7-2-1.7c0-0.5,1.6,0.2,1.8,0.3c0.5,0.3,1.2,0.5,1.8,0.1c0.1,0.4,0.2,0.7,0.4,1.1C4.5,12.9,4.2,13.1,4,13.1z
				 M6.9,14.4C6.9,14.3,6.9,14.3,6.9,14.4C6.8,14.3,6.8,14.3,6.9,14.4c-0.7,0-1.4-0.5-1.7-1.1c-0.4-0.7-0.8-1.8-0.8-2.7
				c0-0.7,0.5-0.7,1.1-0.6c0.4,0.1,0.8,0.3,1.1,0.5C6.8,10.6,7,10.8,7.2,11c0,0,0,0.1,0.1,0.1c0.7,0.7,1.2,1.7,0.8,2.5
				c0,0,0,0,0,0.1c0,0,0,0,0,0c0,0.1-0.1,0.1-0.1,0.2C7.6,14.2,7.3,14.4,6.9,14.4z M7.2,14.7c-0.1-0.1-0.1-0.1-0.2-0.2
				c0.4-0.1,0.9-0.4,1.2-0.7c0.1,0.1,0.1,0.2,0.1,0.3c0,0.3-0.2,0.4-0.4,0.5C7.7,14.8,7.4,14.9,7.2,14.7z M9.5,17.6
				c-0.8-0.7-1.4-1.7-2-2.6c0.2,0,0.3-0.1,0.5-0.2c0.2-0.1,0.3-0.2,0.4-0.4c0.6,1.6,1.9,3.7,3.7,3.7c0,0.3-0.1,0.6-0.1,0.9
				c0,0.1,0,0.1,0,0.2C11.2,18.8,10.3,18.3,9.5,17.6z M16.8,36.3C16.8,36.3,16.8,36.3,16.8,36.3c-0.3,0.3-0.5,0.7-0.5,1.1
				c-0.1,0.9,0.9,1.4,1.7,1.2c1.1-0.4,0.9-2.2,0.1-2.5c0-0.6,0-1.1,0-1.7c1.5-0.1,2.5,0.9,2.8,2.2c0.4,1.5-0.2,3-1.6,3.8
				c-1.6,0.9-3.7,0.3-4.7-1.2c-1.2-1.7,0.2-4.2,2.1-4.7C16.6,35.1,16.6,35.7,16.8,36.3z M17.8,36c-0.3-0.1-0.6,0.1-0.9,0.3
				c0-0.9-0.1-1.9-0.1-2.8c0-0.8,0.1-1.6,0-2.4c0.4,0,0.7,0,1.1-0.1c-0.1,0.9-0.1,1.8-0.2,2.6C17.7,34.4,17.6,35.3,17.8,36z
				 M18.5,36.9c0.1,0.5,0,1.1-0.5,1.3c-0.6,0.4-1.5-0.1-1.4-0.8c0-0.4,0.2-0.7,0.5-0.9c0.1-0.1,0.2-0.1,0.3-0.2c0,0,0,0,0,0
				C17.9,36.1,18.3,36.3,18.5,36.9z M18,32.4c0.8,0.1,1.6,0.2,2.3,0.6c0.7,0.4,1.3,0.9,1.7,1.6c0.8,1.2,1,2.7,0.7,4.1
				c-0.3,1.4-1.1,2.6-2.3,3.4c-1,0.6-2.4,0.8-3.6,0.7c-2.5-0.1-4.8-1.7-5.1-4.3c-0.3-2.9,1.9-5.7,4.7-6c0,0.3,0,0.7,0,1
				c0,0.3,0,0.6,0,0.9c-0.8-0.1-1.5,0.5-1.9,1.1c-0.7,0.9-1,1.9-0.7,3c0.5,2.1,2.9,2.9,4.8,2.4c1.8-0.5,2.8-2.2,2.5-3.9
				c-0.3-1.6-1.4-3-3.2-2.8c0-0.2,0-0.5,0-0.7C18,33.1,18,32.7,18,32.4z M19.7,30.3c-1.3,0.3-2.5,0.5-3.8,0.4
				c-0.7,0-1.5-0.2-2.2-0.4c-0.4-0.1-0.7-0.3-1.1-0.6c-0.6-0.4-0.6-1-0.7-1.7c-0.2-2.1-0.1-4.3,0.1-6.4c0.1-1.2,0.3-2.3,0.4-3.4
				c0-0.3,0.1-0.7,0.2-1c0.2,0.4,0.4,0.7,0.6,1.1c0,0.1,0.1,0.1,0.2,0c0.3-0.3,0.5-0.6,0.8-1c0.2,0.4,0.4,0.8,0.7,1.1
				c0,0.1,0.1,0,0.2,0c0.5-0.4,0.9-0.9,1.3-1.4c0.2,0.5,0.3,1,0.5,1.6c0,0.1,0.1,0.1,0.2,0.1c0.4-0.4,0.6-1,0.9-1.5
				c0.3,0.4,0.6,0.9,1,1.2c0.1,0.1,0.2-0.1,0.1-0.2c-0.4-0.3-0.7-0.8-1-1.2c0-0.1-0.1-0.1-0.2,0c-0.4,0.4-0.6,1-0.9,1.4
				c-0.2-0.5-0.3-1.1-0.5-1.6c0-0.1-0.2-0.1-0.2,0c-0.3,0.5-0.6,0.9-1,1.2c-0.4,0.4-0.7-0.7-0.9-1c0-0.1-0.2-0.1-0.2,0
				c-0.2,0.3-0.4,0.7-0.7,1c0,0-0.5-0.7-0.7-1c0.1-0.4,0.2-0.9,0.2-1.3c0.7,0.3,1.5,0.4,2.2,0.3c1.5-0.2,2.8-1.2,3.7-2.4
				c0.2-0.3,0.4-0.6,0.6-1c0.7,0.1,1.2,0.6,1.7,1c-0.2,1.2-0.1,2.4-0.1,3.6c0,1.4-0.2,2.9-0.2,4.3c-0.1,2.9-0.3,5.8-0.3,8.7
				C20.2,30.2,20,30.2,19.7,30.3z M21.5,26.2c0,0.7-0.1,1.5,0,2.2c0,0.3,0,0.6,0,0.9c0,0.1,0,0.2,0,0.4c0,0,0,0,0,0.1
				C21.3,29.9,21,30,20.7,30c0-2.8,0.2-5.6,0.3-8.4c0-1.4,0.1-2.7,0.2-4.1c0.1-1.4,0-2.7,0-4.1c0.2,0.2,0.4,0.3,0.7,0.4
				C21.7,18,21.5,22.1,21.5,26.2z M21.7,13.5c-0.3-0.2-0.6-0.4-0.9-0.6c-0.4-0.3-0.8-0.5-1.3-0.6c0.2-0.4,0.4-0.8,0.5-1.3
				c0.9,0.5,2.4,1.3,2.2,2.5C22.2,13.9,21.9,13.6,21.7,13.5z M21.9,20.2c0-0.3,0-0.7,0-1c0.2,0,0.3,0,0.5-0.1
				c-0.3,0.3-0.3,0.7-0.2,1C22.2,20.2,22.1,20.2,21.9,20.2z M22.5,20.1C22.5,20.1,22.5,20.1,22.5,20.1c-0.2-0.3-0.1-0.8,0.1-1
				c0.3-0.1,0.5-0.1,0.8-0.2c-0.2,0.3-0.2,0.7,0,1C23.1,20,22.8,20,22.5,20.1z M23.6,19.8C23.6,19.8,23.6,19.8,23.6,19.8
				c-0.2-0.3-0.2-0.7,0-1c0.4-0.1,0.8-0.3,1.2-0.5c-0.1,0.1-0.1,0.3-0.1,0.4c0,0.1,0,0.4,0.2,0.5C24.4,19.5,24,19.7,23.6,19.8z
				 M25,19.3c0,0,0-0.1-0.1-0.1c-0.1-0.1-0.1-0.2-0.1-0.4c0-0.2,0-0.4,0.1-0.5c0.4-0.2,0.8-0.5,1.2-0.7c0,0.1,0,0.3,0,0.4
				c0,0.2,0.1,0.4,0.3,0.5C25.9,18.7,25.5,19,25,19.3z M26.6,18.3c-0.1,0-0.1-0.1-0.2-0.1c-0.1-0.1-0.1-0.2-0.2-0.3
				c0-0.1,0-0.3,0-0.4c0.3-0.2,0.5-0.4,0.7-0.7c0,0.2,0,0.4,0.1,0.6c0.1,0.2,0.2,0.3,0.3,0.3C27.1,17.9,26.8,18.1,26.6,18.3z
				 M27.5,17.4c0,0-0.1,0-0.1,0c-0.1,0-0.2-0.2-0.2-0.3c-0.1-0.2-0.1-0.4,0-0.6c0.3-0.3,0.5-0.6,0.6-1c0,0.2,0.1,0.3,0.2,0.4
				c0.1,0.2,0.4,0.2,0.6,0.2C28.3,16.6,27.9,17,27.5,17.4z M28.7,15.8C28.7,15.8,28.7,15.8,28.7,15.8c-0.1,0-0.2,0.1-0.4,0.1
				c-0.1,0-0.2-0.1-0.3-0.2c-0.1-0.2-0.2-0.4-0.2-0.6c0.1-0.2,0.1-0.4,0.2-0.5c0.1,0.2,0.3,0.4,0.5,0.5c0.1,0,0.2,0.1,0.4,0.1
				C28.9,15.4,28.8,15.6,28.7,15.8z M29.3,14.9c-0.2,0.1-0.4,0.1-0.6,0c-0.5-0.2-0.6-0.7-0.5-1.2c0.3,0.5,0.7,0.8,1.3,0.9
				C29.5,14.7,29.4,14.9,29.3,14.9z M31.9,11.9c-0.2,1.4-1,2.7-2.5,2.4c-2.2-0.4-1-3.3,0.3-4.9c0,0,0,0,0,0c0.3-0.3,0.7-0.7,1.1-0.7
				c0,0,0.1,0,0.1,0c0.2,0,0.3,0.1,0.5,0.3c0.2,0.2,0.4,0.6,0.4,0.9C32,10.5,32,11.2,31.9,11.9z M35.1,9.4c-0.1,0.4-0.5,0.8-0.8,1.1
				c-0.5,0.6-1.4,1.1-2.2,0.9c0-0.2,0-0.3,0-0.5c0-0.2,0-0.4-0.1-0.6c0.6,0,1.2-0.1,1.8-0.5c0.4-0.3,0.6-0.8,0.9-1.2
				C35.3,8,35.2,9.3,35.1,9.4z"/>
			<path class="st1" d="M15.6,10c-0.2,0.2-0.4,0.5-0.4,0.7c0,0.5,0.4,0.8,0.9,0.5c0.3-0.2,0.4-0.7,0.4-1.1
				C16.3,9.8,15.9,9.7,15.6,10C15.6,10,15.6,10,15.6,10z M16,10c0.1,0,0.2,0.1,0.2,0.3c0,0.2,0,0.5-0.2,0.7
				c-0.2,0.3-0.6,0.1-0.6-0.3C15.4,10.4,15.7,10.1,16,10z"/>
		</g>
		<g>
			<path class="st11" d="M18.7,23.4c-1-2.2-2.1-0.7-2.3,1c-0.1,1-0.4,3.4,0.7,4.1c1.2,0.8,1.6-0.2,1.8-1.3
				C19,26,19.2,24.5,18.7,23.4z"/>
		</g>
	</g>
</g>
</svg>
