<?xml version="1.0" encoding="utf-8"?>
<!-- Generator: Adobe Illustrator 20.1.0, SVG Export Plug-In . SVG Version: 6.00 Build 0)  -->
<svg version="1.1" id="Layer_1" xmlns="http://www.w3.org/2000/svg" xmlns:xlink="http://www.w3.org/1999/xlink" x="0px" y="0px"
	 viewBox="0 0 35.5 48.3" style="enable-background:new 0 0 35.5 48.3;" xml:space="preserve">
<style type="text/css">
	.st0{fill:#B7B7A1;}
	.st1{fill:#332E2B;}
	.st2{fill:#69AEB7;}
	.st3{fill:#FFFFFF;}
	.st4{fill:#9CE3E5;}
	.st5{fill:#2A5E5E;}
	.st6{fill:#B1B3B4;}
	.st7{fill:#707173;}
	.st8{fill:#408082;}
	.st9{fill:#E2D134;}
	.st10{fill:#D85C4C;}
	.st11{fill:#95D3D8;}
</style>
<g>
	<path class="st0" d="M33.9,39c0,2.3-6.8,4.2-15.2,4.2c-8.4,0-15.2-1.9-15.2-4.2c0-2.3,3.4-4.5,11.8-4.5
		C23.8,34.6,33.9,36.7,33.9,39z"/>
	<g>
		<path class="st1" d="M34.9,24.3c-0.4-0.8-1.2-1.1-2-0.9c-0.2,0-0.3,0.1-0.5,0.1c-0.2-0.3-0.6-0.4-0.8-0.7c-0.3-0.2-0.7-0.5-1-0.7
			c0-0.3-0.1-0.7-0.2-1.1c-0.7-1.5-2.3-2.3-3.6-1.1c-0.6,0.4-1,0.9-1.1,1.7c-1.8-0.1-3.6-0.1-5.5-0.1c0.1-0.2,0.2-0.4,0.1-0.6
			c0-0.3-0.2-0.6-0.4-0.8c0.2-0.3,0.2-0.6,0.1-1c0,0,0-0.1,0.1-0.2c1.4,0,2.7,0,4.1,0c0.1,0,0.2-0.1,0.2-0.2c0-2.9,0.6-5.8,0.5-8.7
			c0-0.1-0.1-0.1-0.1-0.1c-1.2-0.1-2.4-0.1-3.6,0c-0.4-1.2-1.4-2.1-2.7-2.1c0,0,0,0,0,0c-0.1-0.4,0-0.9,0-1.3
			c0.5-0.2,0.6-0.8,0.3-1.2c-0.2-0.3-0.8-0.5-1-0.1c-0.1,0.1-0.2,0.3-0.2,0.5c0,0.4,0.2,0.8,0.7,0.8c0,0.4,0,0.9,0.1,1.3
			c-1.4,0-2.3,0.8-3,2c0,0,0,0,0,0c-1.1,0-2.1-0.1-3.2-0.1c-0.1,0-0.2,0.2-0.1,0.2c-0.2,2.9-0.2,5.8-0.1,8.7c0,0.1,0.1,0.1,0.1,0.1
			c1.4,0,2.9,0,4.3,0.1c-0.1,0.2,0,0.4,0.2,0.6c-0.3,0-0.3,0.3-0.1,0.5c0,0.1,0.1,0.1,0.2,0.2c-0.5,0.2-0.4,1,0,1.5
			c-1.8,0-3.6,0.1-5.4,0c0-0.2-0.1-0.4-0.2-0.6C10,19.5,8.4,18.7,7,20c-0.7,0.4-1.1,1.1-1.1,2c0,0.1,0,0.2,0,0.2
			c-0.4,0.2-0.8,0.6-1.1,0.9c-0.4,0.4-0.9,0.6-1.2,1.1C3.2,24,2.8,24,2.4,24.1c-1.9,0.1-1.5,3.2,0.4,3.2c0.3,0,0.6-0.1,0.9-0.3
			c0.3,0.3,0.7,0.5,1.1,0.7c0.3,0.2,0.8,0.4,1.2,0.5c0.1,0.8,0.6,1.7,1.6,1.6c0.5,0,1.1-0.3,1.4-0.8c-0.1,0.9-0.3,1.7-0.4,2.6
			c0,0,0,0,0,0c-0.1-0.3-0.2-0.7-0.4-0.9c-0.4-0.3-0.8-0.4-1.2-0.4c-0.7,0-1.5,0.4-2.1,0.8c-0.7,0.5-1.3,1.3-1.1,2.1
			c0.2,1.2,0.9,2.3,1.5,3.3c0.4,0.7,1,1.6,1.9,1.7c0.5,0.1,1.5,0.2,1.7-0.3c0.5-1.2,0.2-2.7,0.1-4c0-0.2-0.1-0.4-0.1-0.6
			c1.3,0.3,2.6,0.3,3.9,0.3c2,0.1,4.1,0.1,6.1,0.1c2.8,0,5.8,0.2,8.6-0.3c0,0.1,0,0.2,0,0.3c-0.2,1.2-0.3,2.6,0,3.8
			c0.2,0.7,1.2,0.5,1.7,0.5c0.8-0.1,1.4-0.9,1.8-1.5c0.7-1.1,1.4-2.2,1.6-3.5c0.2-0.9-0.4-1.6-1.1-2.1c-0.5-0.4-1.3-0.9-2.1-0.8
			c-0.4-0.1-0.8,0-1.1,0.3c-0.4,0.4-0.6,1-0.7,1.7c0-1.4-0.1-2.7-0.1-4.1c0,0,0,0,0,0c0.6,1,2.2,0.8,2.8,0c0.1-0.2,0.2-0.4,0.3-0.5
			c0.6-0.3,1.3-0.7,1.9-1.1c0.2,0.1,0.5,0.2,0.7,0.2C34.3,26.4,35.3,25.3,34.9,24.3z M9.2,27.6C9.2,27.6,9.2,27.5,9.2,27.6
			c-0.4-0.9-1.2-1.2-2-1c-0.4,0-0.6,0.2-0.8,0.4c-0.3-0.2-0.6-0.3-0.9-0.5c-0.3-0.2-0.6-0.4-0.9-0.6c0.1-0.3,0.1-0.5,0-0.8
			c0.3-0.1,0.6-0.4,0.9-0.6c0.3-0.3,0.7-0.6,1-0.9c0.5,0.7,1.3,1,2.2,0.9c0.4-0.1,0.8-0.2,1.1-0.4C9.5,25.2,9.4,26.4,9.2,27.6z
			 M31.1,25.6c-0.3,0.2-0.6,0.5-1,0.5c-0.8-0.6-2.1-0.7-2.5,0.3c-0.1,0.1-0.1,0.2-0.1,0.3c-0.1-0.8-0.2-1.5-0.3-2.3
			c0.3,0.1,0.7,0.1,1,0.1c0.8-0.1,1.5-0.5,1.9-1.1c0.3,0.2,0.5,0.4,0.8,0.6c0.2,0.2,0.5,0.4,0.8,0.5c0,0.2,0,0.5,0,0.8
			C31.5,25.3,31.3,25.5,31.1,25.6z"/>
		<path class="st2" d="M18.1,15.8c1.7,0.1,2.9,1.2,3.4,2.8c0.8,0,1.5,0,2.3,0.1c0.1-1.4,0.1-2.8,0.2-4.2c0.1-1,0.2-2,0.2-3.1
			c0-0.2,0.1-1.2-0.1-1.2c-0.4,0-0.9,0-1.3,0c-1.8,0-3.7,0.2-5.5,0c-1.8-0.2-3.7-0.1-5.5-0.2c0.2,1.7,0,3.4,0,5
			c0,1.1,0.1,2.1,0.1,3.2c0,0.1,0,0.2,0,0.3c0.1,0,0.3,0,0.4,0c0.7,0,1.4,0,2.1,0c0,0,0,0,0,0C15.2,17.2,16.4,15.7,18.1,15.8z
			 M19.3,12.8c0.1-0.8,0.5-1.3,1.1-1.6c2.3-1.3,3.5,3.6,0.7,3.6C19.9,14.9,19.2,13.9,19.3,12.8z M13.4,12.8c0.1-0.8,0.5-1.3,1.1-1.6
			c2.3-1.3,3.5,3.6,0.7,3.6C14.1,14.9,13.3,13.9,13.4,12.8z"/>
		<path class="st3" d="M15.7,17.2c-0.4,0.4-0.7,0.9-1,1.4c0.3,0,0.6,0,0.9,0c0-0.2,0-0.4,0-0.6C15.7,17.7,15.7,17.5,15.7,17.2z"/>
		<path class="st1" d="M15.1,13.2c-0.2,0-0.3,0-0.5,0c0,0.3,0.2,0.6,0.6,0.6c0.4,0,0.5-0.3,0.5-0.6C15.5,13.2,15.3,13.2,15.1,13.2z"
			/>
		<path class="st4" d="M16.6,13c0-0.2,0-0.3-0.1-0.5c-0.3-1-1-1.4-1.8-1.1c-0.6,0.2-1.1,0.8-1,1.6c0,0,0,0.1,0,0.1
			c0.6,0,1.2-0.1,1.8-0.1C15.9,12.9,16.3,12.9,16.6,13z"/>
		<path class="st1" d="M21.1,13.8c0.1,0,0.3-0.1,0.4-0.2c0.1-0.1,0.1-0.2,0.1-0.3c-0.2,0-0.5-0.1-0.7-0.1c-0.1,0-0.2,0-0.3,0
			C20.6,13.5,20.8,13.8,21.1,13.8z"/>
		<path class="st4" d="M22.5,13.2c0-0.2,0-0.5-0.1-0.7c-0.3-1-1-1.4-1.8-1.1c-0.6,0.2-1.1,0.8-1,1.6c0,0,0,0,0,0
			C20.4,12.9,21.6,12.8,22.5,13.2z"/>
		<path class="st3" d="M20.9,14.6c0.8,0,1.4-0.6,1.6-1.3c-0.2,0-0.4,0-0.6,0c0,0.2-0.1,0.4-0.2,0.5c-0.1,0.2-0.4,0.3-0.6,0.3
			c-0.2,0-0.4-0.1-0.6-0.3c-0.1-0.2-0.1-0.4-0.1-0.6c-0.3,0-0.6,0-0.9,0C19.7,13.9,20.1,14.6,20.9,14.6z"/>
		<path class="st5" d="M4.4,25c0.3-0.3,0.7-0.5,1-0.8c0.3-0.2,0.5-0.5,0.9-0.7c-0.2-0.3-0.3-0.7-0.4-1c-0.7,0.7-1.5,1.2-2.3,1.8
			C4,24.4,4.2,24.6,4.4,25z"/>
		<path class="st2" d="M8.4,24.1c1.6-0.2,2.7-1.5,1.9-3.1c-0.4-0.9-1.2-1.4-2-1.4c-1.1,0.2-2.1,1-2.1,2.2C6.2,23.2,7,24.3,8.4,24.1z
			"/>
		<path class="st5" d="M17.7,20.7c0.8,0.2,2-0.3,1.9-1.3c-0.5,0.5-1.6,0.6-2.2,0.6c-0.3,0-0.8-0.2-1.1-0.5c0,0,0,0,0,0
			C16,19.8,17.5,20.6,17.7,20.7z"/>
		<path class="st5" d="M16.8,21.6c0.3,0,0.6,0,0.9,0c0.7,0,1.4,0,2.1,0c0.1-0.2,0.3-0.5,0.2-0.7c-0.1-0.2-0.1-0.4-0.2-0.5
			c-0.5,0.6-1.4,0.9-2.2,0.6c-0.4-0.1-0.7-0.4-1.1-0.6c-0.2,0.2-0.3,0.4-0.2,0.7C16.4,21.3,16.5,21.5,16.8,21.6z"/>
		<path class="st3" d="M16.8,17.7c0-0.4,0-0.8,0-1.3c-0.4,0.2-0.7,0.4-1,0.7c0,0.3,0,0.5,0.1,0.8c0,0.2,0,0.4,0,0.6
			c0.3,0,0.6,0,0.9,0C16.8,18.3,16.8,18,16.8,17.7z"/>
		<path class="st5" d="M31,23.7c0.2,0.2,0.5,0.3,0.7,0.5c0.1-0.3,0.3-0.5,0.5-0.7c-0.4-0.2-0.7-0.5-1-0.8c-0.2-0.2-0.5-0.3-0.7-0.5
			c0,0.4-0.1,0.7-0.3,1C30.5,23.4,30.7,23.5,31,23.7z"/>
		<path class="st6" d="M28.6,31.6c0.1-0.1,0.2-0.2,0.3-0.3c0.1-0.1,0.4-0.2,0.5,0c0.2,0.2,0.2,0.4,0.2,0.6c0,0.9,0.8,0.1,1.1-0.1
			c0.1,0,0.1,0,0.2,0.1c0.1,0.2,0.1,0.2,0.1,0.4c0,0.5,0.2,0.2,0.4,0c0.1-0.1,0.2-0.1,0.3-0.1c0.4,0.1,0.3,0.9,0.7,0.7
			c0.1-1.7-1.8-2.5-3.3-2.6c0,0,0,0,0,0c-0.1,0-0.3,0.1-0.4,0.2c-0.3,0.2-0.4,0.4-0.5,0.7C28.3,31.5,28.4,31.9,28.6,31.6z"/>
		<path class="st7" d="M28.8,33.8c0.1-0.1,0.3-0.1,0.5,0c0.2,0.1,0.2,0.4,0.2,0.6c0,0.8,0.6,0.1,1,0.1c0.1,0,0.1,0,0.1,0.1
			c0,0,0.1,0.6,0.1,0.5c0.2-0.1,0.3-0.2,0.5-0.2c0.1,0,0.2,0,0.2,0.1c0,0.1,0.1,0.1,0.1,0.2c0.3-0.6,0.7-1.2,0.8-1.9c0,0,0,0,0,0
			c-0.2,0.1-0.4,0.3-0.5,0.1c-0.1-0.2,0-0.4-0.1-0.6c-0.1-0.3-0.7,0.2-0.8,0.2c-0.1,0-0.1,0-0.2-0.1c0-0.2,0-0.3-0.1-0.5
			c0-0.4-0.4,0.1-0.4,0.1c-0.2,0.1-0.3,0.2-0.5,0.2c-0.4,0-0.4-0.5-0.4-0.8c0-0.9-0.6,0-1.1-0.1c-0.1,0-0.2-0.1-0.2-0.2
			c0,0.1,0,0.1,0,0.2c-0.1,0.6-0.2,1.2-0.3,1.9c0,0,0,0.1,0,0.1C28,34.5,28.5,34,28.8,33.8z"/>
		<path class="st2" d="M28,24.1c1.6-0.2,2.7-1.5,1.9-3.1c-0.4-0.9-1.2-1.4-2-1.4c-1.1,0.2-2.1,1-2.1,2.2
			C25.7,23.2,26.6,24.3,28,24.1z"/>
		<path class="st6" d="M28.1,36.2c0.1-0.1,0.3-0.2,0.4-0.1c0.1,0,0.3,0.1,0.3,0.2c0,0.1,0.1,0.1,0.1,0.2c0.1,0.4,0.6,0.4,0.9,0.2
			c0.1,0,0.1,0,0.2,0c0.1,0.2,0.2,0.4,0.2,0.5c0.4-0.4,0.7-1,0.9-1.5c0-0.1,0.1-0.2,0.1-0.3c-0.1-0.1-0.1-0.1-0.2-0.3
			c-0.2,0.1-0.7,0.4-0.7,0c-0.1-0.2,0-0.6-0.3-0.3c-0.1,0.1-0.2,0.2-0.3,0.2c-0.1,0-0.3,0-0.4-0.1c-0.1-0.2,0-1.2-0.6-0.9
			c-0.2,0.1-0.4,0.3-0.7,0.3c-0.2,0-0.3-0.1-0.4-0.3c0,0.3-0.1,0.6-0.1,0.8c0,0.3-0.1,0.7-0.1,1.1C27.7,36.2,27.8,36.3,28.1,36.2z"
			/>
		<path class="st7" d="M29.1,37.1c-0.1-0.1-0.3-0.2-0.3-0.3c-0.1-0.1-0.1-0.6-0.4-0.5c-0.1,0-0.2,0.1-0.3,0.1
			c-0.2,0.1-0.4,0.1-0.5,0c0,0.4,0.1,0.8,0.2,1.1c0.2,0.5,1.5,0.4,1.9,0.2c0.2-0.1,0.3-0.2,0.4-0.3c-0.1-0.1-0.2-0.3-0.2-0.4
			C29.7,37.1,29.4,37.2,29.1,37.1z"/>
		<path class="st2" d="M4.3,25c-0.2-0.3-0.5-0.5-0.8-0.7c0,0,0,0,0,0c-0.5-0.2-1.2-0.1-1.7,0.3c-0.2,0.2-0.3,0.6-0.3,1
			C1.5,26.2,2,27,2.7,27C3.6,27,4.8,26,4.3,25z"/>
		<path class="st3" d="M18.3,5.5c-0.2-0.2-0.4-0.4-0.7-0.2c-0.3,0.3-0.1,1.2,0.3,1.1C18.4,6.2,18.5,5.8,18.3,5.5z"/>
		<path class="st3" d="M19.1,16.3c0.1,0.4,0.1,0.8,0.1,1.3c0,0.3,0.1,0.7,0,1.1c0.3,0,0.6,0,1,0c-0.1-0.5,0-1.2,0.1-1.7
			C19.9,16.7,19.5,16.4,19.1,16.3z"/>
		<path class="st8" d="M20.7,10c-0.5-1.2-1.6-2-2.9-1.9c-1.2,0.1-1.9,0.9-2.5,1.8c1,0,2,0.1,3,0.1C19,10.1,19.8,10,20.7,10z"/>
		<path class="st3" d="M18.9,16.2c-0.3-0.1-0.6-0.1-0.9-0.1c0.1,0.8,0.1,1.7,0,2.5c0.3,0,0.6,0,0.9,0c0-0.4,0-0.7,0-1.1
			C19,17.1,18.9,16.7,18.9,16.2z"/>
		<path class="st3" d="M20.3,17.9c0,0.2,0,0.5,0,0.7c0.3,0,0.7,0,1,0c-0.3-0.6-0.6-1.1-1-1.5C20.3,17.4,20.3,17.7,20.3,17.9z"/>
		<path class="st3" d="M17.8,18.6c0.1-0.8,0-1.7,0.1-2.5c-0.4,0-0.7,0.1-1,0.2c0,0.4,0,0.9,0.1,1.3c0,0.3,0,0.6,0,0.9
			C17.3,18.6,17.5,18.6,17.8,18.6z"/>
		<path class="st5" d="M18.1,19.7c0.6-0.1,1.1-0.2,1.5-0.7c-1.1,0-2.1-0.1-3.2-0.1C16.2,19.7,17.6,19.8,18.1,19.7z"/>
		<path class="st3" d="M15.9,13.2c0.1,0.4-0.3,0.9-0.7,0.9c-0.5,0-0.8-0.4-0.7-0.8c-0.3,0-0.5,0-0.8,0c0.1,0.7,0.5,1.4,1.3,1.4
			c0.9,0,1.5-0.7,1.6-1.5C16.4,13.2,16.2,13.2,15.9,13.2z"/>
		<path class="st9" d="M12.7,25.7c0.1-0.1,0.2-0.1,0.2-0.2c0,0,0.1-0.1,0.1-0.1c0,0,0,0,0,0c0-0.4,0-0.8,0-1.2c0,0,0,0,0,0
			c0,0,0,0,0-0.1c0,0,0,0,0,0c-0.1-0.1-0.2-0.2-0.4-0.3C12.7,24.5,12.7,25.1,12.7,25.7z"/>
		<path class="st10" d="M23,23.5c-0.3,0-0.5,0.2-0.7,0.5c-0.1,0.3-0.2,0.7,0.1,1c0.4,0.3,1.1,0,1.3-0.4C24,24,23.5,23.6,23,23.5z"/>
		<path class="st1" d="M22.3,29.2c-0.2,0-0.3,0.1-0.4,0.3c-0.1,0.2,0.1,0.3,0.3,0.3c0.2,0,0.3-0.1,0.3-0.3
			C22.6,29.3,22.4,29.3,22.3,29.2z"/>
		<path class="st11" d="M12.4,30.5c-0.2,0-0.5,0-0.7,0c-0.2,0-0.3,0-0.5,0.1c-0.1,0-0.1,0-0.1,0c0,0.1,0,0.2,0.1,0.3
			c0.4,0,0.9,0,1.3-0.1C12.4,30.7,12.4,30.6,12.4,30.5z"/>
		<path class="st8" d="M27.3,28.7c0-0.9-0.1-1.8-0.2-2.7c-0.1-0.6-0.2-1.1-0.1-1.7c-0.9-0.3-1.6-1.2-1.5-2.3c0,0,0,0,0-0.1
			c-2.7-0.1-5.3-0.1-8,0c-0.2,0-0.4,0-0.5,0c-0.1,0-0.1,0-0.2,0c-1.2,0-2.4,0-3.6,0c-0.7,0-1.5,0-2.2-0.1c0.1,0.9-0.3,1.7-1.1,2.2
			c0.1,1.5-0.2,3-0.5,4.4c-0.3,1.5-0.4,3-0.5,4.6c0,0,0,0.1,0,0.1c3.3,0.1,6.7,0.3,10,0.3c2.8,0,5.8,0.2,8.6-0.3
			C27.1,31.8,27.3,30.2,27.3,28.7z M19.6,23.6C19.6,23.6,19.6,23.6,19.6,23.6c0.1,0,0.1,0,0.2-0.1c0,0,0,0,0,0
			c0.4,0,0.7,0.2,0.8,0.6c0.2,0.6-0.1,1.3-0.8,1.4c-0.6,0.1-1-0.3-1-0.8C18.8,24.3,19.1,23.8,19.6,23.6z M12.5,23.8
			C12.5,23.8,12.5,23.8,12.5,23.8c0-0.1,0-0.1,0.1-0.1c0.7-0.1,1.4,0,2.1,0c0,0,0,0,0,0c0.1,0.7,0.2,1.3,0.2,2c0,0,0,0.1-0.1,0.1
			c-0.8,0.1-1.5,0.2-2.3,0.2c-0.1,0-0.1-0.1-0.1-0.1C12.5,25.2,12.5,24.5,12.5,23.8C12.6,23.9,12.6,23.9,12.5,23.8z M23.7,32.1
			c-2.2,0.3-4.5,0.2-6.7,0.1c-1.7,0-3.4,0-5-0.1c0,0-0.1,0-0.1-0.1c-0.1-0.3,0-0.6,0-0.9c-0.3,0-0.5,0-0.8-0.1c0,0-0.1,0-0.1-0.1
			c0-0.2,0-0.3,0-0.5c0,0,0-0.1,0-0.1c0.1-0.2,0.5-0.2,0.7-0.2c0,0,0.1,0,0.1,0c0-0.2,0-0.3,0-0.5c0-0.1,0-0.2,0-0.3
			c-0.2,0-0.5,0-0.7-0.1c0,0-0.1,0-0.1-0.1c0-0.2,0-0.3,0-0.5c0,0,0-0.1,0-0.1c0.1-0.2,0.5-0.2,0.7-0.2c0,0,0.1,0,0.1,0
			c-0.1-0.3-0.1-0.6-0.2-1c0-0.1,0-0.2,0.1-0.2c4,0.1,8,0,11.9-0.1c0.1,0,0.1,0.1,0.1,0.1c-0.1,1.5,0,3,0.1,4.5
			C23.8,32,23.7,32.1,23.7,32.1z M23.9,24.6c-0.2,0.5-1,1-1.6,0.7c-0.5-0.3-0.5-0.9-0.3-1.4c0.3-0.5,0.8-0.6,1.3-0.4
			C23.8,23.6,24.1,24,23.9,24.6z"/>
		<path class="st11" d="M12.4,28.8c-0.2,0-0.5,0-0.7,0c-0.2,0-0.3,0-0.5,0.1c-0.1,0-0.1,0-0.1,0c0,0.1,0,0.2,0.1,0.3
			c0.4,0,0.9,0,1.3-0.1C12.4,29,12.4,28.9,12.4,28.8z"/>
		<path class="st2" d="M23.5,30.8c-0.1-0.8-0.1-1.6,0-2.4c0-0.2,0-0.5,0-0.7c-3.9,0.1-7.8,0.2-11.6,0.1c0,0.3,0.1,0.6,0.1,0.9
			c0.2,0,0.4,0,0.6,0c0.1,0,0.1,0.1,0.1,0.1c0,0.2,0,0.4,0,0.6c0,0,0,0.1-0.1,0.1c-0.2,0-0.4,0.1-0.7,0.1c0.1,0.1,0.1,0.2,0.1,0.3
			c0,0.2,0,0.3-0.1,0.5c0.2,0,0.4,0,0.6,0c0.1,0,0.1,0.1,0.1,0.1c0,0.2,0,0.4,0,0.6c0,0,0,0.1-0.1,0.1c-0.2,0-0.4,0-0.5,0.1
			c0,0.2,0,0.8,0,0.8c0,0,0,0,0,0c0.1,0,0.2,0,0.3,0c2.9,0.1,5.8,0.2,8.7,0.1c0.8,0,1.7,0,2.5-0.2c0,0,0,0,0.1,0c0-0.1,0-0.2,0-0.2
			C23.5,31.3,23.5,31.1,23.5,30.8z M22.2,30.1c-0.3,0-0.6-0.3-0.5-0.6c0.1-0.2,0.3-0.4,0.5-0.4c0,0,0,0,0,0c0.3-0.1,0.5,0.2,0.5,0.5
			C22.8,29.8,22.5,30.1,22.2,30.1z"/>
		<path class="st5" d="M4.5,26c-0.1,0.3-0.3,0.6-0.6,0.9c0.4,0.2,0.8,0.5,1.2,0.7c0.3,0.1,0.6,0.2,0.9,0.4c0-0.3,0.1-0.5,0.2-0.7
			C5.6,26.9,4.9,26.5,4.5,26z"/>
		<path class="st2" d="M32.2,23.8c-0.2,0.2-0.3,0.6-0.3,1c0.1,0.6,0.5,1.4,1.2,1.4c0.9,0,2.2-1,1.6-2C34.1,23.3,33,23.3,32.2,23.8z"
			/>
		<path class="st2" d="M29.4,26c-0.6-0.2-1.1,0-1.5,0.3c-0.4,0.5-0.4,1.3,0.1,1.8c0.7,0.6,2.1,0.4,2.4-0.6
			C30.5,26.8,30,26.2,29.4,26z"/>
		<path class="st5" d="M31.8,25.4c-0.2,0.2-0.6,0.4-0.8,0.6c-0.2,0.1-0.4,0.3-0.7,0.3c0.2,0.3,0.4,0.6,0.4,0.9
			c0.6-0.3,1.1-0.7,1.7-1C32.1,26,31.9,25.7,31.8,25.4z"/>
		<path class="st2" d="M9.2,28c0-0.1-0.1-0.3-0.1-0.4c-0.6-0.9-1.7-1-2.5-0.4c0,0,0,0,0,0c0,0,0,0.1-0.1,0.1
			c-0.1,0.2-0.2,0.5-0.2,0.8c0.1,0.6,0.5,1.4,1.2,1.4c0.6,0,1.4-0.4,1.6-1C9.1,28.3,9.2,28.1,9.2,28z"/>
		<path class="st7" d="M5.6,34.5c0.1-0.1,0.1-0.2,0.2-0.3c0.1-0.1,0.1-0.2,0.2-0.3c0.1-0.1,0.4,0,0.6,0.1c0.7,0.3,0.8-0.2,1.4-0.3
			c0.1,0,0.2,0,0.3,0.1c0.1,0,0.3,0,0.5-0.1c-0.1-0.7-0.2-1.3-0.3-2c0,0-0.1,0-0.1,0c-0.5-0.1-0.7,0.1-0.9,0.5c0,0.1-0.1,0.1-0.2,0
			c-0.3-0.3-0.6-0.6-0.7,0.1c0,0.1,0,0.2-0.1,0.3c-0.2,0.2-0.8,0-1,0c-0.4,0-0.6,0.6-1.1,0.6c-0.1,0-0.1,0-0.2,0
			c0,0.1,0,0.3,0.1,0.4c0.1,0.3,0.2,0.6,0.3,0.8C4.8,34.8,5.2,35.1,5.6,34.5z"/>
		<path class="st1" d="M19.7,25.4c0.5-0.1,0.9-0.6,0.8-1.1c0-0.2-0.1-0.4-0.4-0.5c-0.2-0.1-0.4,0-0.7,0.1c-0.3,0.2-0.4,0.5-0.4,0.9
			C19.1,25,19.3,25.5,19.7,25.4z"/>
		<path class="st7" d="M8.3,36.2c-0.2-0.2-0.3,0.5-0.4,0.5c-0.1,0.1-0.3,0.1-0.4,0c-0.3-0.1-0.8-0.6-0.9,0.1c0,0.2-0.1,0.3-0.3,0.4
			c-0.1,0-0.2,0-0.2,0c0.3,0.4,0.6,0.6,1,0.7c0.5,0.1,1.6,0.2,1.7-0.4c0.1-0.3,0.1-0.7,0.1-1C8.7,36.6,8.5,36.4,8.3,36.2z"/>
		<path class="st6" d="M5,32.5c0.2-0.1,0.3-0.1,0.5-0.1c0.6,0.1,0.6,0.1,0.8-0.4c0.1-0.2,0.1-0.3,0.3-0.4C7,31.5,7,32.3,7.4,31.8
			c0.3-0.4,0.6-0.2,0.9-0.2c-0.1-0.4-0.3-0.9-0.8-1c-0.1,0-0.1,0-0.2,0c-1.4,0.2-3.2,0.9-3.3,2.5C4.4,33.3,4.7,32.7,5,32.5z"/>
		<path class="st6" d="M8.7,34c-0.1,0.1-0.2,0.1-0.3,0.1c-0.2,0-0.6-0.2-0.8-0.1c-0.3,0.2-0.4,0.5-0.8,0.4c-0.5-0.1-0.6-0.4-1,0.1
			C5.7,34.7,5.6,35,5.4,35c-0.3,0.1-0.5,0-0.7-0.2c0.2,0.4,0.4,0.8,0.7,1.3c0.1,0.2,0.3,0.6,0.5,0.9c0.2,0.2,0.5,0.2,0.5-0.1
			c0-0.1,0-0.1,0-0.2c0-0.1,0.1-0.3,0.2-0.3c0.3-0.1,0.6,0,0.8,0.2c0.4,0.3,0.4-0.5,0.7-0.6c0.3-0.1,0.4,0.4,0.7,0.4
			c0-0.5,0-1-0.1-1.4C8.8,34.6,8.8,34.3,8.7,34z"/>
		<path class="st9" d="M14.4,25.4c-0.4,0-0.8,0.1-1.2,0.2c-0.1,0.1-0.2,0.2-0.3,0.3c0.4,0,0.9,0,1.3-0.1c0.1,0,0.3,0,0.4,0
			c0,0-0.1-0.1-0.1-0.1C14.5,25.5,14.4,25.4,14.4,25.4z"/>
		<path class="st9" d="M13.2,24.1c0.1,0,0.3,0,0.3,0c0.2,0,0.5,0,0.7,0c0,0,0,0,0,0c0-0.1,0.1-0.1,0.2-0.2c0,0,0,0,0,0
			c-0.3-0.1-1.3,0-1.7,0C12.9,23.9,13.1,24,13.2,24.1C13.2,24.1,13.2,24.1,13.2,24.1z"/>
		<path class="st9" d="M14.3,25.2c0-0.3,0-0.6-0.1-0.9c-0.2,0-0.4,0-0.5,0c-0.1,0-0.3,0-0.4,0c0,0-0.1,0-0.1,0
			c0.1,0.3,0.1,0.7,0.1,1C13.6,25.2,13.9,25.2,14.3,25.2z"/>
		<path class="st9" d="M14.4,24.1C14.4,24.1,14.4,24.1,14.4,24.1c0,0.4,0.1,0.8,0.1,1.1c0,0,0,0,0,0c0.1,0.1,0.1,0.1,0.2,0.2
			c0,0,0.1,0.1,0.1,0.1c0,0,0,0,0,0c0-0.5,0-1.1-0.1-1.6c0,0,0,0,0,0c0,0-0.1,0-0.1,0.1C14.5,24,14.4,24.1,14.4,24.1z"/>
		<path class="st1" d="M14.5,11.3c-0.6,0.2-1,0.8-1.1,1.6c-0.1,1,0.6,2.1,1.7,2.1C18,14.8,16.8,10,14.5,11.3z M13.7,12.9
			c0-0.8,0.4-1.3,1-1.6c0.9-0.2,1.6,0.1,1.8,1.1c0,0.2,0.1,0.3,0.1,0.5c-0.4-0.1-0.8-0.1-1.1-0.1C14.9,13,14.3,13,13.7,12.9
			C13.7,13,13.7,13,13.7,12.9z M15.7,13.2c0,0.3-0.1,0.6-0.5,0.6c-0.4,0-0.5-0.3-0.6-0.6c0.2,0,0.3,0,0.5,0
			C15.3,13.2,15.5,13.2,15.7,13.2z M15,14.6c-0.8,0-1.2-0.7-1.3-1.4c0.3,0,0.5,0,0.8,0c-0.1,0.4,0.3,0.8,0.7,0.8
			c0.5,0,0.8-0.4,0.7-0.9c0.2,0,0.5,0,0.7,0C16.5,14,15.9,14.6,15,14.6z"/>
		<path class="st1" d="M21,14.9c2.8-0.1,1.6-5-0.7-3.6c-0.6,0.2-1,0.8-1.1,1.6C19.2,13.9,19.9,14.9,21,14.9z M19.5,12.9
			c0-0.8,0.4-1.3,1-1.6c0.9-0.2,1.6,0.1,1.8,1.1c0.1,0.2,0.1,0.5,0.1,0.7C21.6,12.8,20.4,12.9,19.5,12.9
			C19.5,13,19.5,12.9,19.5,12.9z M21.6,13.3c0,0.1,0,0.2-0.1,0.3c-0.1,0.1-0.2,0.2-0.4,0.2c-0.4,0-0.5-0.3-0.6-0.6
			c0.1,0,0.2,0,0.3,0C21.1,13.2,21.4,13.3,21.6,13.3z M20.4,13.2c-0.1,0.2,0,0.4,0.1,0.6c0.1,0.2,0.3,0.3,0.6,0.3
			c0.2,0,0.4-0.1,0.6-0.3c0.1-0.1,0.2-0.3,0.2-0.5c0.2,0,0.4,0,0.6,0c-0.1,0.7-0.7,1.3-1.6,1.3c-0.8,0-1.2-0.7-1.3-1.4
			C19.9,13.2,20.1,13.2,20.4,13.2z"/>
		<path class="st1" d="M32.9,23.3c-0.2,0-0.3,0.1-0.5,0.1c-0.2-0.3-0.6-0.4-0.8-0.7c-0.3-0.2-0.7-0.5-1-0.7c0-0.3-0.1-0.7-0.2-1.1
			c-0.7-1.5-2.3-2.3-3.6-1.1c-0.6,0.4-1,0.9-1.1,1.7c-1.8-0.1-3.6-0.1-5.5-0.1c0.1-0.2,0.2-0.4,0.1-0.6c0-0.3-0.2-0.6-0.4-0.8
			c0.2-0.3,0.2-0.6,0.1-1c0,0,0-0.1,0.1-0.2c1.4,0,2.7,0,4.1,0c0.1,0,0.2-0.1,0.2-0.2c0-2.9,0.6-5.8,0.5-8.7c0-0.1-0.1-0.1-0.1-0.1
			c-1.2-0.1-2.4-0.1-3.6,0c-0.4-1.2-1.4-2.1-2.7-2.1c0,0,0,0,0,0c-0.1-0.4,0-0.9,0-1.3c0.5-0.2,0.6-0.8,0.3-1.2
			c-0.2-0.3-0.8-0.5-1-0.1c-0.1,0.1-0.2,0.3-0.2,0.5c0,0.4,0.2,0.8,0.7,0.8c0,0.4,0,0.9,0.1,1.3c-1.4,0-2.3,0.8-3,2c0,0,0,0,0,0
			c-1.1,0-2.1-0.1-3.2-0.1c-0.1,0-0.2,0.2-0.1,0.2c-0.2,2.9-0.2,5.8-0.1,8.7c0,0.1,0.1,0.1,0.1,0.1c1.4,0,2.9,0,4.3,0.1
			c-0.1,0.2,0,0.4,0.2,0.6c-0.3,0-0.3,0.3-0.1,0.5c0,0.1,0.1,0.1,0.2,0.2c-0.5,0.2-0.4,1,0,1.5c-1.8,0-3.6,0.1-5.4,0
			c0-0.2-0.1-0.4-0.2-0.6C10,19.5,8.4,18.7,7,20c-0.7,0.4-1.1,1.1-1.1,2c0,0.1,0,0.2,0,0.2c-0.4,0.2-0.8,0.6-1.1,0.9
			c-0.4,0.4-0.9,0.6-1.2,1.1C3.2,24,2.8,24,2.4,24.1c-1.9,0.1-1.5,3.2,0.4,3.2c0.3,0,0.6-0.1,0.9-0.3c0.3,0.3,0.7,0.5,1.1,0.7
			c0.3,0.2,0.8,0.4,1.2,0.5c0.1,0.8,0.6,1.7,1.6,1.6c0.5,0,1.1-0.3,1.4-0.8c-0.1,0.9-0.3,1.7-0.4,2.6c0,0,0,0,0,0
			c-0.1-0.3-0.2-0.7-0.4-0.9c-0.4-0.3-0.8-0.4-1.2-0.4c-0.7,0-1.5,0.4-2.1,0.8c-0.7,0.5-1.3,1.3-1.1,2.1c0.2,1.2,0.9,2.3,1.5,3.3
			c0.4,0.7,1,1.6,1.9,1.7c0.5,0.1,1.5,0.2,1.7-0.3c0.5-1.2,0.2-2.7,0.1-4c0-0.2-0.1-0.4-0.1-0.6c1.3,0.3,2.6,0.3,3.9,0.3
			c2,0.1,4.1,0.1,6.1,0.1c2.8,0,5.8,0.2,8.6-0.3c0,0.1,0,0.2,0,0.3c-0.2,1.2-0.3,2.6,0,3.8c0.2,0.7,1.2,0.5,1.7,0.5
			c0.8-0.1,1.4-0.9,1.8-1.5c0.7-1.1,1.4-2.2,1.6-3.5c0.2-0.9-0.4-1.6-1.1-2.1c-0.5-0.4-1.3-0.9-2.1-0.8c-0.4-0.1-0.8,0-1.1,0.3
			c-0.4,0.4-0.6,1-0.7,1.7c0-1.4-0.1-2.7-0.1-4.1c0,0,0,0,0,0c0.6,1,2.2,0.8,2.8,0c0.1-0.2,0.2-0.4,0.3-0.5c0.6-0.3,1.3-0.7,1.9-1.1
			c0.2,0.1,0.5,0.2,0.7,0.2c1,0,2-1.2,1.6-2.2C34.5,23.4,33.6,23.1,32.9,23.3z M29.7,37.7c-0.4,0.3-1.7,0.3-1.9-0.2
			c-0.1-0.3-0.2-0.7-0.2-1.1c0.1,0.1,0.3,0.1,0.5,0c0.1-0.1,0.2-0.1,0.3-0.1c0.2-0.1,0.3,0.3,0.4,0.5c0.1,0.2,0.2,0.2,0.3,0.3
			c0.3,0.2,0.6,0,0.8-0.2c0.1,0.2,0.1,0.3,0.2,0.4C30,37.4,29.9,37.6,29.7,37.7z M28.7,30.5c0.1-0.1,0.3-0.1,0.4-0.2c0,0,0,0,0,0
			c1.5,0.1,3.4,0.9,3.3,2.6c-0.5,0.2-0.3-0.6-0.7-0.7c-0.1,0-0.2,0.1-0.3,0.1c-0.2,0.2-0.4,0.5-0.4,0c0-0.2,0-0.2-0.1-0.4
			c0-0.1-0.1-0.1-0.2-0.1c-0.2,0.2-1.1,1-1.1,0.1c0-0.2,0-0.5-0.2-0.6c-0.1-0.1-0.4-0.1-0.5,0c-0.1,0.1-0.2,0.2-0.3,0.3
			c-0.2,0.2-0.3-0.2-0.4-0.4C28.3,30.9,28.4,30.6,28.7,30.5z M28.1,31.8c0-0.1,0-0.1,0-0.2c0,0.1,0.1,0.2,0.2,0.2
			c0.5,0.1,1.1-0.8,1.1,0.1c0,0.2,0.1,0.8,0.4,0.8c0.2,0,0.3-0.1,0.5-0.2c0.1,0,0.4-0.5,0.4-0.1c0,0.2,0,0.3,0.1,0.5
			c0,0.1,0.1,0.1,0.2,0.1c0.1-0.1,0.7-0.6,0.8-0.2c0.1,0.2,0,0.4,0.1,0.6c0.1,0.2,0.3,0.1,0.5-0.1c0,0,0,0,0,0
			c-0.1,0.7-0.5,1.3-0.8,1.9c0-0.1-0.1-0.1-0.1-0.2c0-0.1-0.1-0.1-0.2-0.1c-0.2,0.1-0.3,0.2-0.5,0.2c-0.1,0-0.1-0.5-0.1-0.5
			c0-0.1-0.1-0.1-0.1-0.1c-0.3,0.1-1,0.7-1-0.1c0-0.2,0-0.5-0.2-0.6c-0.1-0.1-0.3-0.1-0.5,0c-0.3,0.2-0.8,0.6-1,0c0,0,0-0.1,0-0.1
			C27.8,33.1,27.9,32.5,28.1,31.8z M27.6,34.9c0-0.3,0-0.6,0.1-0.8c0.1,0.2,0.2,0.3,0.4,0.3c0.3,0,0.5-0.1,0.7-0.3
			c0.5-0.3,0.4,0.7,0.6,0.9c0.1,0.1,0.3,0.2,0.4,0.1c0.1,0,0.2-0.1,0.3-0.2c0.4-0.3,0.3,0,0.3,0.3c0.1,0.3,0.5,0.1,0.7,0
			c0,0.1,0.1,0.2,0.2,0.3c-0.1,0.1-0.1,0.2-0.1,0.3c-0.3,0.5-0.6,1-0.9,1.5c-0.1-0.2-0.2-0.4-0.2-0.5c0-0.1-0.1-0.1-0.2,0
			c-0.3,0.2-0.8,0.3-0.9-0.2c0-0.1-0.1-0.1-0.1-0.2c-0.1-0.1-0.2-0.2-0.3-0.2c-0.1,0-0.3,0.1-0.4,0.1c-0.3,0.1-0.4,0-0.5-0.1
			C27.6,35.6,27.6,35.3,27.6,34.9z M30.5,22.3c0.2,0.2,0.5,0.4,0.7,0.5c0.3,0.3,0.7,0.5,1,0.8c-0.3,0.2-0.4,0.4-0.5,0.7
			c-0.2-0.2-0.5-0.3-0.7-0.5c-0.3-0.2-0.5-0.4-0.8-0.5C30.4,22.9,30.5,22.6,30.5,22.3z M27.9,19.6c0.8,0,1.6,0.6,2,1.4
			c0.8,1.6-0.3,2.9-1.9,3.1c-1.4,0.1-2.2-1-2.2-2.3C25.8,20.6,26.8,19.8,27.9,19.6z M20.1,18.6c-0.3,0-0.6,0-1,0
			c0.1-0.3,0-0.7,0-1.1c0-0.4-0.1-0.8-0.1-1.3c0.4,0.1,0.8,0.4,1.1,0.7C20.1,17.5,20,18.1,20.1,18.6z M17,17.7c0-0.4,0-0.9-0.1-1.3
			c0.3-0.1,0.6-0.2,1-0.2c-0.1,0.8,0,1.7-0.1,2.5c-0.3,0-0.6,0-0.8,0C17,18.3,17,18,17,17.7z M19.6,19c-0.3,0.5-0.9,0.6-1.5,0.7
			c-0.6,0.1-1.9,0-1.7-0.8C17.4,19,18.5,19,19.6,19z M19,18.6c-0.3,0-0.6,0-0.9,0c0.1-0.8,0.1-1.7,0-2.5c0.3,0,0.6,0,0.9,0.1
			c0,0.4,0,0.9,0.1,1.3C19,17.9,18.9,18.3,19,18.6z M20.3,18.6c0-0.2,0-0.5,0-0.7c0-0.3,0-0.5,0-0.8c0.4,0.4,0.7,1,1,1.5
			C21,18.6,20.7,18.6,20.3,18.6z M18,6.3c-0.4,0.1-0.6-0.8-0.3-1.1c0.2-0.2,0.5,0,0.7,0.2C18.5,5.8,18.4,6.2,18,6.3z M17.7,8.1
			C19,8,20.2,8.9,20.7,10c-0.8,0-1.7,0-2.5,0c-1,0-2-0.1-3-0.1C15.8,9,16.6,8.2,17.7,8.1z M14.4,18.6c-0.7,0-1.4,0-2.1,0
			c-0.1,0-0.3,0-0.4,0c0-0.1,0-0.2,0-0.3c0-1.1,0-2.1-0.1-3.2c0-1.7,0.2-3.4,0-5c1.8,0,3.7,0,5.5,0.2c1.8,0.2,3.7,0,5.5,0
			c0.4,0,0.9,0,1.3,0c0.2,0,0.1,1.1,0.1,1.2c0,1-0.1,2-0.2,3.1C24,16,24,17.4,23.9,18.8c-0.8,0-1.5-0.1-2.3-0.1
			C21,17,19.9,16,18.1,15.8C16.4,15.7,15.2,17.2,14.4,18.6C14.5,18.6,14.5,18.6,14.4,18.6z M15.7,18.6c-0.3,0-0.6,0-0.9,0
			c0.3-0.5,0.6-1,1-1.4c0,0.2,0,0.5-0.1,0.7C15.7,18.2,15.6,18.4,15.7,18.6z M15.9,18.6c0-0.2,0-0.4,0-0.6c0-0.3,0-0.5-0.1-0.8
			c0.3-0.3,0.6-0.6,1-0.7c0,0.4,0,0.8,0,1.3c0,0.3,0,0.6,0,0.9C16.5,18.6,16.2,18.6,15.9,18.6z M16.3,19.6
			C16.4,19.6,16.4,19.6,16.3,19.6c0.3,0.2,0.9,0.4,1.2,0.5c0.6,0.1,1.7-0.1,2.2-0.6c0.1,0.9-1.1,1.4-1.9,1.3
			C17.5,20.6,16,19.8,16.3,19.6z M16.3,21c-0.1-0.3,0-0.5,0.2-0.7c0.3,0.3,0.7,0.5,1.1,0.6c0.7,0.3,1.7,0,2.2-0.6
			c0.1,0.2,0.2,0.3,0.2,0.5c0.1,0.3,0,0.5-0.2,0.7c-0.7,0-1.4,0-2.1,0c-0.3,0-0.6,0-0.9,0C16.5,21.5,16.4,21.3,16.3,21z M8.3,19.6
			c0.8,0,1.6,0.6,2,1.4c0.8,1.6-0.3,2.9-1.9,3.1c-1.4,0.1-2.2-1-2.2-2.3C6.2,20.6,7.2,19.8,8.3,19.6z M4.5,25.1
			c0.3-0.1,0.6-0.4,0.9-0.6c0.3-0.3,0.7-0.6,1-0.9c0.5,0.7,1.3,1,2.2,0.9c0.4-0.1,0.8-0.2,1.1-0.4c-0.2,1.2-0.3,2.3-0.4,3.5
			c0,0,0,0,0-0.1c-0.4-0.8-1.2-1.1-2-0.9c-0.4,0-0.6,0.2-0.8,0.4c-0.3-0.2-0.6-0.3-0.9-0.5c-0.3-0.2-0.6-0.4-0.9-0.6
			C4.6,25.6,4.6,25.4,4.5,25.1z M5.9,22.4c0,0.4,0.2,0.7,0.4,1c-0.3,0.2-0.6,0.5-0.9,0.7c-0.3,0.3-0.7,0.5-1,0.8
			c-0.2-0.4-0.4-0.6-0.7-0.8C4.4,23.6,5.2,23.1,5.9,22.4z M2.7,27c-0.7,0-1.2-0.8-1.2-1.4c0-0.4,0.1-0.7,0.3-1
			c0.5-0.4,1.2-0.5,1.7-0.3c0,0,0,0,0,0c0.3,0.1,0.6,0.3,0.8,0.7C4.8,26,3.6,27,2.7,27z M6,27.9c-0.3-0.2-0.6-0.3-0.9-0.4
			c-0.4-0.2-0.8-0.4-1.2-0.7c0.3-0.2,0.5-0.5,0.6-0.9c0.4,0.5,1.1,1,1.7,1.2C6.1,27.4,6,27.6,6,27.9z M7.5,29.5
			c-0.7,0-1.2-0.8-1.2-1.4c0-0.3,0-0.6,0.2-0.8c0,0,0.1-0.1,0.1-0.1c0,0,0,0,0,0c0.8-0.6,2-0.5,2.5,0.4c0.1,0.1,0.1,0.3,0.1,0.4
			c0,0.2-0.1,0.3-0.1,0.5C8.8,29,8.1,29.5,7.5,29.5z M7.3,30.5c0.1,0,0.1,0,0.2,0c0.5,0.1,0.7,0.6,0.8,1c-0.3,0-0.6-0.2-0.9,0.2
			C7,32.3,7,31.5,6.6,31.7c-0.2,0.1-0.2,0.2-0.3,0.4c-0.2,0.5-0.2,0.5-0.8,0.4c-0.2,0-0.3,0-0.5,0.1c-0.3,0.1-0.6,0.7-0.9,0.5
			C4.1,31.5,5.9,30.7,7.3,30.5z M4.2,33.7c0-0.1-0.1-0.3-0.1-0.4c0,0,0.1,0,0.2,0c0.5,0,0.6-0.7,1.1-0.6c0.2,0,0.8,0.2,1,0
			c0.1-0.1,0.1-0.2,0.1-0.3c0.2-0.7,0.4-0.3,0.7-0.1c0.1,0,0.1,0,0.2,0c0.2-0.4,0.4-0.6,0.9-0.5c0.1,0,0.1,0,0.1,0
			c0.2,0.6,0.3,1.3,0.3,2c-0.2,0.1-0.4,0.1-0.5,0.1c-0.1-0.1-0.2-0.1-0.3-0.1c-0.6,0.1-0.7,0.6-1.4,0.3C6.4,34,6.1,33.8,5.9,34
			c-0.1,0.1-0.1,0.2-0.2,0.3c0,0.1-0.1,0.2-0.2,0.3c-0.4,0.6-0.8,0.3-1.1,0C4.4,34.2,4.3,34,4.2,33.7z M8.7,37.6
			C8.6,38.2,7.6,38.1,7,38c-0.4-0.1-0.7-0.4-1-0.7c0.1,0,0.2,0,0.2,0c0.2-0.1,0.3-0.2,0.3-0.4c0.1-0.7,0.6-0.2,0.9-0.1
			c0.1,0.1,0.3,0.1,0.4,0c0.1-0.1,0.2-0.7,0.4-0.5c0.2,0.2,0.3,0.4,0.5,0.3C8.8,36.9,8.8,37.2,8.7,37.6z M8.9,36.3
			c-0.3,0-0.4-0.5-0.7-0.4c-0.3,0.1-0.3,0.8-0.7,0.6c-0.2-0.1-0.5-0.3-0.8-0.2c-0.2,0.1-0.2,0.2-0.2,0.3c0,0.1,0,0.1,0,0.2
			c0,0.4-0.3,0.3-0.5,0.1c-0.2-0.3-0.4-0.6-0.5-0.9c-0.2-0.4-0.5-0.8-0.7-1.3C4.9,35,5.1,35.1,5.4,35c0.2-0.1,0.4-0.4,0.5-0.5
			c0.3-0.5,0.5-0.2,1-0.1c0.5,0.1,0.5-0.1,0.8-0.4c0.2-0.1,0.6,0.1,0.8,0.1c0.1,0,0.2-0.1,0.3-0.1c0,0.3,0.1,0.5,0.1,0.8
			C8.9,35.3,8.9,35.8,8.9,36.3z M18.9,33.5c-3.3,0-6.7-0.2-10-0.3c0,0,0-0.1,0-0.1c0.1-1.6,0.2-3.1,0.5-4.6c0.2-1.4,0.6-3,0.5-4.4
			c0.7-0.5,1.2-1.2,1.1-2.2c0.7,0.1,1.5,0.1,2.2,0.1c1.2,0,2.4,0,3.6,0c0.1,0,0.1,0,0.2,0c0.2,0,0.4,0,0.5,0c2.7,0,5.4-0.1,8,0
			c0,0,0,0,0,0.1c-0.1,1.1,0.6,2,1.5,2.3c-0.1,0.6,0,1.1,0.1,1.7c0.1,0.9,0.2,1.8,0.2,2.7c0,1.4-0.2,3.1,0.2,4.5
			C24.7,33.7,21.8,33.5,18.9,33.5z M27.4,26.7c-0.1-0.8-0.2-1.5-0.3-2.3c0.3,0.1,0.7,0.1,1,0.1c0.8-0.1,1.5-0.5,1.9-1.1
			c0.3,0.2,0.5,0.4,0.8,0.6c0.2,0.2,0.5,0.4,0.8,0.5c0,0.2,0,0.5,0,0.8c-0.2,0.1-0.4,0.3-0.6,0.4c-0.3,0.2-0.6,0.5-1,0.5
			c-0.8-0.6-2.1-0.7-2.5,0.3C27.5,26.5,27.5,26.6,27.4,26.7z M30.4,27.4c-0.3,1-1.7,1.2-2.4,0.6c-0.5-0.4-0.5-1.3-0.1-1.8
			c0.4-0.4,0.9-0.5,1.5-0.3C30,26.2,30.5,26.8,30.4,27.4z M30.7,27.2c0-0.3-0.2-0.7-0.4-0.9c0.2,0,0.5-0.2,0.7-0.3
			c0.2-0.2,0.6-0.3,0.8-0.6c0.1,0.3,0.3,0.6,0.6,0.8C31.8,26.5,31.2,26.9,30.7,27.2z M33.1,26.2c-0.7,0-1.2-0.8-1.2-1.4
			c0-0.4,0.1-0.7,0.3-1c0.8-0.6,2-0.5,2.5,0.4C35.3,25.3,34,26.2,33.1,26.2z"/>
		<path class="st1" d="M23.7,27.5c0-0.1-0.1-0.1-0.1-0.1c-4,0-8,0.2-11.9,0.1c-0.1,0-0.1,0.1-0.1,0.2c0.1,0.3,0.1,0.6,0.2,1
			c0,0-0.1,0-0.1,0c-0.2,0-0.6,0-0.7,0.2c0,0,0,0.1,0,0.1c0,0.2,0,0.3,0,0.5c0,0,0,0.1,0.1,0.1c0.2,0,0.5,0.1,0.7,0.1
			c0,0.1,0,0.2,0,0.3c0,0.1,0,0.3,0,0.5c0,0-0.1,0-0.1,0c-0.2,0-0.6,0-0.7,0.2c0,0,0,0.1,0,0.1c0,0.2,0,0.3,0,0.5c0,0,0,0.1,0.1,0.1
			c0.3,0.1,0.5,0.1,0.8,0.1c0,0.3,0,0.6,0,0.9c0,0.1,0.1,0.1,0.1,0.1c1.7,0.1,3.4,0,5,0.1c2.2,0,4.5,0.1,6.7-0.1
			c0.1,0,0.1-0.1,0.1-0.1C23.8,30.5,23.6,29,23.7,27.5z M11.1,29.2c0-0.1-0.1-0.2-0.1-0.3c0,0,0.1,0,0.1,0c0.2,0,0.3-0.1,0.5-0.1
			c0.2,0,0.5,0,0.7,0c0,0.1,0,0.3,0,0.4C12,29.2,11.5,29.3,11.1,29.2z M11.1,30.9c0-0.1-0.1-0.2-0.1-0.3c0,0,0.1,0,0.1,0
			c0.2,0,0.3-0.1,0.5-0.1c0.2,0,0.5,0,0.7,0c0,0.1,0,0.3,0,0.4C12,30.9,11.5,30.9,11.1,30.9z M23.5,31.9C22.7,32,21.8,32,21,32
			c-2.9,0.1-5.8,0-8.7-0.1c-0.1,0-0.2,0-0.3,0c0,0,0,0,0,0c0.1,0,0.1-0.6,0-0.8c0.2,0,0.4,0,0.5-0.1c0.1,0,0.1-0.1,0.1-0.1
			c0-0.2,0-0.4,0-0.6c0-0.1-0.1-0.1-0.1-0.1c-0.2,0-0.4,0-0.6,0c0.1-0.1,0.1-0.3,0.1-0.5c0-0.1,0-0.2-0.1-0.3c0.2,0,0.4,0,0.7-0.1
			c0.1,0,0.1-0.1,0.1-0.1c0-0.2,0-0.4,0-0.6c0-0.1-0.1-0.1-0.1-0.1c-0.2,0-0.4,0-0.6,0c0-0.3-0.1-0.6-0.1-0.9
			c3.9,0.1,7.8,0,11.6-0.1c0,0.2,0,0.5,0,0.7c0,0.8,0,1.6,0,2.4c0,0.3,0,0.6,0.1,0.9C23.5,31.7,23.5,31.8,23.5,31.9
			C23.5,31.9,23.5,31.9,23.5,31.9z"/>
		<path class="st1" d="M22.2,29.1C22.2,29.1,22.2,29.1,22.2,29.1c-0.3,0-0.5,0.2-0.5,0.4c-0.1,0.3,0.2,0.6,0.5,0.6
			c0.3,0,0.6-0.2,0.6-0.5C22.7,29.3,22.5,29,22.2,29.1z M22.5,29.5c0,0.2-0.2,0.3-0.3,0.3c-0.2,0-0.3-0.1-0.3-0.3
			c0-0.2,0.2-0.3,0.4-0.3C22.4,29.3,22.6,29.3,22.5,29.5z"/>
		<path class="st1" d="M23.3,23.4c-0.5-0.2-1-0.1-1.3,0.4c-0.2,0.4-0.2,1.1,0.3,1.4c0.6,0.3,1.4-0.1,1.6-0.7
			C24.1,24,23.8,23.6,23.3,23.4z M23.7,24.5c-0.2,0.4-0.9,0.7-1.3,0.4c-0.3-0.2-0.2-0.7-0.1-1c0.1-0.3,0.4-0.4,0.7-0.5
			C23.5,23.6,24,24,23.7,24.5z"/>
		<path class="st1" d="M19.9,25.6c0.6-0.2,1-0.8,0.8-1.4c-0.1-0.4-0.5-0.6-0.8-0.6c0,0,0,0,0,0c0,0-0.1,0-0.1,0c0,0,0,0-0.1,0
			c-0.5,0.2-0.8,0.6-0.7,1.2C18.9,25.4,19.3,25.8,19.9,25.6z M19.5,23.8c0.2-0.1,0.4-0.2,0.7-0.1c0.2,0.1,0.3,0.3,0.4,0.5
			c0.1,0.5-0.3,1-0.8,1.1c-0.4,0.1-0.6-0.3-0.6-0.7C19.1,24.3,19.2,24,19.5,23.8z"/>
		<path class="st1" d="M12.6,26c0.8,0,1.5-0.1,2.3-0.2c0,0,0.1,0,0.1-0.1c0-0.7-0.1-1.4-0.2-2c0,0,0,0,0,0c-0.7,0-1.4-0.1-2.1,0
			c0,0,0,0,0,0c0,0-0.1,0.1,0,0.1c0,0,0,0,0,0c-0.1,0.7-0.1,1.4-0.1,2.1C12.4,26,12.5,26,12.6,26z M14.2,25.7
			c-0.4,0-0.9,0.1-1.3,0.1c0.1-0.1,0.2-0.2,0.3-0.3c0.4,0,0.8-0.1,1.2-0.2c0,0.1,0.1,0.1,0.2,0.2c0,0,0.1,0.1,0.1,0.1
			C14.5,25.7,14.3,25.7,14.2,25.7z M13.1,24.3c0,0,0.1,0,0.1,0c0.1,0,0.3,0,0.4,0c0.2,0,0.4,0,0.5,0c0,0.3,0.1,0.6,0.1,0.9
			c-0.3,0-0.7,0.1-1,0.1C13.2,25,13.2,24.6,13.1,24.3z M14.7,23.9C14.7,23.9,14.7,23.9,14.7,23.9c0.1,0.5,0.1,1.1,0.1,1.7
			c0,0,0,0,0,0c0,0-0.1-0.1-0.1-0.1c-0.1-0.1-0.1-0.1-0.2-0.2c0,0,0,0,0,0c0-0.4,0-0.7-0.1-1.1c0,0,0,0,0,0
			C14.4,24.1,14.5,24,14.7,23.9C14.6,23.9,14.6,23.9,14.7,23.9z M14.5,23.8C14.5,23.8,14.5,23.9,14.5,23.8c-0.1,0.1-0.2,0.2-0.2,0.2
			c0,0,0,0,0,0c-0.2,0-0.5,0-0.7,0c-0.1,0-0.2,0-0.3,0c0,0,0,0,0,0c-0.1-0.1-0.2-0.2-0.4-0.2C13.3,23.8,14.2,23.8,14.5,23.8z
			 M13,24.2C13,24.2,13,24.2,13,24.2C13,24.2,13,24.3,13,24.2C13,24.3,13,24.3,13,24.2c0,0.5,0,0.9,0,1.2c0,0,0,0,0,0
			c0,0-0.1,0.1-0.1,0.1c-0.1,0.1-0.1,0.1-0.2,0.2c0-0.6,0-1.2,0-1.8C12.8,24,12.9,24.1,13,24.2z"/>
	</g>
</g>
</svg>
