<?xml version="1.0" encoding="utf-8"?>
<!-- Generator: Adobe Illustrator 20.1.0, SVG Export Plug-In . SVG Version: 6.00 Build 0)  -->
<svg version="1.1" id="Layer_1" xmlns="http://www.w3.org/2000/svg" xmlns:xlink="http://www.w3.org/1999/xlink" x="0px" y="0px"
	 viewBox="0 0 35.5 48.3" style="enable-background:new 0 0 35.5 48.3;" xml:space="preserve">
<style type="text/css">
	.st0{fill:#B7B7A1;}
	.st1{fill:#332E2B;}
	.st2{fill:#E2D134;}
	.st3{fill:#707173;}
	.st4{fill:#C9B62D;}
	.st5{fill:#FFFFFF;}
	.st6{fill:#B1B3B4;}
	.st7{fill:#F3F4EA;}
	.st8{fill:#FFF2A6;}
</style>
<g>
	<path class="st0" d="M31.5,41.9c0,2.3-5.4,4.1-12,4.1c-6.6,0-12-1.8-12-4.1c0-2.3,2.7-4.3,9.4-4.3C23.5,37.6,31.5,39.6,31.5,41.9z"
		/>
	<g>
		<g>
			<path class="st1" d="M34.2,38.7c0,0.1-0.1,0.1-0.2,0.1c-0.5-0.1-1-0.1-1.5,0c-0.1,0-0.2-0.1-0.1-0.1c0.1-0.7,0.2-3.1-1.2-2.6
				c-1,0.4-0.6,2-0.4,2.8c0,0.1,0,0.1-0.1,0.1c-0.4,0.2-0.9,0.3-1.3,0.5c-0.1,0-0.2,0-0.2-0.1c-1.2-1.8-0.9-4.7,0.8-6.1
				c-0.1-0.1-0.1-0.2-0.1-0.3c-0.1-0.4,0-0.9,0.4-1.1c-0.2-0.4-0.3-0.8-0.4-1.1c-0.4-1.4-0.6-2.9-1.1-4.3c-0.5-1.3-1.1-2.4-1.9-3.6
				c0,0.4,0.1,0.8,0.1,1.2c0.1,1.1,0.2,2.2,0.3,3.4c0.1,0.8,0.2,1.6,0.1,2.4c-0.3,1.7-1.2,3.2-2.6,4.1c-0.5,0.3-1,0.6-1.6,0.8
				c0.1,0.8,0,1.6,0,2.3c0,0.8,0,1.6,0,2.4c0.9,0.4,1.7,1.4,1.3,2.3c0,0,0,0.1,0,0.1c-0.7,1.2-3.3,0.9-4.2,0c0,0-0.1,0-0.1-0.1
				c0.1-1,0.4-2,1.3-2.4c-0.2-1.4-0.3-2.8-0.4-4.2c-0.3,0-0.7,0.1-1,0c-1.6,0-3.2,0-4.8-0.1c0.2,0.7,0.2,1.5,0.2,2.3
				c0,0.6,0.1,1.3,0,2c0.8,0.4,1.1,1.4,1.2,2.4c0,0,0,0.1-0.1,0.1c-0.9,0.9-3.5,1.1-4.2,0c0,0,0-0.1,0-0.1c-0.4-1,0.6-2,1.6-2.4
				c-0.2-0.7-0.3-1.5-0.3-2.2c0-0.7-0.1-1.5-0.2-2.2c-1.3-0.3-2.5-0.7-3.3-1.8c-0.8-1.2-1-2.7-1.1-4C9.1,27.9,9,26.8,9,25.6
				c-0.9,1.5-1.3,3.1-1.7,4.8c0,0,0,0.1,0,0.1c0,0,0,0,0,0c-0.1,0.4-0.2,0.9-0.2,1.3c0,0.2-0.1,0.8-0.3,1.3c0.3,0.3,0.5,0.7,0.4,1.1
				c0.9,0.5,1.4,1.7,1.6,2.7c0.2,1.2,0.4,2.5,0,3.6c0,0.1-0.1,0.1-0.1,0.1c-0.6,0-1.2,0-1.8-0.1c-0.1,0-0.1-0.1-0.1-0.2
				c0.3-0.6,0.4-1.3,0.4-1.9c0-0.4-0.1-0.9-0.4-1.2c-0.3-0.2-0.8-0.4-1.1-0.1c-0.7,0.7-0.4,2.1-0.3,3c0,0.1,0,0.2-0.1,0.2
				c-0.5,0.1-1.3,0.2-1.7-0.2c-0.6-0.6-0.8-1.6-0.8-2.4c0.1-1.2,0.4-2.9,1.7-3.4c0-0.1,0-0.2-0.1-0.2c-0.1-0.5,0.1-1.1,0.6-1.3
				c0-0.3,0-0.5,0-0.7C5,31.1,5.3,30,5.6,28.9c0.4-1.4,0.9-2.9,1.6-4.2c0.2-0.5,0.6-0.9,0.9-1.3c0,0,0,0,0,0c0,0,0,0,0,0
				c0.4-0.5,0.9-1,1.3-1.6c0.5-2.3,1.3-4.6,2-6.8c0,0-0.1,0-0.1,0c-0.1,0-0.2,0-0.2-0.2c0.7-1.6,1.7-3.1,2.5-4.6
				c0-0.1,0.1-0.1,0.2,0c0.2,0.1,0.4,0.2,0.6,0.3c0.9-1.1,2-2.2,3.4-2.4c-0.3-0.2-0.5-0.5-0.7-0.7C17,7.1,16.9,7,17,7
				c0.5-0.2,0.9-0.5,1.4-0.9c-0.4-0.2-0.8-0.4-1.3-0.6c-0.1,0-0.1-0.2,0-0.3c0.4-0.2,0.8-0.3,1.2-0.6c-1.1,0.1-2-2.2-0.9-2.8
				c0.9-0.5,1.9,0.3,2,1.2c0.2,1.2-1,1.8-1.9,2.3c0.4,0.1,0.8,0.3,1.2,0.6c0.1,0.1,0.1,0.2,0,0.3c-0.5,0.4-0.9,0.7-1.5,0.9
				c0.2,0.3,0.5,0.5,0.8,0.7c0.2,0,0.5,0,0.7,0.1c1.9,0.4,3.5,1.9,4.6,3.5c1.7,2.4,2.5,5.2,3,8.1c1,0.5,1.7,1.6,2.4,2.5
				c0.8,1,1.4,2.1,1.8,3.3c0.5,1.5,0.9,2.9,1.3,4.5c0.1,0.5,0.3,1.2,0.3,1.8c0.6,0.4,0.5,1,0.1,1.5c0.7,0.1,1.4,1.3,1.7,1.9
				C34.7,36.1,34.6,37.6,34.2,38.7z"/>
			<path class="st2" d="M14.8,39.6c-1.3,0.1-2,1-2.1,2.2c1,0.9,2.8,0.7,3.8,0C16.3,40.9,15.8,39.5,14.8,39.6z"/>
			<path class="st2" d="M21.9,39.6c-0.9,0.3-1.2,1.3-1.4,2.2c1,0.7,2.9,0.9,3.9,0c0-0.6-0.2-1.2-0.7-1.6
				C23.2,39.8,22.5,39.4,21.9,39.6z"/>
			<path class="st3" d="M22.4,39.3c0.2,0,0.3,0.1,0.5,0.1c-0.2-1.5-0.1-3.1,0.1-4.6c-0.6,0.2-1.1,0.3-1.7,0.4
				c0.4,1.3,0.4,2.8,0.4,4.1C21.9,39.3,22.2,39.3,22.4,39.3z"/>
			<path class="st3" d="M15.3,37.5c0-0.8-0.1-1.5-0.2-2.3c-0.4,0-0.9-0.1-1.3-0.2c0.2,0.7,0.2,1.5,0.3,2.2c0.1,0.7,0.1,1.4,0.2,2.2
				c0.1,0,0.2,0,0.3,0c0.3,0,0.5,0,0.8,0.1C15.2,38.8,15.3,38.1,15.3,37.5z"/>
			<path class="st4" d="M23,29.2c-1.5,0-3,0.1-4.5,0.1c-2.9,0.1-6,0.5-8.9,0.1c0,0.2,0.1,0.5,0.1,0.7c0.1,1,0.4,2,1,2.8
				c1.1,1.5,3.2,1.8,4.9,1.9c1.2,0.1,2.3,0,3.5,0c0.9,0,1.8,0.1,2.8-0.1c1.8-0.4,3.8-1.3,4.6-3c0.4-0.9,0.5-1.8,0.6-2.6
				C25.7,29.3,24.3,29.1,23,29.2z"/>
			<polygon class="st5" points="16.5,20.7 16.5,20.7 16.5,20.7 			"/>
			<path class="st1" d="M14.6,20.1c-1.3-0.4-2.2,0.5-2.2,1.8c0,2.4,3.6,1.6,3.4-0.5C15.6,20.8,15.2,20.4,14.6,20.1z"/>
			<path class="st5" d="M16.4,20.7C16.4,20.7,16.4,20.7,16.4,20.7C16.3,20.7,16.4,20.7,16.4,20.7z"/>
			<polygon class="st5" points="15.1,24.2 15.1,24.2 15.1,24.2 			"/>
			<path class="st5" d="M14.9,24.2C15,24.2,15,24.2,14.9,24.2C15,24.2,14.9,24.2,14.9,24.2C14.9,24.2,14.9,24.2,14.9,24.2z"/>
			<path class="st6" d="M6.6,28.4c-0.2-0.1-0.3-0.3-0.3-0.5c0,0,0,0,0,0c-0.2,0.6-0.4,1.2-0.5,1.8c0.1,0.3,0.4,0.6,0.7,0.7
				c0.2,0.1,0.3,0.1,0.5,0.1c0.1,0,0.1,0,0.2,0c0.1-0.6,0.2-1.3,0.4-1.9C7.2,28.6,6.8,28.5,6.6,28.4z"/>
			<path class="st6" d="M5.5,34c0.5,0.4,0.9-0.5,1.2-1.5c-0.3,0.1-0.7,0.1-1-0.1c-0.2-0.2-0.4-0.4-0.5-0.6C5,32.6,4.9,33.6,5.5,34z"
				/>
			<path class="st5" d="M5.4,34.3C5,34.1,4.9,33.5,4.8,33c-0.3,0.3-0.5,0.7-0.3,1.2c0,0,0,0.1,0.1,0.1c0,0,0,0,0,0.1
				c0.2,0.4,0.7,0.8,1.2,0.8c0.5,0,1-0.3,1.2-0.8c0.1-0.4,0-0.7-0.2-1C6.5,34.1,6.1,34.7,5.4,34.3z"/>
			<path class="st4" d="M5.6,35.4c-0.5-0.1-1-0.4-1.2-0.9c-0.7,0.5-1.1,1.3-1.3,2.2c-0.2,1-0.3,2.5,0.5,3.3c0.2,0.1,1.3,0.4,1.2,0.2
				c0-0.2-0.1-0.5-0.1-0.7c0-0.6-0.1-1.2,0.1-1.8c0.3-0.8,1.3-1.2,2-0.4c0.6,0.8,0.4,2.1,0.1,3.1c0.4,0.1,0.9,0.1,1.3,0
				c0.3,0,0.3-0.4,0.3-0.7c0.1-0.7,0.1-1.4,0-2.2c-0.2-1.1-0.5-2.4-1.5-3.1C6.9,35.1,6.4,35.6,5.6,35.4z"/>
			<path class="st7" d="M18.7,4.4c0.2-0.2,0.4-0.5,0.5-0.8c0.1-0.6-0.1-1.4-0.8-1.5c-0.3-0.1-0.7-0.1-0.9,0.2
				C16.9,3,17.7,4.7,18.7,4.4z"/>
			<path class="st4" d="M11.6,14.7c0.9,0.2,1.8,0.4,2.7,0.6c0,0,0.1,0,0.1,0c0,0,0,0,0,0c0.1-0.2,0.3-0.5,0.4-0.7
				c0.4-0.7,0.8-1.4,1.2-2.1c0.1-0.3,0.3-0.5,0.4-0.8c0,0,0.1-0.1,0.1-0.1c-0.6-0.3-1.3-0.6-1.9-0.9c-0.3-0.1-0.5-0.2-0.8-0.4
				c0,0,0,0.1-0.1,0.1c-0.8,1.4-1.7,2.7-2.3,4.2c0,0,0,0,0.1,0C11.5,14.6,11.5,14.6,11.6,14.7z M15.3,11.5c0.2,0,0.3,0.2,0.3,0.3
				c0,0.2-0.2,0.3-0.3,0.3s-0.3-0.2-0.3-0.3C14.9,11.7,15.1,11.5,15.3,11.5z M13.9,10.8c0.3,0,0.3,0.5,0,0.5
				C13.5,11.4,13.5,10.8,13.9,10.8z M13.8,14.3c0.3,0,0.3,0.5,0,0.5C13.5,14.8,13.5,14.3,13.8,14.3z M12.1,13.9c0.3,0,0.3,0.4,0,0.4
				C11.8,14.4,11.8,13.9,12.1,13.9z"/>
			<path class="st3" d="M7.4,26.3c-0.2-0.2-0.3-0.4-0.3-0.7c-0.3,0.6-0.5,1.3-0.8,2c0.1,0.3,0.2,0.5,0.4,0.6
				c0.2,0.1,0.4,0.1,0.5,0.1c0.1,0,0.2-0.1,0.3-0.1c0.1-0.5,0.3-1.1,0.6-1.6C7.8,26.7,7.6,26.5,7.4,26.3z"/>
			<path class="st6" d="M8.2,24.7C8.1,24.4,8,24.1,8,23.8c-0.1,0.1-0.2,0.3-0.3,0.4c-0.2,0.4-0.4,0.8-0.6,1.2
				c0.1,0.2,0.1,0.4,0.3,0.6c0.1,0.2,0.2,0.3,0.4,0.3c0.1,0,0.3,0,0.4,0C8.4,26,8.7,25.6,9,25.3C8.6,25.3,8.3,25,8.2,24.7z"/>
			<path class="st6" d="M11.2,19.6C11.2,19.7,11.2,19.7,11.2,19.6c-0.6,0.7-0.8,1.7-0.6,2.7c0.4,1.8,1.9,3.2,3.8,2.6
				c2.2-0.7,4-3,2.1-4.9C15.1,18.5,12.7,18,11.2,19.6z M14.8,19.1c0.3,0,0.3,0.5,0,0.5C14.5,19.6,14.5,19.1,14.8,19.1z M13.1,19
				c0.3,0,0.3,0.5,0,0.5C12.7,19.5,12.7,19,13.1,19z M11.2,21.1c0.4,0,0.4,0.6,0,0.6C10.8,21.7,10.8,21.1,11.2,21.1z M11.5,23.3
				c-0.4,0-0.4-0.6,0-0.6S11.9,23.3,11.5,23.3z M11.7,20.3c-0.1,0-0.3-0.1-0.3-0.3c0-0.1,0.1-0.3,0.3-0.3c0.1,0,0.3,0.1,0.3,0.3
				C12,20.2,11.9,20.3,11.7,20.3z M13,24.8c-0.2,0-0.3-0.2-0.3-0.3c0-0.2,0.2-0.3,0.3-0.3c0.2,0,0.3,0.2,0.3,0.3
				C13.3,24.6,13.1,24.8,13,24.8z M15.2,24.2C15.1,24.2,15.1,24.2,15.2,24.2C15.1,24.2,15.2,24.2,15.2,24.2
				C15.2,24.2,15.1,24.2,15.2,24.2C15.1,24.2,15.1,24.2,15.2,24.2C15.1,24.2,15.1,24.2,15.2,24.2c-0.1,0.1-0.2,0.1-0.3,0.1
				c-0.1,0-0.2-0.1-0.2-0.3c0-0.3,0.4-0.4,0.5-0.1C15.2,24,15.3,24.1,15.2,24.2z M14.1,23.8c-1.4,0.2-2.2-0.9-2-2.2
				c0.2-1.4,1.3-2.2,2.7-1.7c0.8,0.3,1.2,0.9,1.3,1.6C16.3,22.7,15.2,23.6,14.1,23.8z M16.4,23.1c-0.4,0-0.4-0.6,0-0.6
				C16.8,22.5,16.8,23.1,16.4,23.1z M16.6,20.7c0.1,0,0.1,0.1,0.1,0.2c0,0.1-0.1,0.2-0.1,0.2c-0.1,0.1-0.2,0.1-0.3,0
				c-0.1-0.1-0.2-0.3,0-0.4c0.1-0.1,0.2-0.1,0.2-0.1C16.5,20.7,16.5,20.7,16.6,20.7C16.5,20.7,16.5,20.7,16.6,20.7
				C16.6,20.7,16.6,20.7,16.6,20.7z"/>
			<path class="st3" d="M6.1,30.6c-0.3-0.1-0.5-0.3-0.5-0.6c-0.1,0.4-0.2,0.8-0.3,1.2c0,0.1,0,0.2-0.1,0.3c0.1,0.3,0.3,0.5,0.6,0.7
				c0.3,0.2,0.6,0.1,0.9,0.1c0.2-0.6,0.3-1.2,0.3-1.6C6.8,30.8,6.4,30.7,6.1,30.6z"/>
			<path class="st3" d="M8.3,24.4c0.1,0.2,0.2,0.4,0.4,0.6C8.8,25,8.9,25,9,25.1c0-1,0.1-1.9,0.3-2.9c-0.3,0.5-0.7,1-1.1,1.4
				C8.2,23.9,8.2,24.1,8.3,24.4z"/>
			<path class="st6" d="M31.8,30.2c-0.1-0.5-0.2-0.9-0.3-1.4c0-0.1,0-0.1,0-0.2c-0.2,0.2-0.5,0.3-0.7,0.4c-0.3,0-0.7,0-1-0.1
				c0.1,0.5,0.2,1,0.4,1.5C30.5,30.8,31.3,30.6,31.8,30.2z"/>
			<path class="st3" d="M31,32.4c0.4,0.4,0.9,0,0.9-0.5c0.1-0.5,0-1-0.1-1.5c-0.2,0.3-0.7,0.4-1,0.4c-0.2,0-0.5-0.1-0.7-0.2
				c0.1,0.2,0.1,0.5,0.2,0.7C30.5,31.7,30.7,32.1,31,32.4z"/>
			<path class="st3" d="M30.6,28.8c0.4,0,0.6-0.2,0.8-0.5c-0.1-0.4-0.2-0.9-0.4-1.3c-0.2,0.6-1.1,0.7-1.7,0.4
				c0.1,0.4,0.2,0.8,0.4,1.2c0,0,0,0,0,0C29.9,28.7,30.2,28.8,30.6,28.8z"/>
			<path class="st1" d="M22,20.1c-1-0.1-1.5,0.8-1.5,1.7c0,0.9,0.5,1.6,1.4,1.8c0.7,0.1,1.3-0.3,1.7-0.9
				C24.3,21.5,23.3,20.2,22,20.1z"/>
			<path class="st4" d="M32.3,33.3C32.3,33.3,32.3,33.3,32.3,33.3c-0.3,0.3-0.7,0.6-1.1,0.6c-0.4,0-0.8-0.2-1.1-0.5
				c-0.7,1-1.3,2.1-1.4,3.4c0,0.7,0.1,1.4,0.5,2.1c0.2,0.4,0.4,0.2,0.8,0.1c0,0,0.6-0.2,0.6-0.2c-0.2-0.8-0.5-2.9,0.8-3
				c0.6,0,1.1,0.2,1.3,0.8c0.1,0.4,0.2,0.7,0.2,1.1c0,0.2,0,0.4,0,0.6c0,0.2-0.1,0.2,0.1,0.2c0.3,0,0.5,0,0.8,0
				c0.4,0.1,0.5-0.1,0.5-0.5c0.1-0.7,0.2-1.4,0-2.1c-0.1-0.6-0.4-1-0.7-1.5C33.2,34.1,32.8,33.3,32.3,33.3z"/>
			<path class="st5" d="M31.3,33.6c0.6-0.2,1.6-1.2,1-1.8c0,0.2-0.1,0.5-0.3,0.7c-0.7,0.9-1.3,0.3-1.7-0.5c-0.2,0.3-0.5,0.6-0.2,1
				C30.4,33.4,30.9,33.7,31.3,33.6z"/>
			<path class="st6" d="M30.2,27.3c0.3-0.1,0.5-0.3,0.7-0.6c-0.2-0.5-0.4-1-0.5-1.6c0-0.1-0.1-0.2-0.1-0.3c-0.1,0.3-0.4,0.7-0.6,0.8
				c-0.3,0.2-0.7,0.2-0.9,0c0.2,0.5,0.4,0.9,0.5,1.4C29.5,27.3,29.8,27.4,30.2,27.3z"/>
			<path class="st2" d="M24.1,13.2c-1-1.8-2.4-3.7-4.3-4.6c-2.2-1-4,0.1-5.3,1.8c0.7,0.3,1.4,0.7,2.1,1c0,0,0.1,0.1,0,0.1
				c-0.7,1.3-1.3,2.6-2,3.9c0,0.1-0.1,0.1-0.2,0.1c-1-0.2-1.9-0.4-2.9-0.7c-0.3,1.7-0.9,3.3-1.4,5c-0.5,1.7-0.7,3.5-0.8,5.3
				c0,1.3,0,2.6,0.1,3.9c1.5,0,3,0.1,4.4,0c1.6-0.1,3.2-0.2,4.7-0.2c1.5-0.1,3-0.1,4.5-0.1c1.2,0,2.5-0.1,3.7,0.1
				c0-1.1-0.2-2.3-0.3-3.5C26.4,21.3,26.1,16.9,24.1,13.2z M14.1,25.3c-2,0.3-3.5-1.2-3.8-3.2c-0.2-1.2,0.3-2.3,1.1-3
				c0.2-0.2,0.3-0.4,0.6-0.5c1.8-1,4.5,0,5.4,1.8C18.5,22.8,16.3,25,14.1,25.3z M25.7,21.9c-0.3,1.9-2.2,3.8-4.3,3.6
				c-2.2-0.3-3.3-3.2-2.7-5.2c0.6-1.7,2.5-2.5,4.2-2c1.2,0.3,2,1,2.4,2C25.7,20.7,25.8,21.3,25.7,21.9z"/>
			<path class="st6" d="M25,19.8c-0.5-0.8-1.4-1.3-2.5-1.3c-1.8-0.1-3.5,1-3.5,2.9c0,1.2,0.4,2.7,1.5,3.4c0.8,0.5,1.8,0.5,2.6,0
				C24.9,23.9,26.1,21.8,25,19.8C25,19.8,25,19.8,25,19.8z M19.3,21.1c0-0.2,0.1-0.3,0.3-0.3c0.2,0,0.3,0.1,0.3,0.3
				c0,0.2-0.1,0.3-0.3,0.3C19.4,21.4,19.3,21.3,19.3,21.1z M19.7,23.1c-0.2,0-0.3-0.1-0.3-0.3c0-0.2,0.1-0.3,0.3-0.3
				c0.2,0,0.3,0.1,0.3,0.3C20,23,19.9,23.1,19.7,23.1z M24,19.5c0.4,0,0.4,0.6,0,0.6C23.6,20.1,23.6,19.5,24,19.5z M22.8,18.9
				c0.1,0,0.3,0.1,0.3,0.3c0,0.1-0.1,0.3-0.3,0.3c-0.1,0-0.3-0.1-0.3-0.3C22.5,19,22.6,18.9,22.8,18.9z M20.4,19.4
				c0.1-0.3,0.5-0.3,0.5,0c0,0.1,0,0.2,0,0.3c-0.1,0.2-0.4,0.2-0.5,0C20.4,19.6,20.4,19.5,20.4,19.4z M21.1,24.5
				c-0.1,0-0.3-0.1-0.3-0.3c0-0.1,0.1-0.3,0.3-0.3c0.1,0,0.3,0.1,0.3,0.3C21.3,24.4,21.2,24.5,21.1,24.5z M22.7,24.4
				c-0.3,0-0.3-0.5,0-0.5C23,24,23,24.4,22.7,24.4z M21.7,23.8c-2.4-0.2-2-5,0.8-3.9c1.4,0.5,2.1,1.9,1.2,3.1
				C23.2,23.8,22.4,24,21.7,23.8z M24.3,23.4c-0.3,0-0.3-0.5,0-0.5C24.6,23,24.6,23.4,24.3,23.4z M24.9,21.6c0,0-0.1,0.1-0.1,0.1
				c0,0,0,0,0,0c0,0,0,0,0,0c-0.1,0-0.1,0-0.2,0c-0.3-0.1-0.3-0.5,0-0.6C24.9,21,25.1,21.4,24.9,21.6z"/>
			<path class="st6" d="M28.7,24c0.4-0.2,0.4-0.5,0.5-0.9c-0.2-0.3-0.5-0.7-0.7-1c-0.1-0.1-0.2-0.2-0.2-0.3c0,0.3-0.2,0.7-0.4,0.9
				c-0.1,0.2-0.5,0.4-0.7,0.4c0.2,0.4,0.5,0.7,0.7,1.1C28.1,24.1,28.4,24.1,28.7,24z"/>
			<path class="st3" d="M29.6,25.3c0.2-0.2,0.3-0.5,0.5-0.8c-0.2-0.4-0.4-0.8-0.6-1.2c0,0.3-0.2,0.7-0.6,0.8
				c-0.2,0.1-0.6,0.2-0.9,0.1c0.2,0.3,0.3,0.7,0.5,1c0,0,0,0,0,0C28.8,25.6,29.2,25.6,29.6,25.3z"/>
			<path class="st3" d="M27.4,22.7c0.2-0.1,0.3-0.3,0.4-0.4c0.1-0.2,0.1-0.4,0.2-0.6c0-0.1,0-0.2,0-0.3c-0.4-0.6-0.9-1.2-1.5-1.6
				c0.1,0.9,0.2,1.8,0.3,2.7c0,0.1,0.1,0.1,0.1,0.2C27.1,22.7,27.3,22.8,27.4,22.7z"/>
			<path class="st1" d="M11.9,18.7c-0.2,0.1-0.4,0.3-0.6,0.5c-0.8,0.7-1.3,1.8-1.1,3c0.3,1.9,1.8,3.4,3.8,3.2
				c2.2-0.3,4.4-2.6,3.3-4.8C16.4,18.7,13.8,17.6,11.9,18.7z M14.4,24.9c-1.9,0.6-3.4-0.8-3.8-2.6c-0.2-1,0-1.9,0.6-2.6
				c0,0,0,0,0.1,0c1.5-1.6,3.9-1.1,5.3,0.3C18.4,22,16.6,24.3,14.4,24.9z"/>
			<path class="st1" d="M14.8,19.9c-1.3-0.5-2.5,0.3-2.7,1.7c-0.1,1.3,0.6,2.4,2,2.2c1.1-0.2,2.2-1.1,1.9-2.2
				C16,20.8,15.5,20.2,14.8,19.9z M12.4,21.9c0-1.3,0.9-2.2,2.2-1.8c0.7,0.2,1.1,0.7,1.2,1.3C15.9,23.5,12.4,24.4,12.4,21.9z"/>
			<path class="st1" d="M23.1,18.2c-1.7-0.4-3.6,0.3-4.2,2c-0.7,2,0.4,4.9,2.7,5.2c2,0.2,4-1.7,4.3-3.6c0.1-0.6,0-1.2-0.3-1.7
				C25.1,19.3,24.3,18.5,23.1,18.2z M23.1,24.8c-0.8,0.4-1.8,0.5-2.6,0c-1.1-0.7-1.4-2.2-1.5-3.4c0-1.9,1.7-3.1,3.5-2.9
				c1.1,0.1,2,0.6,2.5,1.3c0,0,0,0,0,0.1C26.1,21.8,24.9,23.9,23.1,24.8z"/>
			<path class="st1" d="M22.6,19.9c-2.8-1.1-3.2,3.8-0.8,3.9c0.7,0.2,1.5-0.1,2-0.8C24.7,21.8,23.9,20.5,22.6,19.9z M23.6,22.7
				c-0.4,0.7-1,1-1.7,0.9c-0.9-0.2-1.3-1-1.4-1.8c0-0.9,0.5-1.8,1.5-1.7C23.3,20.2,24.3,21.5,23.6,22.7z"/>
			<circle class="st1" cx="11.7" cy="20.1" r="0.3"/>
			<path class="st1" d="M11.2,21.1c-0.4,0-0.4,0.6,0,0.6C11.6,21.7,11.6,21.1,11.2,21.1z"/>
			<path class="st1" d="M11.5,22.7c-0.4,0-0.4,0.6,0,0.6S11.9,22.7,11.5,22.7z"/>
			<circle class="st1" cx="13" cy="24.4" r="0.3"/>
			<path class="st1" d="M14.7,24c0,0.1,0.1,0.2,0.2,0.3c0.1,0,0.1,0,0.2,0c0,0,0,0,0,0c0,0,0,0,0,0c0,0,0.1-0.1,0.1-0.1
				c0,0,0,0.1-0.1,0.1c0,0,0,0,0,0c0.1-0.1,0.1-0.2,0-0.3C15.1,23.6,14.7,23.7,14.7,24z M14.9,24.2C14.9,24.2,14.9,24.2,14.9,24.2
				C14.9,24.2,15,24.2,14.9,24.2C15,24.2,15,24.2,14.9,24.2z M15.1,24.2C15.1,24.2,15.1,24.2,15.1,24.2
				C15.1,24.2,15.1,24.2,15.1,24.2C15.1,24.2,15.1,24.2,15.1,24.2z"/>
			<path class="st1" d="M16.4,22.5c-0.4,0-0.4,0.6,0,0.6C16.8,23.1,16.8,22.5,16.4,22.5z"/>
			<path class="st1" d="M16.5,20.7c-0.1,0-0.2,0-0.2,0.1c-0.1,0.1-0.1,0.3,0,0.4c0.1,0.1,0.2,0,0.3,0c0.1,0,0.1-0.1,0.1-0.2
				c0-0.1,0-0.2-0.1-0.2C16.6,20.7,16.6,20.7,16.5,20.7C16.5,20.7,16.5,20.7,16.5,20.7C16.5,20.7,16.5,20.7,16.5,20.7z M16.4,20.7
				C16.4,20.7,16.4,20.7,16.4,20.7C16.4,20.7,16.3,20.7,16.4,20.7z M16.5,20.7C16.5,20.7,16.5,20.7,16.5,20.7
				C16.5,20.7,16.5,20.7,16.5,20.7C16.5,20.7,16.5,20.7,16.5,20.7z"/>
			<path class="st1" d="M14.8,19.6c0.3,0,0.3-0.5,0-0.5C14.5,19.1,14.5,19.6,14.8,19.6z"/>
			<path class="st1" d="M13.1,19.5c0.3,0,0.3-0.5,0-0.5C12.7,19,12.7,19.5,13.1,19.5z"/>
			<circle class="st1" cx="22.8" cy="19.1" r="0.3"/>
			<path class="st1" d="M24,20.1c0.4,0,0.4-0.6,0-0.6C23.6,19.5,23.6,20.1,24,20.1z"/>
			<path class="st1" d="M24.6,21.1c-0.3,0.1-0.3,0.5,0,0.6c0.1,0,0.1,0,0.2,0c0,0,0,0,0,0c0,0,0,0,0,0c0,0,0.1,0,0.1-0.1
				C25.1,21.4,24.9,21,24.6,21.1z"/>
			<path class="st1" d="M24.3,23c-0.3,0-0.3,0.5,0,0.5C24.6,23.4,24.6,23,24.3,23z"/>
			<path class="st1" d="M22.7,24c-0.3,0-0.3,0.5,0,0.5C23,24.4,23,24,22.7,24z"/>
			<circle class="st1" cx="21.1" cy="24.3" r="0.3"/>
			<circle class="st1" cx="19.7" cy="22.8" r="0.3"/>
			<circle class="st1" cx="19.5" cy="21.1" r="0.3"/>
			<path class="st1" d="M20.9,19.7c0.1-0.1,0.1-0.2,0-0.3c-0.1-0.3-0.5-0.3-0.5,0c0,0.1,0,0.2,0,0.3C20.5,19.9,20.8,19.9,20.9,19.7z
				"/>
			<path class="st1" d="M12.1,14.4c0.3,0,0.3-0.4,0-0.4C11.8,13.9,11.8,14.4,12.1,14.4z"/>
			<path class="st1" d="M13.8,14.8c0.3,0,0.3-0.5,0-0.5C13.5,14.3,13.5,14.8,13.8,14.8z"/>
			<circle class="st1" cx="15.3" cy="11.9" r="0.3"/>
			<path class="st1" d="M13.9,11.4c0.3,0,0.3-0.5,0-0.5C13.5,10.8,13.5,11.4,13.9,11.4z"/>
			<path class="st1" d="M32.5,33.1c0.4-0.5,0.4-1.2-0.1-1.5c0-0.6-0.2-1.3-0.3-1.8c-0.4-1.5-0.7-3-1.3-4.5c-0.5-1.2-1-2.3-1.8-3.3
				c-0.7-0.9-1.4-2-2.4-2.5c-0.5-2.9-1.3-5.7-3-8.1c-1.1-1.5-2.7-3.1-4.6-3.5c-0.3-0.1-0.5-0.1-0.7-0.1c-0.3-0.2-0.5-0.5-0.8-0.7
				c0.5-0.2,1-0.6,1.5-0.9c0.1-0.1,0-0.2,0-0.3c-0.4-0.3-0.8-0.4-1.2-0.6c0.9-0.5,2.1-1.1,1.9-2.3c-0.1-1-1.1-1.7-2-1.2
				c-1.1,0.6-0.2,2.9,0.9,2.8c-0.4,0.3-0.9,0.4-1.2,0.6c-0.1,0-0.1,0.2,0,0.3c0.4,0.2,0.9,0.3,1.3,0.6C18,6.4,17.6,6.7,17,7
				c-0.1,0-0.1,0.2,0,0.2c0.2,0.3,0.4,0.5,0.7,0.7c-1.4,0.2-2.6,1.3-3.4,2.4c-0.2-0.1-0.4-0.2-0.6-0.3c-0.1,0-0.1,0-0.2,0
				c-0.9,1.5-1.9,3-2.5,4.6c0,0.1,0.1,0.2,0.2,0.2c0,0,0.1,0,0.1,0c-0.6,2.3-1.5,4.5-2,6.8c-0.4,0.6-0.8,1.1-1.3,1.6c0,0,0,0,0,0
				c0,0,0,0,0,0c-0.3,0.4-0.6,0.8-0.9,1.3c-0.7,1.3-1.2,2.8-1.6,4.2c-0.3,1-0.6,2.1-0.7,3.2c0,0.2-0.1,0.5,0,0.7
				c-0.5,0.2-0.7,0.8-0.6,1.3c0,0.1,0,0.2,0.1,0.2c-1.2,0.5-1.6,2.2-1.7,3.4c-0.1,0.9,0.2,1.8,0.8,2.4c0.4,0.5,1.1,0.3,1.7,0.2
				c0.1,0,0.1-0.1,0.1-0.2c-0.1-0.9-0.4-2.3,0.3-3c0.3-0.3,0.8-0.2,1.1,0.1C6.9,37.6,7,38.1,7,38.5c0,0.6-0.1,1.3-0.4,1.9
				c0,0.1,0,0.2,0.1,0.2c0.6,0.1,1.2,0.1,1.8,0.1c0.1,0,0.1,0,0.1-0.1c0.4-1.1,0.3-2.4,0-3.6c-0.2-1-0.6-2.2-1.6-2.7
				c0.1-0.4-0.1-0.8-0.4-1.1c0.2-0.5,0.2-1.1,0.3-1.3c0.1-0.4,0.2-0.9,0.2-1.3c0,0,0,0,0,0c0,0,0-0.1,0-0.1c0.3-1.7,0.7-3.3,1.7-4.8
				c0,1.2,0.1,2.3,0.1,3.4c0.1,1.4,0.3,2.9,1.1,4c0.8,1.1,2,1.6,3.3,1.8c0.1,0.7,0.1,1.5,0.2,2.2c0,0.7,0.1,1.5,0.3,2.2
				c-0.9,0.3-2,1.4-1.6,2.4c0,0,0,0.1,0,0.1c0.7,1.2,3.3,0.9,4.2,0c0,0,0.1,0,0.1-0.1c-0.1-0.9-0.4-1.9-1.2-2.4c0.1-0.6,0-1.3,0-2
				c0-0.8-0.1-1.5-0.2-2.3c1.6,0.1,3.2,0,4.8,0.1c0.3,0,0.7,0,1,0c0.1,1.4,0.2,2.8,0.4,4.2c-0.9,0.4-1.2,1.5-1.3,2.4
				c0,0,0,0.1,0.1,0.1c0.9,0.9,3.5,1.1,4.2,0c0,0,0-0.1,0-0.1c0.4-0.9-0.4-1.8-1.3-2.3c0-0.8,0-1.6,0-2.4c0-0.8,0.1-1.6,0-2.3
				c0.6-0.2,1.1-0.5,1.6-0.8c1.5-0.9,2.4-2.4,2.6-4.1c0.1-0.8,0-1.6-0.1-2.4c-0.2-1.1-0.2-2.2-0.3-3.4c0-0.4-0.1-0.8-0.1-1.2
				c0.8,1.1,1.4,2.3,1.9,3.6c0.5,1.4,0.8,2.9,1.1,4.3c0.1,0.3,0.2,0.7,0.4,1.1c-0.4,0.2-0.5,0.7-0.4,1.1c0,0.1,0.1,0.2,0.1,0.3
				c-1.7,1.4-2,4.3-0.8,6.1c0,0.1,0.1,0.1,0.2,0.1c0.4-0.2,0.9-0.3,1.3-0.5c0.1,0,0.1-0.1,0.1-0.1c-0.2-0.8-0.6-2.4,0.4-2.8
				c1.4-0.5,1.3,1.9,1.2,2.6c0,0.1,0.1,0.2,0.1,0.1c0.5-0.1,1-0.1,1.5,0c0.1,0,0.1,0,0.2-0.1c0.4-1.2,0.5-2.6,0-3.7
				C33.9,34.5,33.2,33.2,32.5,33.1z M17.5,2.2c0.2-0.3,0.6-0.2,0.9-0.2c0.7,0.2,0.9,1,0.8,1.5c-0.1,0.3-0.2,0.6-0.5,0.8
				C17.7,4.7,16.9,3,17.5,2.2z M5.2,31.8c0.1,0.2,0.2,0.4,0.5,0.6c0.3,0.2,0.7,0.2,1,0.1c-0.3,1-0.7,1.9-1.2,1.5
				C4.9,33.6,5,32.6,5.2,31.8z M8.6,37.6c0.1,0.7,0.1,1.4,0,2.2c0,0.2,0,0.6-0.3,0.7c-0.4,0-0.9,0-1.3,0c0.4-0.9,0.6-2.2-0.1-3.1
				c-0.6-0.8-1.7-0.4-2,0.4c-0.2,0.6-0.2,1.2-0.1,1.8c0,0.2,0,0.5,0.1,0.7c0,0.3-1.1,0-1.2-0.2c-0.9-0.7-0.7-2.3-0.5-3.3
				c0.2-0.9,0.5-1.7,1.3-2.2c0.2,0.5,0.7,0.8,1.2,0.9c0.7,0.1,1.3-0.4,1.5-1C8.1,35.2,8.4,36.4,8.6,37.6z M6.9,34.4
				c-0.1,0.5-0.6,0.8-1.2,0.8c-0.5,0-1-0.3-1.2-0.8c0,0,0,0,0-0.1c0,0,0-0.1-0.1-0.1c-0.2-0.5,0-0.9,0.3-1.2c0,0.5,0.2,1,0.6,1.3
				c0.6,0.4,1-0.2,1.3-0.9C6.9,33.7,7,34,6.9,34.4z M6.7,32.3c-0.3,0-0.6,0.1-0.9-0.1c-0.2-0.1-0.4-0.4-0.6-0.7
				c0-0.1,0.1-0.2,0.1-0.3c0.1-0.4,0.2-0.8,0.3-1.2c0.1,0.2,0.3,0.4,0.5,0.6c0.2,0.1,0.6,0.2,0.9,0.1C7,31.1,6.9,31.7,6.7,32.3z
				 M7.1,30.4c-0.1,0-0.1,0-0.2,0c-0.2,0-0.3,0-0.5-0.1c-0.3-0.1-0.6-0.4-0.7-0.7c0.2-0.6,0.3-1.2,0.5-1.8c0,0,0,0,0,0
				c0.1,0.2,0.2,0.3,0.3,0.5c0.2,0.2,0.7,0.3,1,0.1C7.3,29.1,7.2,29.8,7.1,30.4z M7.6,28.2c-0.1,0-0.2,0.1-0.3,0.1
				c-0.2,0-0.4,0-0.5-0.1c-0.2-0.1-0.4-0.4-0.4-0.6c0.2-0.7,0.5-1.3,0.8-2c0,0.2,0.1,0.5,0.3,0.7c0.2,0.2,0.5,0.4,0.8,0.3
				C7.9,27.1,7.7,27.7,7.6,28.2z M8.2,26.4c-0.1,0-0.2,0-0.4,0c-0.2,0-0.3-0.2-0.4-0.3c-0.1-0.2-0.2-0.4-0.3-0.6
				c0.2-0.4,0.4-0.8,0.6-1.2c0.1-0.1,0.2-0.3,0.3-0.4c0,0.3,0,0.6,0.2,0.9C8.3,25,8.6,25.3,9,25.3C8.7,25.6,8.4,26,8.2,26.4z
				 M9,25.1c-0.1,0-0.2-0.1-0.3-0.1c-0.2-0.1-0.3-0.4-0.4-0.6c-0.1-0.2-0.1-0.5-0.1-0.8c0.4-0.5,0.8-0.9,1.1-1.4
				C9.1,23.2,9,24.1,9,25.1z M13.7,10.5c0,0,0-0.1,0.1-0.1c0.2,0.1,0.5,0.2,0.8,0.4c0.6,0.3,1.3,0.6,1.9,0.9c0,0-0.1,0.1-0.1,0.1
				c-0.2,0.2-0.3,0.5-0.4,0.8c-0.4,0.7-0.8,1.4-1.2,2.1c-0.1,0.2-0.3,0.5-0.4,0.7c0,0,0,0,0,0c0,0,0,0-0.1,0
				c-0.9-0.2-1.8-0.4-2.7-0.6c0-0.1-0.1-0.1-0.2,0c0,0,0,0-0.1,0C12,13.2,12.9,11.8,13.7,10.5z M16.5,41.8c-1,0.7-2.9,0.9-3.8,0
				c0.1-1.2,0.9-2.1,2.1-2.2C15.8,39.5,16.3,40.9,16.5,41.8z M15.3,39.4c-0.2-0.1-0.5-0.1-0.8-0.1c-0.1,0-0.2,0-0.3,0
				c-0.1-0.7-0.2-1.4-0.2-2.2C14,36.4,14,35.7,13.8,35c0.4,0.1,0.9,0.1,1.3,0.2c0,0.8,0.1,1.5,0.2,2.3
				C15.3,38.1,15.2,38.8,15.3,39.4z M21.3,35.2c0.6-0.1,1.2-0.2,1.7-0.4c-0.2,1.5-0.3,3.1-0.1,4.6c-0.2-0.1-0.3-0.1-0.5-0.1
				c-0.2,0-0.5,0-0.7,0C21.7,38,21.7,36.5,21.3,35.2z M23.6,40.2c0.5,0.4,0.7,1,0.7,1.6c-1,0.9-2.8,0.7-3.9,0
				c0.2-0.8,0.5-1.9,1.4-2.2C22.5,39.4,23.2,39.8,23.6,40.2z M26.4,31.7c-0.8,1.7-2.8,2.7-4.6,3c-0.9,0.2-1.8,0.2-2.8,0.1
				c-1.2,0-2.3,0-3.5,0c-1.7-0.1-3.8-0.4-4.9-1.9c-0.6-0.8-0.8-1.8-1-2.8c0-0.2-0.1-0.5-0.1-0.7c2.9,0.4,6,0,8.9-0.1
				c1.5-0.1,3-0.1,4.5-0.1c1.3,0,2.7,0.1,4-0.1C27,29.9,26.8,30.8,26.4,31.7z M27,28.9c-1.2-0.2-2.5-0.1-3.7-0.1c-1.5,0-3,0-4.5,0.1
				c-1.6,0.1-3.2,0.2-4.7,0.2c-1.5,0.1-3,0-4.4,0c-0.1-1.3-0.1-2.6-0.1-3.9c0-1.8,0.3-3.5,0.8-5.3c0.5-1.7,1.1-3.3,1.4-5
				c0.9,0.3,1.9,0.5,2.9,0.7c0.1,0,0.2,0,0.2-0.1c0.7-1.3,1.3-2.7,2-3.9c0,0,0-0.1,0-0.1c-0.7-0.3-1.4-0.7-2.1-1
				c1.4-1.7,3.2-2.8,5.3-1.8c1.9,0.9,3.3,2.8,4.3,4.6c2,3.7,2.3,8,2.5,12.1C26.7,26.6,27,27.7,27,28.9z M26.8,22.5
				c-0.1-0.9-0.2-1.8-0.3-2.7c0.6,0.4,1.1,1,1.5,1.6c0,0.1,0,0.2,0,0.3c0,0.2-0.1,0.4-0.2,0.6c-0.1,0.2-0.2,0.3-0.4,0.4
				c-0.2,0.1-0.3,0-0.5,0C26.9,22.6,26.9,22.6,26.8,22.5z M27.1,23c0.3,0,0.6-0.2,0.7-0.4c0.1-0.2,0.3-0.6,0.4-0.9
				c0.1,0.1,0.2,0.2,0.2,0.3c0.3,0.3,0.5,0.7,0.7,1c-0.1,0.4-0.1,0.7-0.5,0.9c-0.3,0.2-0.6,0.1-0.9,0.1C27.6,23.7,27.4,23.3,27.1,23
				z M28.4,25.3c-0.2-0.3-0.3-0.7-0.5-1c0.3,0.1,0.7,0,0.9-0.1c0.3-0.1,0.5-0.5,0.6-0.8c0.2,0.4,0.4,0.8,0.6,1.2
				c-0.1,0.3-0.2,0.5-0.5,0.8C29.2,25.6,28.8,25.6,28.4,25.3C28.5,25.3,28.4,25.3,28.4,25.3z M28.6,25.7c0.3,0.2,0.6,0.1,0.9,0
				c0.3-0.1,0.5-0.5,0.6-0.8c0,0.1,0.1,0.2,0.1,0.3c0.2,0.5,0.4,1,0.5,1.6c-0.1,0.3-0.3,0.5-0.7,0.6c-0.4,0.1-0.7,0-1-0.2
				C29,26.6,28.8,26.1,28.6,25.7z M29.6,28.6c-0.1-0.4-0.2-0.8-0.4-1.2c0.6,0.3,1.4,0.2,1.7-0.4c0.1,0.4,0.3,0.9,0.4,1.3
				c-0.2,0.3-0.4,0.4-0.8,0.5C30.2,28.8,29.9,28.7,29.6,28.6C29.6,28.6,29.6,28.6,29.6,28.6z M29.7,28.9c0.3,0.1,0.6,0.2,1,0.1
				c0.3,0,0.6-0.2,0.7-0.4c0,0.1,0,0.1,0,0.2c0.1,0.4,0.2,0.9,0.3,1.4c-0.5,0.4-1.3,0.6-1.7,0.1C29.9,29.9,29.8,29.4,29.7,28.9z
				 M30.2,30.7c0.2,0.1,0.4,0.2,0.7,0.2c0.3,0,0.8-0.1,1-0.4c0.1,0.5,0.2,1,0.1,1.5c-0.1,0.5-0.5,0.9-0.9,0.5
				c-0.3-0.3-0.4-0.7-0.6-1.1C30.3,31.1,30.2,30.9,30.2,30.7z M30.3,32c0.4,0.8,1,1.4,1.7,0.5c0.1-0.2,0.2-0.4,0.3-0.7
				c0.6,0.6-0.3,1.6-1,1.8c-0.5,0.1-0.9-0.2-1.2-0.6C29.9,32.6,30.1,32.3,30.3,32z M34.1,38c-0.1,0.4-0.1,0.5-0.5,0.5
				c-0.3,0-0.5,0-0.8,0c-0.2,0-0.1,0-0.1-0.2c0-0.2,0-0.4,0-0.6c0-0.4-0.1-0.8-0.2-1.1c-0.2-0.6-0.7-0.8-1.3-0.8
				c-1.3,0.1-0.9,2.2-0.8,3c0,0-0.6,0.2-0.6,0.2c-0.4,0.1-0.6,0.3-0.8-0.1c-0.3-0.6-0.5-1.4-0.5-2.1c0-1.3,0.7-2.3,1.4-3.4
				c0.3,0.3,0.7,0.5,1.1,0.5c0.4,0,0.8-0.2,1.1-0.6c0,0,0,0,0,0c0.5,0,0.9,0.7,1.2,1.1c0.3,0.5,0.6,0.9,0.7,1.5
				C34.3,36.6,34.3,37.3,34.1,38z"/>
		</g>
		<path class="st5" d="M22,21c0,0.3-0.2,0.5-0.5,0.5c-0.3,0-0.5-0.2-0.5-0.5c0-0.3,0.2-0.5,0.5-0.5C21.7,20.4,22,20.7,22,21z"/>
		<path class="st5" d="M14,21c0,0.3-0.2,0.5-0.5,0.5c-0.3,0-0.5-0.2-0.5-0.5c0-0.3,0.2-0.5,0.5-0.5C13.7,20.4,14,20.7,14,21z"/>
		<g>
			<path class="st8" d="M21,11.1c-2.6-1.9-4.5,0.2-2.8,3.1c2.8,5.7,7.8-0.6,2.6-3.3"/>
		</g>
	</g>
</g>
</svg>
