<?xml version="1.0" encoding="utf-8"?>
<!-- Generator: Adobe Illustrator 20.1.0, SVG Export Plug-In . SVG Version: 6.00 Build 0)  -->
<svg version="1.1" id="Layer_1" xmlns="http://www.w3.org/2000/svg" xmlns:xlink="http://www.w3.org/1999/xlink" x="0px" y="0px"
	 viewBox="0 0 35.5 48.3" style="enable-background:new 0 0 35.5 48.3;" xml:space="preserve">
<style type="text/css">
	.st0{fill:#333333;}
</style>
<g>
	<path class="st0" d="M26.2,2.1c-0.2,1.6-1,9.8-1.6,16.8c-0.2-0.1-0.5-0.1-0.8-0.2c0.1-1.6,0.2-3.3,0.3-5.3c0.2-3.2-4.8-3.2-5-0.2
		c-0.1,0.9-0.2,2.9-0.3,5.1c-0.2,0-0.4,0-0.6,0c0-1.5-0.1-3.2-0.1-5c0-3.3-5-2.8-5,0.1c0,0.9,0,3,0.1,5.3c-0.4,0-0.8,0.1-1.3,0.2
		l-0.1-3c0,0,0,0,0.1-0.1c0-0.2,0-0.4-0.1-0.6c-0.3-2.9-0.4-6.3-0.6-9.1C11,2,6.2,3.1,6.2,5.9C6.3,8,6.5,12.1,6.8,16
		c0,0,0.1,6.1,1.1,12c0,0,0,0,0,0L8.2,33c0,2.2,1.7,4,3.9,4h15c0.5,0,0.9-0.3,1.1-0.7l2-5.2c0.1-0.3,0.2-0.6,0.3-0.8l0,0
		c0,0,0,0,0,0c0.1-0.4,0.2-0.6,0.2-0.6s1.2-3.9-1.5-5.1c0.5-5.4,1.7-18.9,1.9-21.4C31.6-1,26.6-0.8,26.2,2.1z"/>
	<path class="st0" d="M29,46.3c0,0.9-0.7,1.6-1.6,1.6H10.8c-0.9,0-1.6-0.7-1.6-1.6v-6.5c0-0.9,0.7-1.6,1.6-1.6h16.6
		c0.9,0,1.6,0.7,1.6,1.6V46.3z"/>
</g>
</svg>
